<svg width="114" height="204" viewBox="0 0 114 204" fill="none" xmlns="http://www.w3.org/2000/svg">
<path d="M43.5513 67.2397H28.3713C26.8313 67.2397 25.2913 66.3597 25.5113 64.5997V37.5397C25.5113 35.7797 26.8313 34.4597 29.0313 34.2397L85.7913 25.4397C87.7713 25.2197 88.8713 26.0997 88.8713 27.6397V175.7C88.8713 177.46 87.5513 179 85.7913 179H46.8513C44.8713 179 43.5513 177.46 43.5513 175.7V67.2397Z" fill="#9F85FF"/>
<path fill-rule="evenodd" clip-rule="evenodd" d="M88.8712 175.699C88.8712 177.459 87.5512 178.999 85.7912 178.999H46.8512C44.8712 178.999 43.5512 177.459 43.5512 175.699V67.2392H28.3712C26.8312 67.2392 25.2912 66.3592 25.5112 64.5992V37.5392C25.5112 35.7792 26.8312 34.4592 29.0312 34.2392L85.7912 25.4392C87.7712 25.2192 88.8712 26.0992 88.8712 27.6392V175.699ZM25.5974 9.47291C20.3616 10.1626 14.303 12.3417 9.18426 17.2278C3.50733 22.6467 0.51116 30.0088 0.51116 37.5392V63.8277C0.147016 72.7645 4.15599 80.8947 10.6638 86.1009C13.225 88.1499 15.9174 89.5685 18.5512 90.5213V175.699C18.5512 190.158 29.9808 203.999 46.8512 203.999H85.7912C103.547 203.999 113.871 188.971 113.871 175.699V27.6392C113.871 20.5645 111.035 11.7442 102.904 5.75282C95.5672 0.347021 87.703 0.0729233 83.0303 0.592144C82.6728 0.631857 82.3163 0.679279 81.961 0.734375L25.5974 9.47291Z" fill="white"/>
</svg>
