<svg width="157" height="206" viewBox="0 0 157 206" fill="none" xmlns="http://www.w3.org/2000/svg">
<path d="M128.707 181H28.6066C26.6266 181 25.3066 179.68 25.3066 177.92V153.5C25.3066 151.96 26.1866 149.76 27.5066 148.22C61.3866 113.24 79.2066 87.9404 79.2066 74.0804C79.2066 68.5804 75.2466 65.5004 68.4266 65.5004C61.6066 65.5004 52.1466 69.0204 43.3466 75.1804C41.8066 76.0604 40.0466 74.9604 39.6066 73.4204L27.9466 46.8004C27.2866 45.2604 27.9466 44.3804 29.7066 43.0604C44.6666 32.2804 62.4866 25.9004 77.8866 25.9004C108.687 25.9004 126.947 41.9604 126.947 69.0204C126.947 90.8004 115.727 116.32 91.3066 141.4H128.707C130.467 141.4 132.007 142.72 132.007 144.48V177.92C132.007 179.68 130.467 181 128.707 181Z" fill="#9F85FF"/>
<path fill-rule="evenodd" clip-rule="evenodd" d="M8.52522 131.951C8.85498 131.566 9.19635 131.191 9.54887 130.827C20.8979 119.11 30.0726 108.834 37.1714 100.018C34.4279 99.5025 31.8426 98.5907 29.5303 97.3883C23.5578 94.2826 18.8457 89.0646 16.3798 82.7038L5.04705 56.8308C5.02046 56.7701 4.99411 56.7093 4.968 56.6483C2.43406 50.7358 1.17789 42.0209 5.77335 33.2477C8.82747 27.4171 13.4589 23.9853 14.5779 23.1561C14.628 23.119 14.6711 23.087 14.7067 23.0604C14.8339 22.9649 14.9621 22.8707 15.0912 22.7777C33.403 9.58236 56.2262 0.900391 77.8866 0.900391C97.3961 0.900391 116.207 5.99623 130.473 18.5365C145.166 31.4531 151.947 49.561 151.947 69.0204C151.947 85.3873 147.458 102.085 139.022 118.405C148.721 122.21 157.007 131.297 157.007 144.48V177.92C157.007 195.676 141.978 206 128.707 206H28.6066C21.9633 206 14.7254 203.703 8.97276 198.224C3.17864 192.706 0.306641 185.272 0.306641 177.92V153.5C0.306641 144.766 4.2019 136.994 8.52522 131.951ZM91.3066 141.4C99.4232 133.065 106.081 124.68 111.354 116.4C121.946 99.7693 126.947 83.5613 126.947 69.0204C126.947 41.9604 108.687 25.9004 77.8866 25.9004C62.4866 25.9004 44.6666 32.2804 29.7066 43.0604C27.9466 44.3804 27.2866 45.2604 27.9466 46.8004L39.6066 73.4204C40.0466 74.9604 41.8066 76.0604 43.3466 75.1804C46.493 72.9779 49.7237 71.113 52.888 69.6257C56.5922 67.8847 60.2053 66.6612 63.4854 66.0199C63.4857 66.0199 63.4852 66.02 63.4854 66.0199C65.2399 65.677 66.8998 65.5004 68.4266 65.5004C75.2466 65.5004 79.2066 68.5804 79.2066 74.0804C79.2066 87.9404 61.3866 113.24 27.5066 148.22C26.1866 149.76 25.3066 151.96 25.3066 153.5V177.92C25.3066 179.68 26.6266 181 28.6066 181H128.707C130.467 181 132.007 179.68 132.007 177.92V144.48C132.007 142.72 130.467 141.4 128.707 141.4H91.3066Z" fill="white"/>
</svg>
