<svg width="164" height="210" viewBox="0 0 164 210" fill="none" xmlns="http://www.w3.org/2000/svg">
<path d="M43.5049 70.3404L32.9449 41.9604C32.2849 40.2004 32.7249 39.3204 34.7049 38.2204C49.0049 30.5204 67.0449 25.9004 83.1049 25.9004C114.785 25.9004 133.485 42.4004 133.485 70.5604C133.485 82.6604 127.985 93.4404 118.745 99.3804C131.285 107.52 138.765 121.16 138.765 136.34C138.765 166.26 117.865 184.08 82.4449 184.08C62.6449 184.08 42.1849 178.14 27.4449 168.24C26.5649 167.8 25.2449 166.26 25.9049 164.72L36.6849 134.14C37.1249 132.6 39.5449 131.94 40.6449 132.38C53.1849 138.54 65.7249 142.28 74.7449 142.28C86.4049 142.28 92.3449 137.66 92.3449 132.16C92.3449 125.78 85.0849 121.38 74.0849 121.38H52.3049C50.3249 121.38 48.7849 119.84 48.5649 118.52L45.4849 87.7204C45.2649 86.4004 46.3649 84.8604 48.3449 84.8604H74.0849C83.5449 84.8604 89.9249 80.9004 89.9249 74.9604C89.9249 70.3404 84.6449 66.3804 74.7449 66.3804C69.4649 66.3804 59.3449 68.5804 47.4649 72.1004C45.9249 72.5404 44.1649 71.4404 43.5049 70.3404Z" fill="#9F85FF"/>
<path fill-rule="evenodd" clip-rule="evenodd" d="M21.0567 81.3444C20.6916 80.5997 20.3637 79.8369 20.0741 79.0587L9.53646 50.7385C9.53141 50.725 9.52633 50.7114 9.52123 50.6978C8.25633 47.3107 5.69293 38.6921 10.2632 29.0946C14.0832 21.0726 20.7489 17.3735 22.4979 16.4029C22.5207 16.3903 22.5426 16.3782 22.5636 16.3665C22.6595 16.3132 22.7557 16.2606 22.8522 16.2086C40.7134 6.59103 62.8159 0.900391 83.1047 0.900391C103.047 0.900391 122.235 6.10396 136.747 18.9523C151.674 32.168 158.485 50.6699 158.485 70.5604C158.485 80.0656 156.362 89.493 152.198 97.9452C159.638 109.077 163.765 122.335 163.765 136.34C163.765 157.523 156.113 176.865 140.067 190.488C124.563 203.651 104.061 209.08 82.4447 209.08C58.4765 209.08 33.3516 202.1 14.155 189.426C9.93694 186.826 6.58828 183.184 4.33312 179.194C1.53687 174.247 -1.16922 165.597 2.47213 155.997L12.9749 126.203C15.1001 119.738 19.0998 115.482 22.8643 112.764L20.6553 90.6736C20.2413 87.3972 20.4089 84.2675 21.0567 81.3444ZM43.5047 70.3404C44.1647 71.4404 45.9247 72.5404 47.4647 72.1004C47.7591 72.0131 48.0525 71.9267 48.3447 71.8411C55.328 69.7954 61.6672 68.2204 66.7224 67.2989C69.6479 66.7656 72.1433 66.4511 74.0847 66.391C74.3124 66.384 74.5324 66.3804 74.7447 66.3804C84.6447 66.3804 89.9247 70.3404 89.9247 74.9604C89.9247 80.7612 83.8402 84.6737 74.7447 84.8539C74.5264 84.8582 74.3064 84.8604 74.0847 84.8604H70.3214C70.2734 84.4472 70.2146 84.0305 70.1445 83.6104C70.2137 84.0255 70.2733 84.4423 70.3214 84.8604H48.3447C46.3647 84.8604 45.2647 86.4004 45.4847 87.7204L48.5647 118.52C48.7847 119.84 50.3247 121.38 52.3047 121.38H74.0847C74.3062 121.38 74.5262 121.382 74.7447 121.386C85.3742 121.558 92.3447 125.909 92.3447 132.16C92.3447 137.66 86.4047 142.28 74.7447 142.28C74.5267 142.28 74.3067 142.278 74.0847 142.274C72.9428 142.251 71.7478 142.172 70.5065 142.037C65.1258 141.455 58.875 139.844 52.3047 137.41C48.4898 135.997 44.5673 134.307 40.6447 132.38C39.5447 131.94 37.1247 132.6 36.6847 134.14L25.9047 164.72C25.2447 166.26 26.5647 167.8 27.4447 168.24C42.1847 178.14 62.6447 184.08 82.4447 184.08C117.865 184.08 138.765 166.26 138.765 136.34C138.765 130.029 137.472 123.984 135.059 118.489C131.67 110.769 126.071 104.136 118.745 99.3804C125.875 94.7965 130.778 87.3304 132.646 78.5996C133.198 76.0166 133.485 73.3229 133.485 70.5604C133.485 42.4004 114.785 25.9004 83.1047 25.9004C67.0447 25.9004 49.0047 30.5204 34.7047 38.2204C32.7247 39.3204 32.2847 40.2004 32.9447 41.9604L43.5047 70.3404Z" fill="white"/>
</svg>
