<svg width="348" height="195" viewBox="0 0 348 195" fill="none" xmlns="http://www.w3.org/2000/svg">
<path d="M17.125 41.0391H325.125V145.039H17.125V41.0391Z" fill="white"/>
<path d="M264.125 129.039H295.125V168.039H264.125V129.039Z" fill="white"/>
<path d="M290.76 115.039H304.84C305.48 115.039 306.04 115.599 306.04 116.159V171.839C306.04 172.479 305.48 173.039 304.84 173.039H295.8C295.24 173.039 294.84 172.559 294.52 171.839L293.32 168.959C290.28 172.159 285.16 174.239 279.8 174.239C267.16 174.239 258.68 164.959 258.68 151.039C258.68 137.199 267.16 127.919 279.8 127.919C283.56 127.919 287.16 129.039 289.56 130.959V116.159C289.56 115.599 290.12 115.039 290.76 115.039ZM289.56 156.159V146.079C288.6 143.439 286.04 141.679 283.24 141.679C278.84 141.679 275.88 145.359 275.88 150.959C275.88 156.719 278.84 160.559 283.24 160.559C286.04 160.559 288.6 158.799 289.56 156.159Z" fill="#677EFF"/>
<path d="M248.46 158.638L251.9 168.558C252.06 169.118 251.9 169.438 251.34 169.758C247.1 172.558 240.94 174.238 234.78 174.238C220.62 174.238 211.18 164.958 211.18 151.118C211.18 137.198 220.46 127.918 234.38 127.918C247.66 127.918 255.5 136.478 255.5 151.038C255.5 152.238 255.42 153.438 255.18 154.638C255.1 155.278 254.7 155.598 253.98 155.598H228.3C228.3 155.598 228.3 160.638 235.02 160.638C239.1 160.638 243.66 159.678 247.26 157.998C247.82 157.758 248.3 158.078 248.46 158.638ZM228.22 147.198H239.58C239.58 143.678 237.42 141.358 234.22 141.358C230.62 141.358 228.22 143.678 228.22 147.198Z" fill="#677EFF"/>
<path d="M203.16 129.039H209.16C209.88 129.039 210.36 129.519 210.36 130.159L209.48 137.919C209.4 138.559 208.92 139.119 208.28 139.119H203.16V171.839C203.16 172.479 202.6 173.039 201.96 173.039H187.88C187.24 173.039 186.68 172.479 186.68 171.839V139.119H182.12C181.56 139.119 181 138.639 181 137.999V130.239C181 129.519 181.56 129.039 182.12 129.039H186.68V120.319C186.68 119.759 187.24 119.279 187.88 119.199L201.96 117.839C202.6 117.759 203.16 118.399 203.16 118.959V129.039Z" fill="#677EFF"/>
<path d="M175.428 129.039H177.508C178.148 129.039 178.628 129.519 178.628 130.159V140.559C178.628 141.199 178.148 141.679 177.508 141.679H175.428C172.388 141.679 169.668 143.039 168.628 145.039V171.839C168.628 172.479 168.068 173.039 167.428 173.039H153.348C152.708 173.039 152.148 172.479 152.148 171.839V130.239C152.148 129.679 152.708 129.119 153.348 129.119H162.388C163.028 129.119 163.428 129.679 163.668 130.319L164.868 133.839C167.268 130.879 171.188 129.039 175.428 129.039Z" fill="#677EFF"/>
<path d="M112.945 143.598L108.385 133.998C108.145 133.438 108.305 132.878 108.785 132.478C113.345 129.598 119.745 127.918 126.145 127.918C139.985 127.918 146.385 135.198 146.385 151.118V171.838C146.385 172.478 145.825 173.038 145.185 173.038H135.105C134.465 173.038 133.825 172.478 133.825 171.838L133.265 169.678C130.625 172.478 125.345 174.238 119.505 174.238C110.305 174.238 104.225 168.318 104.305 159.518C104.385 151.678 110.465 146.478 119.505 146.478C124.145 146.478 128.305 148.158 129.905 150.718V147.358C129.905 143.918 127.425 141.678 123.745 141.678C120.625 141.678 116.785 142.718 114.145 144.238C113.745 144.478 113.265 144.158 112.945 143.598ZM129.905 160.398V158.638C128.545 157.278 127.185 156.638 125.505 156.638C123.505 156.638 122.145 157.758 122.145 159.518C122.145 161.278 123.505 162.398 125.505 162.398C127.185 162.398 128.545 161.758 129.905 160.398Z" fill="#677EFF"/>
<path d="M97.1444 129.039H103.144C103.864 129.039 104.344 129.519 104.344 130.159L103.464 137.919C103.384 138.559 102.904 139.119 102.264 139.119H97.1444V171.839C97.1444 172.479 96.5844 173.039 95.9444 173.039H81.8644C81.2244 173.039 80.6644 172.479 80.6644 171.839V139.119H76.1044C75.5444 139.119 74.9844 138.639 74.9844 137.999V130.239C74.9844 129.519 75.5444 129.039 76.1044 129.039H80.6644V120.319C80.6644 119.759 81.2244 119.279 81.8644 119.199L95.9444 117.839C96.5844 117.759 97.1444 118.399 97.1444 118.959V129.039Z" fill="#677EFF"/>
<path d="M38.2984 168.398L42.3784 159.118C42.5384 158.638 43.0184 158.558 43.4184 158.798C46.5384 160.638 49.8984 162.078 52.6184 162.078C54.2984 162.238 55.4184 161.278 55.4184 160.078C55.4184 155.998 37.8984 157.278 37.8984 142.238C37.8984 133.678 45.1784 127.918 56.0584 127.918C61.2584 127.918 67.4984 129.758 71.7384 132.478C72.1384 132.798 72.3784 133.198 72.2184 133.598L68.1384 143.038C67.9784 143.518 67.4984 143.598 67.0984 143.358C63.9784 141.358 60.6184 140.078 57.8984 140.078C56.2184 139.918 55.0984 140.718 55.0984 141.998C55.0984 146.238 72.6184 144.718 72.6184 159.918C72.6184 168.478 65.5784 174.238 54.9384 174.238C49.7384 174.238 43.2584 172.398 38.7784 169.678C38.3784 169.278 38.1384 168.878 38.2984 168.398Z" fill="#677EFF"/>
<path d="M320.152 33.0388H326.152C326.872 33.0388 327.352 33.5188 327.352 34.1588L326.472 41.9188C326.392 42.5588 325.912 43.1188 325.272 43.1188H320.152V75.8388C320.152 76.4788 319.592 77.0388 318.952 77.0388H304.872C304.232 77.0388 303.672 76.4788 303.672 75.8388V43.1188H299.112C298.552 43.1188 297.992 42.6388 297.992 41.9988V34.2388C297.992 33.5188 298.552 33.0388 299.112 33.0388H303.672V24.3188C303.672 23.7588 304.232 23.2788 304.872 23.1988L318.952 21.8388C319.592 21.7588 320.152 22.3988 320.152 22.9588V33.0388Z" fill="#677EFF"/>
<path d="M288.577 62.638L292.017 72.558C292.177 73.118 292.017 73.438 291.457 73.758C287.217 76.558 281.057 78.238 274.897 78.238C260.737 78.238 251.297 68.958 251.297 55.118C251.297 41.198 260.577 31.918 274.497 31.918C287.777 31.918 295.617 40.478 295.617 55.038C295.617 56.238 295.537 57.438 295.297 58.638C295.217 59.278 294.817 59.598 294.097 59.598H268.417C268.417 59.598 268.417 64.638 275.137 64.638C279.217 64.638 283.777 63.678 287.377 61.998C287.937 61.758 288.417 62.078 288.577 62.638ZM268.337 51.198H279.697C279.697 47.678 277.537 45.358 274.337 45.358C270.737 45.358 268.337 47.678 268.337 51.198Z" fill="#677EFF"/>
<path d="M230.337 73.598V71.278C229.057 73.838 225.217 75.518 220.737 75.518C209.057 75.518 201.297 67.118 201.297 54.478C201.297 40.318 208.497 31.918 220.737 31.918C226.897 31.918 231.777 33.598 233.857 36.478L235.297 34.238C235.777 33.518 236.497 33.038 237.137 33.038H245.617C246.337 33.038 246.817 33.518 246.817 34.238V72.958C246.817 85.038 235.857 93.118 222.257 93.118C214.337 93.118 207.297 91.278 203.377 88.078C202.897 87.678 202.737 87.118 202.897 86.718L206.977 76.798C207.217 76.238 207.697 75.998 208.177 76.318C211.617 79.118 216.897 80.798 222.257 80.798C227.297 80.798 230.337 78.158 230.337 73.598ZM230.337 58.558V50.478C230.337 50.478 229.137 46.878 224.817 46.878C220.817 46.878 218.497 49.678 218.497 54.478C218.497 59.278 220.817 62.158 224.817 62.158C229.137 62.158 230.337 58.558 230.337 58.558Z" fill="#677EFF"/>
<path d="M153.416 72.398L157.496 63.118C157.656 62.638 158.136 62.558 158.536 62.798C161.656 64.638 165.016 66.078 167.736 66.078C169.416 66.238 170.536 65.278 170.536 64.078C170.536 59.998 153.016 61.278 153.016 46.238C153.016 37.678 160.296 31.918 171.176 31.918C176.376 31.918 182.616 33.758 186.856 36.478C187.256 36.798 187.496 37.198 187.336 37.598L183.256 47.038C183.096 47.518 182.616 47.598 182.216 47.358C179.096 45.358 175.736 44.078 173.016 44.078C171.336 43.918 170.216 44.718 170.216 45.998C170.216 50.238 187.736 48.718 187.736 63.918C187.736 72.478 180.696 78.238 170.056 78.238C164.856 78.238 158.376 76.398 153.896 73.678C153.496 73.278 153.256 72.878 153.416 72.398Z" fill="#677EFF"/>
<path d="M150.612 20.88C150.132 22.8 149.518 25.0933 148.772 27.76C148.025 30.4267 147.225 33.12 146.372 35.84C145.518 38.5067 144.638 40.8267 143.732 42.8H132.852C133.225 40.9867 133.598 39.0933 133.972 37.12C134.345 35.0933 134.692 33.0933 135.012 31.12C135.385 29.0933 135.705 27.1467 135.972 25.28C136.292 23.36 136.532 21.6 136.692 20H150.052L150.612 20.88Z" fill="#677EFF"/>
<path d="M123.433 33.0388H129.433C130.153 33.0388 130.633 33.5188 130.633 34.1588L129.753 41.9188C129.673 42.5588 129.193 43.1188 128.553 43.1188H123.433V75.8388C123.433 76.4788 122.873 77.0388 122.233 77.0388H108.153C107.513 77.0388 106.953 76.4788 106.953 75.8388V43.1188H102.393C101.833 43.1188 101.273 42.6388 101.273 41.9988V34.2388C101.273 33.5188 101.833 33.0388 102.393 33.0388H106.953V24.3188C106.953 23.7588 107.513 23.2788 108.153 23.1988L122.233 21.8388C122.873 21.7588 123.433 22.3988 123.433 22.9588V33.0388Z" fill="#677EFF"/>
<path d="M91.8581 62.638L95.2981 72.558C95.4581 73.118 95.2981 73.438 94.7381 73.758C90.4981 76.558 84.3381 78.238 78.1781 78.238C64.0181 78.238 54.5781 68.958 54.5781 55.118C54.5781 41.198 63.8581 31.918 77.7781 31.918C91.0581 31.918 98.8981 40.478 98.8981 55.038C98.8981 56.238 98.8181 57.438 98.5781 58.638C98.4981 59.278 98.0981 59.598 97.3781 59.598H71.6981C71.6981 59.598 71.6981 64.638 78.4181 64.638C82.4981 64.638 87.0581 63.678 90.6581 61.998C91.2181 61.758 91.6981 62.078 91.8581 62.638ZM71.6181 51.198H82.9781C82.9781 47.678 80.8181 45.358 77.6181 45.358C74.0181 45.358 71.6181 47.678 71.6181 51.198Z" fill="#677EFF"/>
<path d="M36.56 62.6398H51.44C52 62.6398 52.48 63.1198 52.48 63.7598L51.36 75.9198C51.28 76.4798 50.72 77.0398 50.08 77.0398H21.2C20.56 77.0398 20 76.4798 20 75.9198V23.0398C20 22.3998 20.56 21.8398 21.2 21.8398H35.36C36 21.8398 36.56 22.3998 36.56 23.0398V62.6398Z" fill="#677EFF"/>
<path d="M283.499 141.685C286.196 141.79 288.628 143.522 289.558 146.079V156.159C288.598 158.799 286.037 160.559 283.237 160.559L282.829 160.548C278.655 160.317 275.877 156.539 275.877 150.959C275.877 145.359 278.837 141.679 283.237 141.679L283.499 141.685ZM278.717 150.021C278.692 150.324 278.677 150.663 278.677 151.039L278.687 151.562C278.695 151.799 278.711 152.018 278.73 152.222L281.135 153.096C281.808 152.579 282.511 152.109 283.237 151.685V149.934C282.542 149.702 281.858 149.431 281.188 149.122L278.717 150.021ZM283.237 151.685C283.974 151.255 284.736 150.874 285.518 150.543C284.748 150.384 283.986 150.183 283.237 149.934V151.685ZM239.088 144.534C239.406 145.31 239.577 146.207 239.577 147.199H238.82C238.886 146.308 238.975 145.419 239.088 144.534ZM326.037 171.839C326.037 183.525 316.523 193.039 304.837 193.039H295.797C294.18 193.039 292.682 192.875 291.295 192.587C287.506 193.692 283.599 194.239 279.797 194.239C268.323 194.239 257.512 189.886 249.715 181.331C247.383 178.772 245.449 175.977 243.884 173.019C246.682 172.25 249.244 171.141 251.337 169.759C251.897 169.439 252.057 169.119 251.897 168.559L248.457 158.639C248.297 158.079 247.817 157.759 247.257 157.999C244.943 159.079 242.233 159.859 239.509 160.28C239.223 158.733 239.016 157.17 238.878 155.599H253.978C254.697 155.599 255.097 155.279 255.177 154.639C255.387 153.589 255.475 152.539 255.493 151.489L255.497 151.039C255.497 140.279 251.215 132.796 243.62 129.623C245.234 126.474 247.26 123.505 249.731 120.8C255.464 114.525 262.824 110.515 270.882 108.831C272.134 105.498 274.113 102.825 276.107 100.922C279.515 97.6693 284.601 95.0392 290.757 95.0391H304.837V115.039H290.757C290.117 115.039 289.558 115.599 289.558 116.159V130.959C287.158 129.039 283.557 127.919 279.797 127.919C267.157 127.919 258.677 137.199 258.677 151.039C258.677 164.959 267.157 174.239 279.797 174.239C285.157 174.239 290.277 172.159 293.317 168.959L294.518 171.839C294.838 172.559 295.237 173.039 295.797 173.039H304.837C305.477 173.039 306.037 172.479 306.037 171.839V116.159C306.037 115.634 305.545 115.109 304.956 115.046L304.837 115.039V95.0391C310.993 95.0391 316.079 97.6693 319.486 100.922C322.78 104.065 326.037 109.305 326.037 116.159V171.839Z" fill="white"/>
<path d="M234.379 107.918C245.472 107.918 256.552 111.632 264.681 120.523C267.264 123.35 269.311 126.444 270.9 129.7C263.34 133.025 258.679 140.778 258.679 151.038C258.679 161.676 263.632 169.603 271.608 172.75C271.308 174.36 270.791 176.063 269.964 177.81C267.568 182.867 263.809 185.575 261.88 186.756C253.85 191.895 243.889 194.238 234.779 194.238C223.257 194.238 212.066 190.385 203.666 182.147C200.865 179.4 198.55 176.333 196.703 173.038H201.964C202.604 173.038 203.164 172.478 203.164 171.838V139.118H208.284C208.924 139.118 209.404 138.558 209.484 137.918L210.364 130.158C210.364 129.518 209.884 129.038 209.164 129.038H203.164V120.415C203.249 120.329 203.332 120.242 203.417 120.156C211.733 111.841 222.874 107.918 234.379 107.918ZM234.379 127.918C220.459 127.918 211.179 137.198 211.179 151.118C211.179 164.958 220.619 174.238 234.779 174.238C240.939 174.238 247.099 172.558 251.339 169.758C251.899 169.438 252.059 169.118 251.899 168.558L248.459 158.638C248.299 158.078 247.819 157.758 247.259 157.998C243.659 159.678 239.099 160.638 235.02 160.638C228.3 160.638 228.299 155.598 228.299 155.598H253.979C254.699 155.598 255.099 155.278 255.179 154.638C255.419 153.438 255.499 152.238 255.499 151.038C255.499 136.478 247.659 127.918 234.379 127.918ZM234.219 141.358C237.419 141.358 239.579 143.678 239.579 147.198H228.219C228.219 143.678 230.619 141.359 234.219 141.358Z" fill="white"/>
<path d="M200.038 97.9314V97.9324C207.688 97.1746 213.612 100.685 216.943 104.016C219.265 106.338 221.441 109.639 222.496 113.714C222.948 114.078 223.392 114.464 223.824 114.876C227.689 118.556 229.818 123.354 230.269 128.205C218.661 129.861 211.176 138.618 211.176 151.119C211.176 160.69 215.692 168.079 223.161 171.727V171.839C223.161 183.524 213.647 193.039 201.961 193.039H187.881C176.598 193.039 167.341 184.169 166.716 173.039H167.424C168.024 173.039 168.553 172.547 168.617 171.958L168.624 171.839V145.039C169.664 143.039 172.384 141.678 175.424 141.678H177.504C178.144 141.678 178.624 141.198 178.624 140.558V130.159C178.624 129.519 178.144 129.039 177.504 129.039H175.424C171.184 129.039 167.263 130.879 164.863 133.839L163.664 130.319C163.424 129.679 163.024 129.119 162.384 129.119H161.031C161.316 123.62 163.68 118.695 167.339 115.098C168.525 110.506 171.13 107.014 173.588 104.78C176.923 101.749 181.078 99.8936 185.4 99.3533L185.958 99.2917L200.038 97.9314ZM187.881 119.199C187.242 119.279 186.683 119.757 186.682 120.316V129.039H182.121L182.017 129.045C181.494 129.1 181.001 129.564 181.001 130.239V137.999C181.001 138.599 181.494 139.058 182.017 139.113L182.121 139.119H186.682V171.839L186.688 171.958C186.751 172.547 187.281 173.039 187.881 173.039H201.961C202.601 173.039 203.161 172.479 203.161 171.839V139.119H208.281L208.399 139.112C208.98 139.048 209.406 138.519 209.481 137.919L210.361 130.159C210.361 129.559 209.939 129.1 209.293 129.045L209.161 129.039H203.161V118.959C203.161 118.399 202.601 117.759 201.961 117.839L187.881 119.199Z" fill="white"/>
<path d="M152.148 171.839C152.148 172.439 152.641 172.968 153.229 173.032L153.349 173.039H167.429L167.548 173.032C168.097 172.972 168.562 172.507 168.622 171.958L168.629 171.839V145.039C169.636 143.102 172.22 141.764 175.145 141.683L175.429 141.679H177.509L177.627 141.674C178.168 141.622 178.572 141.218 178.623 140.677L178.629 140.559V130.159C178.629 129.519 178.149 129.039 177.509 129.039H175.429C171.189 129.039 167.268 130.879 164.868 133.839L163.669 130.319C163.429 129.679 163.029 129.119 162.389 129.119H153.349L153.229 129.125C152.641 129.189 152.148 129.714 152.148 130.239V171.839ZM181.006 130.239V137.999C181.006 138.639 181.566 139.119 182.126 139.119H186.687V171.839L186.692 171.958C186.756 172.547 187.286 173.039 187.886 173.039H188.594C187.969 184.169 178.712 193.039 167.429 193.039H153.349C141.663 193.039 132.148 183.525 132.148 171.839V170.684C132.56 170.366 132.934 170.031 133.266 169.679L133.826 171.839C133.826 172.479 134.466 173.039 135.106 173.039H145.187C145.826 173.039 146.386 172.479 146.386 171.839V151.119C146.386 137.746 141.87 130.47 132.222 128.484C132.718 122.488 135.693 117.872 138.699 115.002C142.107 111.749 147.193 109.119 153.349 109.119H162.389C164.474 109.119 166.361 109.382 168.066 109.835C170.484 109.307 172.955 109.039 175.429 109.039H177.509C184.88 109.039 191.354 112.794 195.131 118.499L187.886 119.199C187.246 119.279 186.687 119.759 186.687 120.319V129.039H182.126C181.566 129.039 181.006 129.519 181.006 130.239Z" fill="white"/>
<path d="M146.381 151.118C146.381 135.198 139.981 127.918 126.142 127.918C119.742 127.918 113.341 129.599 108.781 132.479C108.301 132.878 108.141 133.438 108.381 133.998L112.941 143.598C113.261 144.158 113.742 144.478 114.142 144.238C116.782 142.718 120.621 141.678 123.741 141.678C127.421 141.678 129.901 143.918 129.901 147.358V150.718C128.301 148.158 124.141 146.479 119.501 146.479C110.461 146.479 104.381 151.679 104.301 159.519C104.221 168.318 110.301 174.238 119.501 174.238C125.341 174.238 130.621 172.478 133.261 169.678L133.821 171.838C133.821 172.478 134.462 173.038 135.102 173.038H145.182C145.821 173.038 146.381 172.478 146.381 171.838V151.118ZM125.501 156.638C127.181 156.638 128.541 157.278 129.901 158.638V160.398C128.541 161.758 127.181 162.398 125.501 162.398C123.501 162.398 122.142 161.278 122.142 159.519C122.142 157.759 123.501 156.638 125.501 156.638ZM104.415 126.763C104.337 126.806 104.259 126.849 104.182 126.894C104.259 126.849 104.337 126.807 104.415 126.763ZM152.144 171.838C152.144 172.478 152.704 173.038 153.344 173.038H166.347C165.722 184.168 156.464 193.038 145.182 193.038H135.102C133.826 193.038 132.596 192.924 131.416 192.716C127.226 193.818 123.085 194.238 119.501 194.238C110.569 194.238 101.467 191.295 94.4961 184.534C91.0335 181.176 88.4927 177.253 86.8125 173.038H95.9453C96.5853 173.038 97.1455 172.478 97.1455 171.838V139.118H102.266C102.906 139.118 103.386 138.558 103.466 137.918L104.346 130.158C104.346 129.518 103.866 129.038 103.146 129.038H97.1455V118.958C97.1455 118.398 96.5853 117.758 95.9453 117.838L95.0605 117.923C95.3586 117.643 95.665 117.374 95.9775 117.113L96.4893 116.701C97.0076 116.297 97.5458 115.919 98.1016 115.568C106.416 110.317 116.68 107.918 126.142 107.918C136.435 107.918 148.047 110.704 156.51 120.387C158.89 123.11 160.726 126.057 162.136 129.118H153.344C152.704 129.118 152.144 129.678 152.144 130.238V171.838Z" fill="white"/>
<path d="M80.6719 171.958C80.7357 172.547 81.2654 173.039 81.8652 173.039H95.9453C96.5853 173.039 97.1455 172.479 97.1455 171.839V139.119H102.266L102.384 139.112C102.925 139.052 103.333 138.587 103.446 138.038L103.466 137.919L110.629 138.73L112.941 143.598C113.261 144.158 113.742 144.479 114.142 144.239C116.603 142.822 120.106 141.822 123.098 141.693C122.788 143.249 122.259 144.917 121.495 146.584C120.845 146.515 120.178 146.479 119.501 146.479C110.461 146.479 104.381 151.679 104.301 159.519C104.228 167.503 109.227 173.116 117.025 174.089C115.898 184.721 106.871 193.039 95.9453 193.039H81.8652C70.7721 193.039 61.6372 184.465 60.7393 173.598C68.0593 171.877 72.6152 166.804 72.6152 159.919C72.6152 146.25 58.4483 146.101 55.5938 143.127C55.4467 142.525 55.3254 141.91 55.2305 141.282C55.5749 140.434 56.5564 139.952 57.8945 140.079C60.6145 140.079 63.9747 141.359 67.0947 143.359C67.4947 143.599 67.9747 143.519 68.1348 143.039L72.2148 133.598C72.3745 133.199 72.135 132.799 71.7354 132.479C67.4954 129.759 61.2547 127.919 56.0547 127.919C55.7365 127.919 55.4213 127.924 55.1094 127.933C55.6489 122.913 57.9297 118.434 61.3232 115.098C62.5094 110.506 65.1144 107.014 67.5723 104.78C70.9069 101.749 75.062 99.8936 79.3848 99.3533L79.9424 99.2917L94.0225 97.9314V97.9324C101.673 97.1746 107.596 100.685 110.928 104.016C113.249 106.338 115.426 109.639 116.48 113.714C116.932 114.078 117.376 114.464 117.809 114.876C121.61 118.496 123.733 123.198 124.229 127.969C118.484 128.266 112.887 129.886 108.781 132.479C108.301 132.879 108.141 133.439 108.381 133.999L110.629 138.73L103.466 137.919L104.346 130.159C104.346 129.559 103.924 129.1 103.277 129.045L103.146 129.039H97.1455V118.959C97.1455 118.399 96.5853 117.759 95.9453 117.839L81.8652 119.199C81.2264 119.279 80.6678 119.757 80.666 120.316V129.039H76.1055L76.001 129.045C75.4779 129.1 74.9854 129.564 74.9854 130.239V137.999C74.9854 138.599 75.4779 139.058 76.001 139.113L76.1055 139.119H80.666V171.839L80.6719 171.958Z" fill="white"/>
<path d="M56.0586 107.918C64.775 107.918 74.4262 110.66 81.8291 115.199L82.5381 115.645C83.1236 116.02 83.6892 116.426 84.2324 116.86C84.6329 117.181 85.3829 117.828 86.2725 118.772L81.8691 119.198C81.2293 119.278 80.6699 119.758 80.6699 120.318V129.038H76.1094C75.5494 129.038 74.9893 129.518 74.9893 130.238V137.998C74.9893 138.638 75.5494 139.118 76.1094 139.118H80.6699V171.838C80.6699 172.478 81.2293 173.038 81.8691 173.038H90.001C87.9237 177.965 84.66 182.334 80.3789 185.812C72.9296 191.863 63.7108 194.238 54.9385 194.238C46.2838 194.238 36.5725 191.532 29.1143 187.198L28.3994 186.773C27.2027 186.047 26.0858 185.197 25.0674 184.238L24.6367 183.82C23.2331 182.417 15.3021 174.142 19.3252 162.073L19.4766 161.637C19.6329 161.202 19.8041 160.772 19.9902 160.349L21.2852 157.401C19.1606 153.061 18.007 148.202 17.9062 142.987L17.8984 142.238L17.9121 141.257C18.1955 131.156 22.8494 122.214 30.5078 116.169C38.0226 110.238 47.2689 107.918 56.0586 107.918ZM44.9062 176.111C45.0811 176.192 45.1113 176.197 44.9473 176.128C44.9335 176.122 44.9198 176.117 44.9062 176.111ZM56.0586 127.918C45.1787 127.918 37.8984 133.678 37.8984 142.238C37.8986 157.278 55.4189 155.998 55.4189 160.078L55.4062 160.3C55.2772 161.394 54.1941 162.228 52.6191 162.078C49.8991 162.078 46.5389 160.638 43.4189 158.798C43.0189 158.558 42.5389 158.638 42.3789 159.118L38.2988 168.398C38.139 168.878 38.3794 169.278 38.7793 169.678L39.2041 169.931C43.662 172.512 49.9009 174.238 54.9385 174.238C65.5785 174.238 72.6191 168.478 72.6191 159.918C72.6191 144.718 55.0986 146.238 55.0986 141.998C55.0987 140.718 56.2187 139.918 57.8984 140.078C60.6184 140.078 63.9786 141.358 67.0986 143.358C67.4986 143.598 67.9787 143.518 68.1387 143.038L72.2188 133.598C72.3784 133.198 72.1389 132.798 71.7393 132.479C67.4993 129.759 61.2586 127.918 56.0586 127.918ZM65.5947 126.016C65.6102 126.022 65.6263 126.027 65.6416 126.033C65.4836 125.961 65.4545 125.957 65.5947 126.016Z" fill="white"/>
<path d="M278.729 47.6287C279.204 48.36 279.517 49.2457 279.637 50.2547C279.28 49.4121 278.976 48.5362 278.729 47.6287ZM317.028 1.93045V1.9324C324.679 1.17461 330.602 4.68418 333.934 8.01541C336.255 10.337 338.432 13.6384 339.486 17.7127C339.938 18.0767 340.382 18.4631 340.814 18.8748C345.198 23.0494 347.352 28.661 347.352 34.158C347.352 34.9109 347.308 35.6637 347.224 36.4119L346.344 44.1717C346.335 44.2472 346.327 44.3228 346.317 44.3982C345.832 48.285 343.848 53.1775 340.151 56.9861V75.8377C340.151 87.5234 330.637 97.0379 318.951 97.0379H304.871C293.607 97.0377 284.362 88.1979 283.709 77.0945C286.62 76.3234 289.286 75.1874 291.451 73.7576C292.011 73.4376 292.172 73.1174 292.012 72.5574L288.571 62.6375C288.411 62.0777 287.931 61.7579 287.371 61.9978C286.221 62.5347 284.972 62.9967 283.672 63.3787V59.5974H294.092C294.812 59.5973 295.211 59.2774 295.291 58.6375C295.531 57.4376 295.611 56.2378 295.611 55.0379C295.611 41.8479 289.177 33.5812 278.094 32.1424C278.592 27.0372 280.888 22.4797 284.329 19.0974C285.515 14.5046 288.12 11.0135 290.578 8.77908C293.913 5.74762 298.068 3.89268 302.391 3.35232L302.948 3.2908L317.028 1.93045ZM304.871 23.198C304.232 23.278 303.674 23.7565 303.672 24.3152V33.0379H299.111L299.007 33.0437C298.484 33.099 297.991 33.563 297.991 34.2381V41.9978C297.991 42.5979 298.484 43.0571 299.007 43.1121L299.111 43.1179H303.672V75.8377L303.678 75.9568C303.742 76.5456 304.271 77.0377 304.871 77.0379H318.951C319.591 77.0379 320.151 76.4777 320.151 75.8377V43.1179H325.271L325.39 43.1111C325.97 43.0471 326.397 42.5177 326.472 41.9178L327.352 34.158C327.352 33.5579 326.929 33.0987 326.283 33.0437L326.151 33.0379H320.151V22.9578C320.151 22.3978 319.591 21.7577 318.951 21.8377L304.871 23.198Z" fill="white"/>
<path d="M274.498 11.918C285.218 11.918 295.926 15.3874 303.97 23.6455C303.79 23.835 303.679 24.0688 303.679 24.3184V33.0381H299.118C298.558 33.0381 297.998 33.5183 297.998 34.2383V41.998C297.998 42.638 298.558 43.1181 299.118 43.1182H303.679V75.8379C303.679 76.4778 304.238 77.0379 304.878 77.0381H311.672C311.365 78.5623 310.861 80.1671 310.083 81.8096C307.688 86.8666 303.928 89.5747 301.999 90.7559C293.969 95.8949 284.008 98.2382 274.898 98.2383C263.376 98.2383 252.185 94.3849 243.785 86.1475C243.34 85.7113 242.91 85.2654 242.489 84.8135C245.22 81.5951 246.818 77.5686 246.818 72.958V34.2383C246.818 33.5183 246.338 33.0381 245.618 33.0381H237.139C237.029 33.0381 236.917 33.0523 236.805 33.0791C238.596 29.8629 240.833 26.8597 243.536 24.1562C251.852 15.8407 262.993 11.918 274.498 11.918ZM274.498 31.918C260.578 31.9181 251.298 41.1982 251.298 55.1182C251.298 68.9581 260.738 78.2383 274.898 78.2383C281.058 78.2382 287.218 76.5578 291.458 73.7578C292.018 73.4378 292.179 73.1176 292.019 72.5576L288.578 62.6377C288.418 62.0779 287.938 61.7581 287.378 61.998C283.778 63.6779 279.218 64.6376 275.139 64.6377C268.419 64.6377 268.418 59.5977 268.418 59.5977H294.099C294.818 59.5975 295.218 59.2776 295.298 58.6377C295.538 57.4378 295.618 56.238 295.618 55.0381C295.618 40.4781 287.778 31.918 274.498 31.918ZM274.338 45.3584C277.538 45.3584 279.698 47.6782 279.698 51.1982H268.338C268.338 47.6784 270.738 45.3586 274.338 45.3584Z" fill="white"/>
<path d="M246.815 34.2383C246.815 33.5632 246.393 33.0992 245.747 33.0439L245.615 33.0381H237.136C236.496 33.0381 235.775 33.5183 235.295 34.2383L233.855 36.4785C231.775 33.5985 226.895 31.918 220.735 31.918C208.495 31.918 201.295 40.3185 201.295 54.4785C201.295 67.1183 209.055 75.5186 220.735 75.5186C225.215 75.5185 229.055 73.8381 230.335 71.2783V73.5977C230.335 78.1577 227.295 80.7979 222.255 80.7979C216.895 80.7978 211.616 79.1181 208.176 76.3184C207.696 75.9984 207.216 76.2381 206.976 76.7979L202.896 86.7178C202.736 87.1177 202.895 87.6781 203.375 88.0781C207.295 91.2781 214.335 93.1181 222.255 93.1182C235.855 93.1182 246.815 85.038 246.815 72.958V34.2383ZM225.211 46.8887C229.209 47.0997 230.335 50.4785 230.335 50.4785V58.5576C230.335 58.5576 229.135 62.1581 224.815 62.1582L224.445 62.1494C220.794 61.9816 218.637 59.3092 218.502 54.9229L218.495 54.4785C218.495 49.6785 220.815 46.8779 224.815 46.8779L225.211 46.8887ZM266.776 32.9844C257.251 35.7948 251.295 43.967 251.295 55.1182C251.295 66.0439 257.179 74.1259 266.623 77.0459C264.306 101.424 241.342 113.118 222.255 113.118C212.341 113.118 199.822 110.995 190.728 103.571C190.675 103.529 190.623 103.486 190.571 103.442C185.402 99.1347 180.09 89.8808 184.326 79.29L184.398 79.1104L186.097 74.9785C185.645 74.1113 185.227 73.2304 184.842 72.3369C186.705 70.049 187.734 67.1883 187.734 63.918C187.734 57.7039 184.806 54.2841 181.344 52.123C181.41 50.4477 181.549 48.7631 181.771 47.0811C181.919 47.1721 182.067 47.2641 182.214 47.3584C182.614 47.5984 183.094 47.518 183.254 47.0381L187.334 37.5977C187.494 37.1979 187.254 36.7984 186.854 36.4785C186.227 36.0762 185.555 35.6937 184.851 35.333C186.389 31.6162 188.489 28.0687 191.265 24.8428C198.979 15.8773 209.752 11.918 220.735 11.918C224.69 11.918 228.835 12.356 232.871 13.4512C234.205 13.1863 235.627 13.0381 237.136 13.0381H245.615C250.52 13.0381 256.161 14.7603 260.627 19.2256C264.716 23.3151 266.504 28.3913 266.776 32.9844Z" fill="white"/>
<path d="M171.176 11.918C179.892 11.918 189.543 14.6602 196.946 19.1992L197.655 19.6445C198.241 20.0201 198.806 20.4258 199.35 20.8604C200.853 22.0631 207.292 27.8569 207.484 36.7695C203.48 40.633 201.297 46.6828 201.297 54.4785C201.297 61.1083 203.434 66.5701 207.149 70.2666C205.709 77.965 201.654 84.8096 195.496 89.8115C188.047 95.8626 178.828 98.2383 170.056 98.2383C161.401 98.2382 151.69 95.5321 144.231 91.1982L143.517 90.7734C142.32 90.0469 141.203 89.1973 140.185 88.2383L139.754 87.8203C138.35 86.4167 130.419 78.1424 134.442 66.0732L134.594 65.6367C134.75 65.2016 134.921 64.772 135.107 64.3486L136.402 61.4014C134.278 57.0608 133.124 52.2016 133.023 46.9873L133.016 46.2383L133.029 45.2568C133.053 44.4289 133.109 43.6092 133.19 42.7979H143.736C144.643 40.8246 145.523 38.5044 146.376 35.8379C147.229 33.1179 148.03 30.4244 148.776 27.7578C149.523 25.0913 150.136 22.7978 150.616 20.8779L150.056 19.998H145.848C153.322 14.1945 162.472 11.918 171.176 11.918ZM160.023 80.1113C160.198 80.1922 160.229 80.1967 160.064 80.1279C160.051 80.1222 160.037 80.1169 160.023 80.1113ZM171.176 31.918C160.296 31.9181 153.016 37.6783 153.016 46.2383C153.016 61.2781 170.536 59.9981 170.536 64.0781L170.523 64.2998C170.394 65.3935 169.311 66.228 167.736 66.0781C165.016 66.0781 161.656 64.6379 158.536 62.7979C158.136 62.5579 157.656 62.6382 157.496 63.1182L153.416 72.3984C153.256 72.8783 153.497 73.2778 153.896 73.6777C158.376 76.3976 164.856 78.2382 170.056 78.2383C180.696 78.2383 187.736 72.478 187.736 63.918C187.736 48.7181 170.216 50.238 170.216 45.998C170.216 44.7182 171.336 43.9183 173.016 44.0781C175.736 44.0781 179.096 45.3584 182.216 47.3584C182.616 47.5984 183.096 47.518 183.256 47.0381L187.336 37.5977C187.496 37.1979 187.256 36.7984 186.856 36.4785C182.616 33.7585 176.376 31.918 171.176 31.918ZM180.712 30.0156C180.727 30.0221 180.743 30.0268 180.759 30.0332C180.601 29.9607 180.572 29.9566 180.712 30.0156Z" fill="white"/>
<path d="M150.055 0C156.679 0 162.859 3.27873 166.576 8.72852L166.929 9.2627L167.488 10.1426L167.759 10.5791C170.489 15.1232 171.307 20.5738 170.018 25.7305C169.55 27.6002 168.986 29.7152 168.337 32.0576C159.048 32.9766 153.015 38.4481 153.015 46.2402C153.015 51.4698 155.134 54.7252 157.897 56.9199C154.209 60.6178 149.145 62.7997 143.735 62.7998H132.855C129.529 62.7998 126.302 61.9702 123.438 60.4414V43.1201H128.558C129.198 43.1201 129.678 42.5599 129.758 41.9199L130.638 34.1602C130.638 33.5202 130.158 33.04 129.438 33.04H123.438V22.96C123.437 22.4 122.877 21.7598 122.237 21.8398L116.18 22.4248C116.201 22.2804 116.223 22.1361 116.247 21.9922C116.51 20.4168 116.685 19.0965 116.794 18.0098C117.816 7.78581 126.42 0 136.695 0H150.055ZM136.695 20C136.535 21.6 136.295 23.3603 135.975 25.2803C135.708 27.1468 135.388 29.0936 135.015 31.1201C134.695 33.0934 134.348 35.0935 133.975 37.1201C133.601 39.0933 133.229 40.9866 132.855 42.7998H143.735C144.642 40.8265 145.522 38.5064 146.375 35.8398C147.228 33.1199 148.029 30.4264 148.775 27.7598C149.522 25.0932 150.135 22.7998 150.615 20.8799L150.055 20H136.695Z" fill="white"/>
<path d="M82.0107 47.6287C82.4849 48.36 82.7986 49.2457 82.918 50.2547C82.5614 49.4121 82.2568 48.5362 82.0107 47.6287ZM132.954 42.2801C132.952 42.2921 132.95 42.3042 132.947 42.3162L129.753 41.9178L132.954 42.2801ZM106.959 75.9568C107.023 76.5456 107.552 77.0377 108.152 77.0379H122.232C122.872 77.0379 123.433 76.4777 123.433 75.8377V43.1179H128.553L128.671 43.1111C129.251 43.0471 129.678 42.5177 129.753 41.9178L132.947 42.3162C132.914 42.4772 132.883 42.6379 132.851 42.7976H143.73C144.637 40.8244 145.517 38.5042 146.37 35.8377C147.223 33.1177 148.024 30.4242 148.771 27.7576C148.902 27.2868 149.028 26.8271 149.151 26.3797C150.076 28.7222 150.566 31.1884 150.626 33.6424L150.633 34.158L150.625 34.7224C150.609 35.2868 150.569 35.8507 150.505 36.4119L149.625 44.1717C149.616 44.2472 149.608 44.3228 149.599 44.3982C149.113 48.285 147.129 53.1775 143.433 56.9861V75.8377C143.433 87.5234 133.918 97.0379 122.232 97.0379H108.152C96.8886 97.0377 87.6431 88.1979 86.9902 77.0945C89.9011 76.3234 92.5673 75.1874 94.7324 73.7576C95.2924 73.4376 95.453 73.1174 95.293 72.5574L91.8525 62.6375C91.6924 62.0777 91.2122 61.7579 90.6523 61.9978C89.5018 62.5347 88.2528 62.9967 86.9531 63.3787V59.5974H97.373C98.0928 59.5973 98.4923 59.2774 98.5723 58.6375C98.8122 57.4376 98.8926 56.2378 98.8926 55.0379C98.8926 41.8479 92.4587 33.5812 81.375 32.1424C81.8728 27.0372 84.1696 22.4797 87.6104 19.0974C88.7965 14.5046 91.4015 11.0135 93.8594 8.77908C97.194 5.74762 101.349 3.89268 105.672 3.35232L106.229 3.2908L120.31 1.93045V1.9324C127.96 1.17461 133.884 4.68418 137.215 8.01541C139.536 10.337 141.713 13.6384 142.768 17.7127C143.22 18.0767 143.663 18.4631 144.096 18.8748C144.477 19.2381 144.841 19.6137 145.188 19.9978H136.69C136.53 21.5978 136.29 23.3581 135.97 25.2781C135.703 27.1447 135.383 29.0914 135.01 31.1179C134.69 33.0912 134.343 35.0913 133.97 37.1179C133.632 38.9043 133.292 40.6248 132.954 42.2801L129.753 41.9178L130.633 34.158C130.633 33.5579 130.211 33.0987 129.564 33.0437L129.433 33.0379H123.433V22.9578C123.433 22.3978 122.872 21.7577 122.232 21.8377L108.152 23.198C107.513 23.278 106.955 23.7565 106.953 24.3152V33.0379H102.393L102.288 33.0437C101.765 33.099 101.272 33.563 101.272 34.2381V41.9978C101.272 42.5979 101.765 43.0571 102.288 43.1121L102.393 43.1179H106.953V75.8377L106.959 75.9568Z" fill="white"/>
<path d="M77.7734 11.918C88.4934 11.918 99.2014 15.3874 107.245 23.6455C107.065 23.835 106.954 24.0688 106.954 24.3184V33.0381H102.394C101.834 33.0381 101.273 33.5183 101.273 34.2383V41.998C101.273 42.638 101.834 43.1181 102.394 43.1182H106.954V75.8379C106.954 76.4778 107.513 77.0379 108.153 77.0381H114.947C114.64 78.5623 114.136 80.1671 113.358 81.8096C110.963 86.8666 107.204 89.5747 105.274 90.7559C97.2446 95.8949 87.2834 98.2382 78.1738 98.2383C66.6516 98.2383 55.4607 94.3849 47.0605 86.1475C44.2593 83.4005 41.9444 80.333 40.0977 77.0381H50.0742C50.7142 77.0381 51.2745 76.478 51.3545 75.918L52.4746 63.7578C52.4745 63.1181 51.9944 62.6379 51.4346 62.6377H36.5547V41.416C38.4943 35.0113 41.8807 29.0871 46.8115 24.1562C55.1271 15.8407 66.2686 11.918 77.7734 11.918ZM77.7734 31.918C63.8535 31.9181 54.5732 41.1982 54.5732 55.1182C54.5733 68.9581 64.0139 78.2383 78.1738 78.2383C84.3337 78.2382 90.4934 76.5578 94.7334 73.7578C95.2934 73.4378 95.4539 73.1176 95.2939 72.5576L91.8535 62.6377C91.6934 62.0779 91.2132 61.7581 90.6533 61.998C87.0535 63.6779 82.4939 64.6376 78.4141 64.6377C71.6941 64.6377 71.6934 59.5977 71.6934 59.5977H97.374C98.0938 59.5975 98.4933 59.2776 98.5732 58.6377C98.8132 57.4378 98.8936 56.238 98.8936 55.0381C98.8936 40.4781 91.0534 31.918 77.7734 31.918ZM77.6133 45.3584C80.8133 45.3584 82.9736 47.6782 82.9736 51.1982H71.6133C71.6133 47.6784 74.0135 45.3586 77.6133 45.3584Z" fill="white"/>
<path d="M72.0537 59.5996C72.2083 60.3543 72.322 61.1171 72.3926 61.8848C71.6999 60.7078 71.6992 59.5996 71.6992 59.5996H72.0537ZM56.5605 43.248C56.7862 43.3033 57.0096 43.3634 57.2314 43.4258C55.5131 46.7588 54.5791 50.7061 54.5791 55.1201C54.5791 66.575 61.0464 74.9053 71.3037 77.4365L71.2754 77.7539C71.2448 78.086 71.2063 78.4178 71.1592 78.748C70.3643 84.3119 67.5166 88.6281 64.415 91.46C61.2219 94.3753 56.2885 97.04 50.0801 97.04H21.2002C15.0445 97.04 9.95833 94.4098 6.55078 91.1572C3.25757 88.0137 0 82.7737 0 75.9199V23.04C0 11.3544 9.51444 1.83984 21.2002 1.83984V21.8398L21.0811 21.8467C20.4922 21.9106 20 22.4401 20 23.04V75.9199C20 76.4449 20.4923 76.9696 21.0811 77.0332L21.2002 77.04H50.0801C50.7201 77.04 51.2804 76.4799 51.3604 75.9199L52.4805 63.7598C52.4803 63.1598 52.0581 62.7005 51.5439 62.6455L51.4404 62.6396H36.5605V23.04C36.5605 22.4402 36.0682 21.9108 35.4795 21.8467L35.3604 21.8398V1.83984C47.046 1.83997 56.5605 11.3545 56.5605 23.04V43.248ZM35.3604 1.83984V21.8398H21.2002V1.83984H35.3604Z" fill="white"/>
</svg>
