<svg width="619" height="348" viewBox="0 0 619 348" fill="none" xmlns="http://www.w3.org/2000/svg">
<rect x="71" y="109" width="473" height="139" fill="white"/>
<path d="M576.98 57.0005H590.48C592.1 57.0005 593.18 58.0805 593.18 59.5205L591.2 76.9805C591.02 78.4205 589.94 79.6805 588.5 79.6805H576.98V153.3C576.98 154.74 575.72 156 574.28 156H542.6C541.16 156 539.9 154.74 539.9 153.3V79.6805H529.64C528.38 79.6805 527.12 78.6005 527.12 77.1605V59.7005C527.12 58.0805 528.38 57.0005 529.64 57.0005H539.9V37.3805C539.9 36.1205 541.16 35.0405 542.6 34.8605L574.28 31.8005C575.72 31.6205 576.98 33.0605 576.98 34.3205V57.0005Z" fill="#677EFF"/>
<path d="M505.925 123.6L513.665 145.92C514.025 147.18 513.665 147.9 512.405 148.62C502.865 154.92 489.005 158.7 475.145 158.7C443.285 158.7 422.045 137.82 422.045 106.68C422.045 75.3605 442.925 54.4805 474.245 54.4805C504.125 54.4805 521.765 73.7405 521.765 106.5C521.765 109.2 521.585 111.9 521.045 114.6C520.865 116.04 519.965 116.76 518.345 116.76H460.565C460.565 116.76 460.565 128.1 475.685 128.1C484.865 128.1 495.125 125.94 503.225 122.16C504.485 121.62 505.565 122.34 505.925 123.6ZM460.385 97.8605H485.945C485.945 89.9405 481.085 84.7205 473.885 84.7205C465.785 84.7205 460.385 89.9405 460.385 97.8605Z" fill="#677EFF"/>
<path d="M328.485 25.5H360.165C361.605 25.5 362.865 26.76 362.865 28.02V87.78L379.605 59.16C380.325 57.9 382.125 57 383.745 57H419.745C421.185 57 421.725 57.9 421.005 59.16L394.365 103.26L426.945 153.84C427.845 155.1 427.125 156 425.685 156H387.345C386.085 156 384.285 155.1 383.565 153.84L362.865 118.2V153.3C362.865 154.74 361.605 156 360.165 156H328.485C327.045 156 325.785 154.74 325.785 153.3V28.02C325.785 26.76 327.045 25.5 328.485 25.5Z" fill="#677EFF"/>
<path d="M305.048 123.6L315.488 145.56C316.028 146.46 315.488 147.72 314.408 148.62C304.688 154.74 291.368 158.88 281.108 158.88C248.528 158.88 226.928 138 226.928 106.68C226.928 75.3605 248.528 54.4805 281.108 54.4805C291.368 54.4805 304.688 58.6205 314.408 64.7405C315.488 65.6405 316.028 66.9005 315.488 67.8005L305.048 89.7605C304.328 91.2005 303.068 91.7405 301.808 90.8405C297.308 87.6005 290.468 85.4405 284.528 85.4405C271.388 85.4405 262.748 93.9005 262.748 106.68C262.748 119.46 271.388 127.92 284.528 127.92C290.468 127.92 297.308 125.76 301.808 122.52C303.068 121.62 304.328 122.16 305.048 123.6Z" fill="#677EFF"/>
<path d="M141.603 89.7605L131.343 68.1605C130.803 66.9005 131.163 65.6405 132.243 64.7405C142.503 58.2605 156.903 54.4805 171.303 54.4805C202.443 54.4805 216.843 70.8605 216.843 106.68V153.3C216.843 154.74 215.583 156 214.143 156H191.463C190.023 156 188.583 154.74 188.583 153.3L187.323 148.44C181.383 154.74 169.503 158.7 156.363 158.7C135.663 158.7 121.983 145.38 122.163 125.58C122.343 107.94 136.023 96.2405 156.363 96.2405C166.803 96.2405 176.163 100.02 179.763 105.78V98.2205C179.763 90.4805 174.183 85.4405 165.903 85.4405C158.883 85.4405 150.243 87.7805 144.303 91.2005C143.403 91.7405 142.323 91.0205 141.603 89.7605ZM179.763 127.56V123.6C176.703 120.54 173.643 119.1 169.863 119.1C165.363 119.1 162.303 121.62 162.303 125.58C162.303 129.54 165.363 132.06 169.863 132.06C173.643 132.06 176.703 130.62 179.763 127.56Z" fill="#677EFF"/>
<path d="M28.0703 31.8008H70.5503C102.05 31.8008 120.95 48.9008 120.95 74.6408C120.95 100.381 102.05 117.481 70.5503 117.481H63.1703V153.481C63.1703 154.741 61.9103 156.001 60.2903 156.001H28.0703C26.8103 156.001 25.5503 154.741 25.5503 153.481V34.5008C25.5503 33.0608 26.8103 31.8008 28.0703 31.8008ZM62.8103 85.2608H72.1703C78.4703 85.2608 82.7903 80.9408 82.7903 74.6408C82.7903 68.3408 78.4703 64.0208 72.1703 64.0208H62.8103V85.2608Z" fill="#677EFF"/>
<path fill-rule="evenodd" clip-rule="evenodd" d="M542.6 34.8594C541.16 35.0394 539.9 36.1194 539.9 37.3794V56.9994H529.64C528.38 56.9994 527.12 58.0794 527.12 59.6994V77.1594C527.12 78.5994 528.38 79.6794 529.64 79.6794H539.9V153.299C539.9 154.739 541.16 155.999 542.6 155.999H574.28C575.72 155.999 576.98 154.739 576.98 153.299V79.6794H588.5C589.304 79.6794 589.995 79.2874 590.48 78.6907C590.865 78.2177 591.121 77.6162 591.2 76.9794L593.18 59.5194C593.18 58.0794 592.1 56.9994 590.48 56.9994H576.98V34.3194C576.98 33.0594 575.72 31.6194 574.28 31.7994L542.6 34.8594ZM601.98 34.4458C604.698 35.6629 607.315 37.3642 609.679 39.616C615.368 45.0342 618.18 52.3282 618.18 59.5194C618.18 60.4607 618.127 61.4012 618.021 62.3364L616.041 79.7964C616.03 79.8911 616.019 79.9858 616.007 80.0804C615.132 87.0864 610.652 96.3444 601.98 101.264V153.299C601.98 168.547 589.527 180.999 574.28 180.999H542.6C527.353 180.999 514.9 168.547 514.9 153.299V116.759H518.345C519.965 116.759 520.865 116.039 521.045 114.599C521.585 111.899 521.765 109.199 521.765 106.499C521.765 105.478 521.748 104.471 521.714 103.476C521.403 94.3908 519.675 86.4143 516.656 79.6794C516.27 78.8191 515.864 77.979 515.436 77.1594C512.172 70.9027 507.695 65.843 502.12 62.1036V59.6994C502.12 49.7924 507.256 41.1861 514.921 36.2957C515.263 27.5427 519.697 21.0307 523.893 17.2159C528.282 13.2265 533.776 10.7679 539.5 10.0525C539.732 10.0235 539.964 9.99772 540.197 9.97524L571.699 6.93243C581.669 5.87269 589.44 10.4333 593.848 14.8418C598.13 19.1243 601.98 25.8852 601.98 34.3194V34.4458Z" fill="white"/>
<path fill-rule="evenodd" clip-rule="evenodd" d="M413.512 156C415.253 158.167 417.13 160.243 419.144 162.218C433.774 176.564 453.663 183.7 475.145 183.7C492.703 183.7 511.344 179.091 525.655 169.827C528.293 168.212 533.156 164.678 536.236 158.175C540.018 150.191 538.791 142.86 537.703 139.053C537.576 138.608 537.437 138.167 537.285 137.73L536.431 135.266C537.751 134.151 538.901 132.967 539.9 131.744V79.6805H529.64C528.38 79.6805 527.12 78.6005 527.12 77.1605V59.7005C527.12 58.0805 528.38 57.0005 529.64 57.0005H532.287C530.862 55.0433 529.322 53.1532 527.662 51.3377C513.882 36.263 494.751 29.4805 474.245 29.4805C452.904 29.4805 433.177 36.7033 418.723 51.1578C416.86 53.0204 415.117 54.9706 413.495 57.0005H419.745C421.185 57.0005 421.725 57.9005 421.005 59.1605L397.436 98.1755C397.176 100.975 397.045 103.813 397.045 106.68C397.045 106.929 397.046 107.178 397.048 107.427L426.945 153.84C427.845 155.1 427.125 156 425.685 156H413.512ZM521.719 103.636C520.714 72.6208 503.244 54.4805 474.245 54.4805C442.925 54.4805 422.045 75.3605 422.045 106.68C422.045 137.82 443.285 158.7 475.145 158.7C489.005 158.7 502.865 154.92 512.405 148.62C513.665 147.9 514.025 147.18 513.665 145.92L505.925 123.6C505.565 122.34 504.485 121.62 503.225 122.16C495.125 125.94 484.865 128.1 475.685 128.1C468.508 128.1 464.738 125.545 462.757 122.86C460.565 119.89 460.565 116.76 460.565 116.76H518.345C519.965 116.76 520.865 116.04 521.045 114.6C521.585 111.9 521.765 109.2 521.765 106.5C521.765 105.534 521.75 104.579 521.719 103.636ZM460.385 97.8605H485.945C485.945 95.5842 485.544 93.5309 484.801 91.7605C482.958 87.3711 479.016 84.7205 473.885 84.7205C468.113 84.7205 463.712 87.3711 461.659 91.7605C461.138 92.8758 460.768 94.1033 460.565 95.4281C460.446 96.2064 460.385 97.0182 460.385 97.8605Z" fill="white"/>
<path fill-rule="evenodd" clip-rule="evenodd" d="M328.485 156C327.045 156 325.785 154.74 325.785 153.3V28.02C325.785 26.76 327.045 25.5 328.485 25.5H360.165C361.605 25.5 362.865 26.76 362.865 28.02V87.78L379.605 59.16C380.325 57.9 382.125 57 383.745 57H419.745C421.185 57 421.725 57.9 421.005 59.16L394.365 103.26L426.945 153.84C427.845 155.1 427.125 156 425.685 156H387.345C386.085 156 384.285 155.1 383.565 153.84L362.865 118.2V153.3C362.865 154.74 361.605 156 360.165 156H328.485ZM373.595 177.509C369.612 179.732 365.031 181 360.165 181H328.485C313.839 181 301.771 169.51 300.842 155.091C302.389 154.543 303.92 153.945 305.421 153.3C308.605 151.932 311.651 150.356 314.408 148.62C315.488 147.72 316.028 146.46 315.488 145.56L305.048 123.6C304.328 122.16 303.068 121.62 301.808 122.52C301.479 122.757 301.137 122.988 300.785 123.213V90.147C301.137 90.3719 301.479 90.6031 301.808 90.84C303.068 91.74 304.328 91.2 305.048 89.76L315.488 67.8C316.028 66.9 315.488 65.64 314.408 64.74C310.336 62.1759 305.631 59.9593 300.785 58.2491V28.02C300.785 19.1727 304.996 12.343 309.333 8.2036C313.812 3.92776 320.47 0.5 328.485 0.5H360.165C368.179 0.5 374.837 3.92776 379.317 8.2036C383.653 12.343 387.865 19.1727 387.865 28.02V32H419.745C424.554 32 436.034 33.544 442.733 44.932C446.229 50.8757 446.755 56.6524 446.112 61.4348C442.75 63.3557 439.69 65.6485 436.965 68.2802C436.854 68.3869 436.744 68.4942 436.635 68.602C428.593 76.5271 423.533 87.4509 422.326 100.502C422.166 102.224 422.074 103.984 422.051 105.778C422.047 106.078 422.045 106.378 422.045 106.68C422.045 123.091 427.944 136.652 438.188 145.809C438.359 145.962 438.531 146.114 438.705 146.265C442.666 149.7 447.254 152.491 452.385 154.552C452.492 159.008 451.424 163.963 448.181 168.974C441.259 179.672 430.204 181 425.685 181H387.345C381.67 181 376.916 179.271 373.595 177.509Z" fill="white"/>
<path fill-rule="evenodd" clip-rule="evenodd" d="M216.787 153.823C219.078 156.899 221.632 159.806 224.446 162.521C239.3 176.845 259.422 183.88 281.108 183.88C296.707 183.88 314.584 178.052 327.728 169.776C328.665 169.186 329.562 168.535 330.413 167.826C333.532 165.226 336.884 161.332 338.914 156H328.485C327.045 156 325.785 154.74 325.785 153.3V109.591C325.165 108.64 324.446 107.658 323.618 106.68C324.446 105.703 325.165 104.721 325.785 103.77V42.3989C312.856 34.7572 295.951 29.4805 281.108 29.4805C259.422 29.4805 239.3 36.5157 224.446 50.8401C218.049 57.0092 213.001 64.1748 209.32 72.0492C214.39 80.4252 216.842 91.8972 216.842 106.68V153.3C216.842 153.478 216.823 153.653 216.787 153.823ZM315.488 67.8005C316.028 66.9005 315.488 65.6405 314.408 64.7405C309.578 61.6995 303.86 59.1473 298.069 57.3491C296.516 56.8669 294.959 56.4389 293.411 56.0702C293.411 56.0702 293.411 56.0702 293.411 56.0702C289.116 55.0469 284.903 54.4805 281.108 54.4805C248.528 54.4805 226.928 75.3605 226.928 106.68C226.928 138 248.528 158.88 281.108 158.88C284.903 158.88 289.116 158.314 293.411 157.291C293.411 157.291 293.411 157.291 293.411 157.291C294.958 156.922 296.517 156.494 298.069 156.012C303.86 154.214 309.578 151.661 314.408 148.62C315.488 147.72 316.028 146.46 315.488 145.56L305.048 123.6C304.328 122.16 303.068 121.62 301.808 122.52C297.308 125.76 290.468 127.92 284.528 127.92C271.388 127.92 262.748 119.46 262.748 106.68C262.748 93.9005 271.388 85.4405 284.528 85.4405C290.468 85.4405 297.308 87.6005 301.808 90.8405C303.068 91.7405 304.328 91.2005 305.048 89.7605L315.488 67.8005Z" fill="white"/>
<path fill-rule="evenodd" clip-rule="evenodd" d="M99.0356 111.402C97.8451 115.859 97.2127 120.528 97.1638 125.325L97.1635 125.353C97.0189 141.266 102.566 156.395 114.027 167.511C125.4 178.543 140.598 183.7 156.362 183.7C164.726 183.7 173.965 182.491 182.686 179.571C185.375 180.472 188.319 181 191.462 181H214.142C229.39 181 241.842 168.548 241.842 153.3V144.566C232.344 135.429 226.928 122.364 226.928 106.68C226.928 93.6824 230.648 82.4824 237.33 73.8268C234.632 65.3797 230.54 57.5222 224.574 50.6958C210.665 34.7822 191.089 29.4805 171.302 29.4805C153.075 29.4805 133.845 34.1595 118.893 43.6032C117.966 44.1883 117.08 44.8336 116.238 45.5349C114.978 46.5849 113.805 47.7519 112.738 49.0178C117.728 55.4529 120.553 63.4586 120.911 72.631C120.918 72.7895 120.923 72.9483 120.928 73.1075C120.943 73.615 120.95 74.126 120.95 74.6405C120.95 76.9936 120.792 79.2745 120.481 81.4768C119.8 86.2961 118.386 90.7386 116.289 94.7366C112.581 101.807 106.737 107.487 99.0356 111.402ZM126.575 110.156C123.777 114.498 122.222 119.71 122.162 125.58C121.982 145.38 135.662 158.7 156.362 158.7C158.98 158.7 161.548 158.543 164.028 158.242C164.031 158.242 164.034 158.241 164.037 158.241C166.316 157.963 168.521 157.564 170.625 157.053C174.381 156.14 177.812 154.871 180.754 153.3C183.368 151.905 185.596 150.271 187.322 148.44L188.582 153.3C188.582 154.74 190.022 156 191.462 156H214.142C215.582 156 216.842 154.74 216.842 153.3V106.68C216.842 70.8605 202.442 54.4805 171.302 54.4805C156.902 54.4805 142.502 58.2605 132.242 64.7405C131.162 65.6405 130.802 66.9005 131.342 68.1605L131.96 69.4596L141.602 89.7605C142.322 91.0205 143.402 91.7405 144.302 91.2005C147.707 89.2404 151.998 87.6352 156.362 86.6218C159.614 85.8669 162.906 85.4405 165.902 85.4405C173.096 85.4405 178.252 89.245 179.481 95.3193C179.666 96.2364 179.762 97.2052 179.762 98.2205V105.78C177.852 102.723 174.319 100.224 169.862 98.5515C169.558 98.4373 169.249 98.3269 168.937 98.2205C167.963 97.889 166.949 97.5957 165.902 97.3434C163.326 96.7219 160.55 96.3481 157.676 96.2605C157.24 96.2472 156.802 96.2405 156.362 96.2405C153.347 96.2405 150.478 96.4976 147.778 96.9931C147.736 97.0008 147.693 97.0087 147.651 97.0165C138.259 98.7694 130.919 103.414 126.575 110.156ZM167.674 131.842C168.355 131.986 169.088 132.06 169.862 132.06C169.892 132.06 169.921 132.06 169.95 132.06C170.44 132.057 170.917 132.03 171.385 131.978C173.027 131.795 174.54 131.307 175.992 130.496C177.281 129.776 178.522 128.801 179.762 127.56V123.6C177.124 120.962 174.485 119.528 171.385 119.183C170.89 119.128 170.383 119.1 169.862 119.1C166.167 119.1 163.443 120.8 162.587 123.6C162.559 123.691 162.533 123.783 162.51 123.876C162.373 124.408 162.302 124.978 162.302 125.58C162.302 126.289 162.4 126.951 162.587 127.56C163.263 129.774 165.107 131.299 167.674 131.842ZM131.915 69.4854C131.756 69.5757 131.598 69.6683 131.44 69.7631C131.569 69.6859 131.698 69.6098 131.828 69.5349C131.857 69.5184 131.886 69.5019 131.915 69.4854Z" fill="white"/>
<path fill-rule="evenodd" clip-rule="evenodd" d="M28.0703 6.80078H70.5503C90.6573 6.80078 109.603 12.2791 123.917 24.6599C134.552 33.8584 141.337 45.773 144.272 59.0063C139.878 60.5611 135.81 62.4878 132.243 64.7408C131.163 65.6408 130.803 66.9008 131.343 68.1608L141.603 89.7608C142.251 90.896 143.192 91.5928 144.03 91.3249C143.444 93.7825 142.724 96.1928 141.869 98.5468C129.781 102.78 122.295 112.563 122.163 125.581C122.161 125.75 122.16 125.919 122.161 126.088C112.458 133.903 100.794 138.728 88.1703 140.976V153.481C88.1703 170.64 73.5283 181.001 60.2903 181.001H28.0703C19.3095 181.001 12.6413 176.872 8.66015 172.891C4.679 168.91 0.550323 162.242 0.550323 153.481V34.5008C0.550323 26.4861 3.97809 19.8284 8.25391 15.3489C12.3933 11.0124 19.223 6.80078 28.0703 6.80078ZM63.1703 153.481C63.1703 154.741 61.9103 156.001 60.2903 156.001H28.0703C26.8103 156.001 25.5503 154.741 25.5503 153.481V34.5008C25.5503 33.0608 26.8103 31.8008 28.0703 31.8008H70.5503C102.05 31.8008 120.95 48.9008 120.95 74.6408C120.95 100.381 102.05 117.481 70.5503 117.481H63.1703V153.481ZM62.8103 64.0208V85.2608H72.1703C78.4703 85.2608 82.7903 80.9408 82.7903 74.6408C82.7903 68.3408 78.4703 64.0208 72.1703 64.0208H62.8103Z" fill="white"/>
<path d="M521.347 287.6L531.787 309.56C532.327 310.46 531.787 311.72 530.707 312.62C520.987 318.74 507.667 322.88 497.407 322.88C464.827 322.88 443.227 302 443.227 270.68C443.227 239.36 464.827 218.48 497.407 218.48C507.667 218.48 520.987 222.62 530.707 228.74C531.787 229.64 532.327 230.9 531.787 231.8L521.347 253.76C520.627 255.2 519.367 255.74 518.107 254.84C513.607 251.6 506.767 249.44 500.827 249.44C487.687 249.44 479.047 257.9 479.047 270.68C479.047 283.46 487.687 291.92 500.827 291.92C506.767 291.92 513.607 289.76 518.107 286.52C519.367 285.62 520.627 286.16 521.347 287.6Z" fill="#677EFF"/>
<path d="M414.378 181.4C426.258 181.4 434.178 188.78 434.178 199.94C434.178 210.56 426.258 217.76 414.378 217.76C402.498 217.76 394.578 210.56 394.578 199.94C394.578 188.78 402.498 181.4 414.378 181.4ZM398.718 221H430.398C431.838 221 433.098 222.26 433.098 223.52V317.3C433.098 318.74 431.838 320 430.398 320H398.718C397.278 320 396.018 318.74 396.018 317.3V223.52C396.018 222.26 397.278 221 398.718 221Z" fill="#677EFF"/>
<path d="M314.694 222.8L317.034 228.56C322.794 222.26 335.034 218.48 346.014 218.48C370.494 218.48 383.814 229.82 383.814 257.9V317.3C383.814 318.74 382.554 320 381.114 320H349.434C347.994 320 346.734 318.74 346.914 317.3V263.48C346.914 256.28 343.674 252.14 338.094 252.14C327.834 252.14 326.214 262.22 326.214 262.22V317.3C326.214 318.74 324.954 320 323.514 320H291.834C290.394 320 289.134 318.74 289.134 317.3V223.52C289.134 221.9 290.034 221 291.654 221H311.814C313.074 221 314.154 221.54 314.694 222.8Z" fill="#677EFF"/>
<path d="M200.929 253.76L190.669 232.16C190.129 230.9 190.489 229.64 191.569 228.74C201.829 222.26 216.229 218.48 230.629 218.48C261.769 218.48 276.169 234.86 276.169 270.68V317.3C276.169 318.74 274.909 320 273.469 320H250.789C249.349 320 247.909 318.74 247.909 317.3L246.649 312.44C240.709 318.74 228.829 322.7 215.689 322.7C194.989 322.7 181.309 309.38 181.489 289.58C181.669 271.94 195.349 260.24 215.689 260.24C226.129 260.24 235.489 264.02 239.089 269.78V262.22C239.089 254.48 233.509 249.44 225.229 249.44C218.209 249.44 209.569 251.78 203.629 255.2C202.729 255.74 201.649 255.02 200.929 253.76ZM239.089 291.56V287.6C236.029 284.54 232.969 283.1 229.189 283.1C224.689 283.1 221.629 285.62 221.629 289.58C221.629 293.54 224.689 296.06 229.189 296.06C232.969 296.06 236.029 294.62 239.089 291.56Z" fill="#677EFF"/>
<path d="M87.3965 195.801H129.876C161.376 195.801 180.276 212.901 180.276 238.641C180.276 264.381 161.376 281.481 129.876 281.481H122.496V317.481C122.496 318.741 121.236 320.001 119.616 320.001H87.3965C86.1365 320.001 84.8765 318.741 84.8765 317.481V198.501C84.8765 197.061 86.1365 195.801 87.3965 195.801ZM122.136 249.261H131.496C137.796 249.261 142.116 244.941 142.116 238.641C142.116 232.341 137.796 228.021 131.496 228.021H122.136V249.261Z" fill="#677EFF"/>
<path fill-rule="evenodd" clip-rule="evenodd" d="M433.052 317.777C435.351 320.87 437.916 323.793 440.745 326.521C455.599 340.845 475.72 347.88 497.407 347.88C513.006 347.88 530.883 342.052 544.027 333.776C544.964 333.186 545.861 332.535 546.712 331.826C549.857 329.205 553.238 325.268 555.263 319.869C557.212 314.671 558.316 306.504 554.12 298.311L543.925 276.867C543.854 276.717 543.782 276.568 543.708 276.42C542.842 274.689 541.606 272.674 539.917 270.68C541.606 268.687 542.842 266.672 543.708 264.941C543.782 264.793 543.854 264.644 543.925 264.494L554.12 243.049C558.316 234.856 557.212 226.689 555.263 221.492C553.238 216.093 549.857 212.156 546.712 209.535C545.861 208.826 544.964 208.175 544.027 207.585C530.883 199.308 513.006 193.48 497.407 193.48C475.72 193.48 455.599 200.516 440.745 214.84C437.935 217.55 435.386 220.452 433.098 223.522V317.3C433.098 317.462 433.082 317.621 433.052 317.777ZM531.787 231.8C532.327 230.9 531.787 229.64 530.707 228.74C525.877 225.699 520.158 223.147 514.368 221.349C512.815 220.867 511.257 220.439 509.71 220.07C509.71 220.07 509.71 220.07 509.71 220.07C505.415 219.047 501.202 218.48 497.407 218.48C464.827 218.48 443.227 239.36 443.227 270.68C443.227 302 464.827 322.88 497.407 322.88C501.202 322.88 505.415 322.314 509.71 321.291C509.71 321.291 509.71 321.291 509.71 321.291C511.257 320.922 512.815 320.494 514.368 320.012C520.159 318.214 525.877 315.661 530.707 312.62C531.787 311.72 532.327 310.46 531.787 309.56L521.347 287.6C520.627 286.16 519.367 285.62 518.107 286.52C513.607 289.76 506.767 291.92 500.827 291.92C487.687 291.92 479.047 283.46 479.047 270.68C479.047 257.9 487.687 249.44 500.827 249.44C506.767 249.44 513.607 251.6 518.107 254.84C519.367 255.74 520.627 255.2 521.347 253.76L531.787 231.8Z" fill="white"/>
<path fill-rule="evenodd" clip-rule="evenodd" d="M394.882 196.266C396.44 187.189 403.856 181.4 414.378 181.4C424.881 181.4 432.288 187.169 433.865 196.217C434.071 197.404 434.178 198.647 434.178 199.94C434.178 204.33 432.825 208.136 430.398 211.09C426.954 215.282 421.347 217.76 414.378 217.76C407.646 217.76 402.186 215.449 398.718 211.513C396.065 208.503 394.578 204.543 394.578 199.94C394.578 198.665 394.681 197.438 394.882 196.266ZM372.305 215.262C370.491 210.41 369.578 205.224 369.578 199.94C369.578 188.182 373.909 176.677 382.948 168.225C391.83 159.919 403.263 156.4 414.378 156.4C425.493 156.4 436.925 159.919 445.808 168.225C454.847 176.677 459.178 188.182 459.178 199.94C459.178 205.038 458.328 210.044 456.639 214.747C457.547 217.387 458.098 220.322 458.098 223.52V232.837C448.626 241.972 443.227 255.021 443.227 270.68C443.227 286.339 448.626 299.389 458.098 308.524V317.3C458.098 332.548 445.645 345 430.398 345H398.718C384.381 345 372.515 333.991 371.149 320H381.114C382.554 320 383.814 318.74 383.814 317.3V257.9C383.814 241.757 379.412 231.147 371.018 225.043V223.52C371.018 220.528 371.5 217.767 372.305 215.262ZM396.018 317.3C396.018 318.74 397.278 320 398.718 320H430.398C431.838 320 433.098 318.74 433.098 317.3V223.52C433.098 222.26 431.838 221 430.398 221H398.718C397.278 221 396.018 222.26 396.018 223.52V317.3Z" fill="white"/>
<path fill-rule="evenodd" clip-rule="evenodd" d="M264.265 320C265.632 333.991 277.498 345 291.834 345H323.514C328.224 345 332.667 343.812 336.559 341.72C340.573 343.844 345.033 345 349.434 345H381.114C395.451 345 407.317 333.991 408.683 320H398.718C397.278 320 396.018 318.74 396.018 317.3V223.52C396.018 222.26 397.278 221 398.718 221H400.213C397.935 217.038 395.129 213.316 391.709 209.92C378.768 197.07 361.646 193.48 346.014 193.48C337.843 193.48 329.345 194.857 321.599 197.462C321.467 197.506 321.334 197.551 321.201 197.597C318.032 196.502 314.808 196 311.814 196H291.654C286.322 196 278.53 197.554 272.109 203.975C265.688 210.397 264.134 218.188 264.134 223.52V230.115C272.267 238.658 276.169 252.036 276.169 270.68V317.3C276.169 318.74 274.909 320 273.469 320H264.265ZM340.067 218.834C330.877 219.908 321.768 223.383 317.034 228.56L314.694 222.8C314.154 221.54 313.074 221 311.814 221H291.654C290.034 221 289.134 221.9 289.134 223.52V317.3C289.134 318.74 290.394 320 291.834 320H323.514C324.954 320 326.214 318.74 326.214 317.3V262.22C326.214 262.22 327.834 252.14 338.094 252.14C343.34 252.14 346.518 255.8 346.88 262.22C346.903 262.629 346.914 263.049 346.914 263.48V317.3C346.734 318.74 347.994 320 349.434 320H371.768H381.114C382.554 320 383.814 318.74 383.814 317.3V257.9C383.814 229.82 370.494 218.48 346.014 218.48C344.057 218.48 342.06 218.601 340.067 218.834Z" fill="white"/>
<path fill-rule="evenodd" clip-rule="evenodd" d="M158.362 275.402C157.171 279.859 156.539 284.528 156.49 289.325L156.49 289.353C156.345 305.266 161.892 320.395 173.353 331.511C184.727 342.543 199.924 347.7 215.689 347.7C224.052 347.7 233.291 346.491 242.012 343.571C244.701 344.472 247.645 345 250.789 345H273.469C287.805 345 299.671 333.991 301.037 320H291.834C290.394 320 289.134 318.74 289.134 317.3V223.52C289.134 222.972 289.238 222.506 289.437 222.129C287.802 219.54 285.963 217.056 283.9 214.696C269.991 198.782 250.416 193.48 230.629 193.48C212.402 193.48 193.171 198.159 178.219 207.603C177.293 208.188 176.406 208.834 175.564 209.535C174.304 210.585 173.132 211.752 172.064 213.018C177.054 219.453 179.879 227.459 180.238 236.631C180.244 236.789 180.249 236.948 180.254 237.107C180.269 237.615 180.276 238.126 180.276 238.64C180.276 240.994 180.119 243.275 179.807 245.477C179.127 250.296 177.712 254.739 175.615 258.737C171.907 265.807 166.063 271.487 158.362 275.402ZM185.901 274.156C183.103 278.498 181.549 283.71 181.489 289.58C181.309 309.38 194.989 322.7 215.689 322.7C218.306 322.7 220.874 322.543 223.354 322.242C223.357 322.242 223.36 322.241 223.363 322.241C225.642 321.963 227.848 321.564 229.951 321.053C233.708 320.14 237.138 318.871 240.08 317.3C242.694 315.905 244.922 314.271 246.649 312.44L247.909 317.3C247.909 318.74 249.349 320 250.789 320H273.469C274.909 320 276.169 318.74 276.169 317.3V270.68C276.169 234.86 261.769 218.48 230.629 218.48C216.229 218.48 201.829 222.26 191.569 228.74C190.489 229.64 190.129 230.9 190.669 232.16L191.286 233.46L200.929 253.76C201.649 255.02 202.729 255.74 203.629 255.2C207.033 253.24 211.324 251.635 215.689 250.622C218.94 249.867 222.232 249.44 225.229 249.44C232.423 249.44 237.578 253.245 238.807 259.319C238.993 260.236 239.089 261.205 239.089 262.22V269.78C237.178 266.723 233.645 264.224 229.189 262.552C228.884 262.437 228.576 262.327 228.263 262.22C227.289 261.889 226.275 261.596 225.229 261.343C222.652 260.722 219.876 260.348 217.002 260.26C216.566 260.247 216.128 260.24 215.689 260.24C212.673 260.24 209.804 260.498 207.104 260.993C207.062 261.001 207.02 261.009 206.977 261.017C197.585 262.769 190.245 267.414 185.901 274.156ZM227 295.842C227.681 295.986 228.414 296.06 229.189 296.06C229.218 296.06 229.247 296.06 229.276 296.06C229.766 296.057 230.244 296.03 230.711 295.978C232.353 295.795 233.866 295.307 235.318 294.496C236.607 293.776 237.848 292.801 239.089 291.56V287.6C236.45 284.962 233.811 283.528 230.711 283.183C230.216 283.128 229.709 283.1 229.189 283.1C225.493 283.1 222.769 284.8 221.913 287.6C221.885 287.691 221.859 287.783 221.836 287.876C221.7 288.408 221.629 288.978 221.629 289.58C221.629 290.289 221.727 290.951 221.913 291.56C222.59 293.774 224.433 295.299 227 295.842ZM191.243 233.484C191.084 233.575 190.925 233.668 190.766 233.763C190.847 233.714 190.929 233.666 191.011 233.618C191.059 233.59 191.107 233.563 191.155 233.535C191.184 233.518 191.213 233.501 191.243 233.484Z" fill="white"/>
<path fill-rule="evenodd" clip-rule="evenodd" d="M87.3965 170.801H129.876C149.983 170.801 168.929 176.279 183.244 188.66C193.879 197.858 200.663 209.773 203.598 223.006C199.204 224.561 195.136 226.488 191.569 228.741C190.489 229.641 190.129 230.901 190.669 232.161L200.929 253.761C201.577 254.896 202.518 255.593 203.356 255.325C202.77 257.782 202.05 260.193 201.195 262.547C189.107 266.78 181.622 276.563 181.489 289.581C181.487 289.75 181.487 289.919 181.487 290.088C171.785 297.903 160.12 302.728 147.497 304.976V317.481C147.497 334.64 132.854 345.001 119.616 345.001H87.3965C78.6357 345.001 71.9675 340.872 67.9863 336.891C64.0052 332.91 59.8765 326.242 59.8765 317.481V198.501C59.8765 190.486 63.3043 183.828 67.5801 179.349C71.7195 175.012 78.5492 170.801 87.3965 170.801ZM122.496 317.481C122.496 318.741 121.236 320.001 119.616 320.001H87.3965C86.1365 320.001 84.8765 318.741 84.8765 317.481V198.501C84.8765 197.061 86.1365 195.801 87.3965 195.801H129.876C161.377 195.801 180.277 212.901 180.277 238.641C180.277 264.381 161.377 281.481 129.876 281.481H122.496V317.481ZM122.137 228.021V249.261H131.497C137.797 249.261 142.117 244.941 142.117 238.641C142.117 232.341 137.797 228.021 131.497 228.021H122.137Z" fill="white"/>
</svg>
