<svg width="555" height="99" viewBox="0 0 555 99" fill="none" xmlns="http://www.w3.org/2000/svg">
<path d="M285.016 34.4073H291.642C292.437 34.4073 292.968 34.9374 292.968 35.6442L291.996 44.2142C291.907 44.921 291.377 45.5395 290.67 45.5395H285.016V81.6747C285.016 82.3815 284.398 83 283.691 83H268.141C267.434 83 266.816 82.3815 266.816 81.6747V45.5395H261.78C261.161 45.5395 260.543 45.0094 260.543 44.3026V35.7326C260.543 34.9374 261.161 34.4073 261.78 34.4073H266.816V24.7771C266.816 24.1587 267.434 23.6286 268.141 23.5402L283.691 22.0383C284.398 21.9499 285.016 22.6567 285.016 23.2752V34.4073Z" fill="#677EFF"/>
<path d="M250.14 67.0969L253.939 78.0524C254.116 78.6708 253.939 79.0242 253.321 79.3776C248.638 82.4699 241.835 84.3252 235.032 84.3252C219.394 84.3252 208.969 74.0766 208.969 58.792C208.969 43.419 219.217 33.1704 234.59 33.1704C249.256 33.1704 257.915 42.6239 257.915 58.7036C257.915 60.0289 257.826 61.3542 257.561 62.6794C257.473 63.3862 257.031 63.7396 256.236 63.7396H227.876C227.876 63.7396 227.876 69.3057 235.297 69.3057C239.803 69.3057 244.839 68.2455 248.815 66.3901C249.433 66.1251 249.963 66.4785 250.14 67.0969ZM227.787 54.4628H240.333C240.333 50.5754 237.948 48.0133 234.414 48.0133C230.438 48.0133 227.787 50.5754 227.787 54.4628Z" fill="#677EFF"/>
<path d="M163.044 18.9458H178.594C179.3 18.9458 179.919 19.5643 179.919 20.1827V49.515L188.135 35.4673C188.489 34.8489 189.372 34.4071 190.168 34.4071H207.838C208.544 34.4071 208.809 34.8489 208.456 35.4673L195.38 57.1131L211.372 81.9396C211.813 82.558 211.46 82.9998 210.753 82.9998H191.935C191.316 82.9998 190.433 82.558 190.079 81.9396L179.919 64.4462V81.6745C179.919 82.3813 179.3 82.9998 178.594 82.9998H163.044C162.337 82.9998 161.719 82.3813 161.719 81.6745V20.1827C161.719 19.5643 162.337 18.9458 163.044 18.9458Z" fill="#677EFF"/>
<path d="M151.543 67.0969L156.668 77.8757C156.933 78.3174 156.668 78.9359 156.137 79.3776C151.367 82.3815 144.829 84.4136 139.793 84.4136C123.801 84.4136 113.199 74.165 113.199 58.792C113.199 43.419 123.801 33.1704 139.793 33.1704C144.829 33.1704 151.367 35.2025 156.137 38.2064C156.668 38.6481 156.933 39.2666 156.668 39.7083L151.543 50.4871C151.19 51.1939 150.571 51.4589 149.953 51.0172C147.744 49.4269 144.387 48.3667 141.471 48.3667C135.022 48.3667 130.781 52.5191 130.781 58.792C130.781 65.0649 135.022 69.2173 141.471 69.2173C144.387 69.2173 147.744 68.1571 149.953 66.5668C150.571 66.1251 151.19 66.3901 151.543 67.0969Z" fill="#677EFF"/>
<path d="M71.3161 50.4871L66.2802 39.885C66.0151 39.2666 66.1918 38.6481 66.7219 38.2064C71.7579 35.0258 78.8259 33.1704 85.8939 33.1704C101.179 33.1704 108.247 41.2103 108.247 58.792V81.6747C108.247 82.3815 107.628 83 106.921 83H95.7892C95.0824 83 94.3756 82.3815 94.3756 81.6747L93.7571 79.2893C90.8415 82.3815 85.0104 84.3252 78.5609 84.3252C68.4006 84.3252 61.6859 77.7873 61.7743 68.0688C61.8626 59.4104 68.5773 53.6677 78.5609 53.6677C83.6852 53.6677 88.2794 55.523 90.0464 58.3502V54.6395C90.0464 50.8405 87.3075 48.3667 83.2434 48.3667C79.7978 48.3667 75.5569 49.5152 72.6414 51.1939C72.1996 51.4589 71.6695 51.1055 71.3161 50.4871ZM90.0464 69.0406V67.0969C88.5444 65.595 87.0425 64.8882 85.1871 64.8882C82.9784 64.8882 81.4764 66.1251 81.4764 68.0688C81.4764 70.0125 82.9784 71.2494 85.1871 71.2494C87.0425 71.2494 88.5444 70.5426 90.0464 69.0406Z" fill="#677EFF"/>
<path d="M15.5924 22.0381H36.443C51.9044 22.0381 61.1811 30.4314 61.1811 43.0655C61.1811 55.6996 51.9044 64.0928 36.443 64.0928H32.8207V81.7629C32.8207 82.3813 32.2022 82.9998 31.4071 82.9998H15.5924C14.9739 82.9998 14.3555 82.3813 14.3555 81.7629V23.3633C14.3555 22.6565 14.9739 22.0381 15.5924 22.0381ZM32.644 48.2781H37.2382C40.3305 48.2781 42.4509 46.1577 42.4509 43.0655C42.4509 39.9732 40.3305 37.8528 37.2382 37.8528H32.644V48.2781Z" fill="#677EFF"/>
<path fill-rule="evenodd" clip-rule="evenodd" d="M266.816 24.777C266.816 24.1586 267.434 23.6285 268.141 23.5401L283.691 22.0382C284.398 21.9498 285.016 22.6566 285.016 23.2751V34.4072H291.642C292.437 34.4072 292.968 34.9373 292.968 35.6441L291.996 44.2141C291.957 44.5266 291.831 44.8219 291.642 45.054C291.404 45.3469 291.065 45.5393 290.67 45.5393H285.016V81.6746C285.016 82.3814 284.398 82.9999 283.691 82.9999H268.141C267.434 82.9999 266.816 82.3814 266.816 81.6746V45.5393H261.78C261.161 45.5393 260.543 45.0092 260.543 44.3024V35.7325C260.543 34.9373 261.161 34.4072 261.78 34.4072H266.816V24.777ZM252.888 23.2883C249.057 26.0599 246.543 30.5806 246.543 35.7325V35.8771C250.093 37.7657 252.881 40.6092 254.808 44.3024C255.018 44.7047 255.217 45.1171 255.407 45.5393C257.051 49.207 257.915 53.6247 257.915 58.7035C257.915 58.8102 257.914 58.9169 257.913 59.0235C257.899 60.2421 257.805 61.4607 257.561 62.6793C257.473 63.3861 257.031 63.7395 256.236 63.7395H252.816V74.814L253.939 78.0523C254.115 78.6707 253.939 79.0241 253.32 79.3775C253.155 79.4868 252.987 79.5946 252.816 79.7008V81.6746C252.816 90.1134 259.702 96.9999 268.141 96.9999H283.691C292.13 96.9999 299.016 90.1134 299.016 81.6746V57.1063C303.24 54.2854 305.436 49.5617 305.888 45.9506C305.894 45.8976 305.901 45.8446 305.907 45.7916L306.878 37.2216C306.938 36.6979 306.968 36.1712 306.968 35.6441C306.968 31.6668 305.411 27.6258 302.258 24.6227C301.237 23.65 300.131 22.8633 298.981 22.2447C298.697 18.0458 296.706 14.6799 294.518 12.4921C292.084 10.0577 287.78 7.52609 282.247 8.11245L266.795 9.60497C266.665 9.61756 266.535 9.63198 266.405 9.64822C263.249 10.0426 260.219 11.3977 257.796 13.6006C255.622 15.5768 253.321 18.8748 252.888 23.2883Z" fill="white"/>
<path fill-rule="evenodd" clip-rule="evenodd" d="M202.596 83C203.718 84.5101 204.965 85.9427 206.335 87.2862C213.885 94.6901 224.104 98.3252 235.033 98.3252C243.91 98.3252 253.392 96.0038 260.743 91.2514C262.189 90.3647 264.875 88.4098 266.581 84.8076C266.912 84.1082 267.174 83.418 267.379 82.7432C267.043 82.4977 266.817 82.1024 266.817 81.6747V45.5395H261.781C261.162 45.5395 260.544 45.0094 260.544 44.3025V35.7326C260.544 34.9374 261.162 34.4073 261.781 34.4073H265.192C264.264 33.0319 263.231 31.7134 262.086 30.4612C254.933 22.6356 245.041 19.1704 234.591 19.1704C223.723 19.1704 213.579 22.8542 206.116 30.3169C204.829 31.6039 203.654 32.9708 202.591 34.4073H207.84C208.547 34.4073 208.812 34.8491 208.459 35.4675L195.383 57.1133L211.374 81.9398C211.816 82.5582 211.463 83 210.756 83H202.596ZM257.752 54.993C256.5 41.1795 248.09 33.1704 234.591 33.1704C219.218 33.1704 208.969 43.419 208.969 58.792C208.969 74.0766 219.395 84.3252 235.033 84.3252C241.108 84.3252 247.183 82.8458 251.748 80.3272C252.016 80.179 252.279 80.0273 252.537 79.8721C252.805 79.711 253.066 79.5462 253.321 79.3776C253.774 79.1187 253.99 78.8599 254.004 78.4968C254.009 78.3642 253.987 78.2178 253.94 78.0524L250.141 67.0969C249.964 66.4785 249.434 66.1251 248.815 66.3901C248.062 66.7416 247.271 67.0646 246.453 67.3572C246.228 67.4373 246.002 67.5152 245.774 67.5908C245.769 67.5924 245.764 67.5941 245.759 67.5957C242.429 68.6973 238.711 69.3057 235.298 69.3057C233.474 69.3057 232.099 68.9697 231.062 68.4628C227.876 66.9066 227.876 63.7396 227.876 63.7396H256.237C257.032 63.7396 257.474 63.3862 257.562 62.6794C257.827 61.3542 257.916 60.0289 257.916 58.7037C257.916 57.4244 257.861 56.187 257.752 54.993ZM238.661 49.7396C237.625 48.6384 236.16 48.0133 234.414 48.0133C232.45 48.0133 230.81 48.6384 229.653 49.7396C228.716 50.6307 228.096 51.8335 227.876 53.269C227.818 53.6509 227.788 54.0494 227.788 54.4628H240.334C240.334 52.4956 239.723 50.8678 238.661 49.7396Z" fill="white"/>
<path fill-rule="evenodd" clip-rule="evenodd" d="M163.044 82.9998C162.337 82.9998 161.719 82.3813 161.719 81.6745V20.1827C161.719 19.5643 162.337 18.9458 163.044 18.9458H178.594C179.3 18.9458 179.919 19.5643 179.919 20.1827V49.515L188.135 35.4673C188.489 34.8489 189.372 34.4071 190.168 34.4071H207.838C208.544 34.4071 208.809 34.8489 208.456 35.4673L195.38 57.1131L211.372 81.9396C211.813 82.558 211.46 82.9998 210.753 82.9998H191.935C191.316 82.9998 190.433 82.558 190.079 81.9396L179.919 64.4462V81.6745C179.919 82.3813 179.3 82.9998 178.594 82.9998H163.044ZM185.204 95.4953C183.201 96.4592 180.958 96.9998 178.594 96.9998H163.044C155.088 96.9998 148.511 90.8784 147.785 83.106C149.116 82.7065 150.443 82.2249 151.724 81.6745C153.286 81.0031 154.782 80.2293 156.135 79.3774C156.665 78.9357 156.93 78.3172 156.665 77.8755L151.541 67.0967C151.187 66.3899 150.569 66.1249 149.95 66.5666C149.294 67.0392 148.536 67.4649 147.719 67.8299V49.7536C148.536 50.1187 149.294 50.5444 149.95 51.017C150.569 51.4587 151.187 51.1937 151.541 50.4869L156.665 39.7081C156.93 39.2664 156.665 38.6479 156.135 38.2062C153.654 36.6442 150.695 35.345 147.719 34.4576V20.1827C147.719 15.2718 150.055 11.4907 152.45 9.20535C154.924 6.84356 158.606 4.9458 163.044 4.9458H178.594C183.032 4.9458 186.714 6.84356 189.188 9.20535C191.582 11.4907 193.919 15.2718 193.919 20.1827V20.4071H207.838C210.481 20.4071 216.876 21.2562 220.611 27.607C222.287 30.4548 222.738 33.2314 222.605 35.6435C220.224 36.7435 218.106 38.1904 216.29 39.9438C216.236 39.9962 216.182 40.0489 216.128 40.1018C212.735 43.4458 210.423 47.8775 209.465 53.1254C209.136 54.9221 208.967 56.8146 208.967 58.7918C208.967 59.7167 209.005 60.6232 209.08 61.5101C209.308 64.1973 209.876 66.7045 210.751 68.9998C210.752 69.0015 210.753 69.0032 210.753 69.0049C212.105 72.5471 214.19 75.5841 216.89 77.9978C216.974 78.073 217.059 78.1475 217.144 78.2214C219.524 80.2854 222.365 81.8758 225.591 82.915C225.539 85.2252 224.9 87.7523 223.247 90.3071C219.388 96.2714 213.234 96.9998 210.753 96.9998H191.935C189.249 96.9998 186.948 96.3004 185.204 95.4953Z" fill="white"/>
<path fill-rule="evenodd" clip-rule="evenodd" d="M106.86 83C108.033 84.5699 109.339 86.0559 110.78 87.445C118.443 94.8349 128.774 98.4136 139.791 98.4136C147.817 98.4136 156.907 95.4363 163.596 91.2249C164.12 90.8945 164.623 90.5296 165.099 90.1327C166.823 88.6961 168.688 86.5287 169.808 83.5424C169.874 83.3676 169.938 83.1867 169.999 83H163.046C162.339 83 161.72 82.3815 161.72 81.6747V25.2457C155.268 21.6325 147.09 19.1704 139.791 19.1704C128.774 19.1704 118.443 22.7491 110.78 30.139C107.728 33.0822 105.277 36.4598 103.43 40.1501C106.682 44.3543 108.248 50.5161 108.248 58.792V81.6747C108.248 82.3815 107.629 83 106.922 83H106.86ZM156.479 38.5633C156.384 38.437 156.268 38.3162 156.136 38.2064C153.766 36.7138 150.959 35.4611 148.117 34.5784C146.764 34.1583 145.403 33.8221 144.078 33.5836C144.078 33.5836 144.078 33.5837 144.078 33.5836C142.584 33.3149 141.134 33.1704 139.791 33.1704C123.8 33.1704 113.198 43.419 113.198 58.792C113.198 74.165 123.8 84.4136 139.791 84.4136C141.134 84.4136 142.583 84.2692 144.077 84.0005C144.077 84.0004 144.077 84.0005 144.077 84.0005C145.403 83.762 146.764 83.4256 148.117 83.0055C150.959 82.1229 153.766 80.8702 156.136 79.3776C156.268 79.2678 156.384 79.147 156.479 79.0207C156.512 78.9758 156.544 78.9302 156.572 78.8841C156.785 78.5389 156.842 78.1685 156.666 77.8757L151.542 67.0969C151.189 66.3901 150.57 66.1251 149.952 66.5668C147.743 68.1571 144.386 69.2173 141.47 69.2173C135.021 69.2173 130.78 65.0649 130.78 58.792C130.78 52.5191 135.021 48.3667 141.47 48.3667C144.386 48.3667 147.743 49.4269 149.952 51.0172C150.57 51.4589 151.189 51.1939 151.542 50.4871L156.666 39.7083C156.842 39.4155 156.785 39.0451 156.572 38.6999C156.544 38.6538 156.512 38.6082 156.479 38.5633Z" fill="white"/>
<path fill-rule="evenodd" clip-rule="evenodd" d="M48.428 62.0093C48.0155 63.9248 47.7956 65.9048 47.775 67.9259L47.7749 67.9415C47.7001 76.1679 50.573 84.0674 56.5771 89.8909C62.5324 95.6671 70.4486 98.3252 78.5608 98.3252C82.6167 98.3252 87.1447 97.7656 91.4914 96.3847C92.8246 96.7755 94.2639 97 95.7892 97H106.921C115.36 97 122.247 90.1135 122.247 81.6747V78.8904C116.518 74.3951 113.197 67.3962 113.197 58.792C113.197 51.6089 115.512 45.5446 119.609 41.1219C118.226 37.166 116.207 33.4518 113.343 30.1749C106.072 21.8562 95.8977 19.1704 85.8939 19.1704C76.6828 19.1704 66.9098 21.5292 59.246 26.3695C58.7273 26.6971 58.2306 27.0585 57.7593 27.4513C57.1359 27.9708 56.5511 28.5427 56.0119 29.1597C59.1685 32.516 60.9586 36.922 61.1602 42.0793C61.1632 42.1571 61.1659 42.2351 61.1682 42.3132C61.1756 42.5623 61.1793 42.8131 61.1793 43.0656C61.1793 43.4618 61.1702 43.8539 61.152 44.2416C60.9651 48.2341 59.821 51.7708 57.8238 54.712C55.6542 57.9071 52.4777 60.3993 48.428 62.0093ZM63.0907 62.0353C62.2546 63.8233 61.7969 65.8504 61.7743 68.0688C61.6859 77.7873 68.4006 84.3252 78.5608 84.3252C78.8006 84.3252 79.0396 84.3226 79.2776 84.3172C79.7163 84.3074 80.1518 84.2886 80.5832 84.261C80.5872 84.2607 80.5911 84.2605 80.5951 84.2602C82.194 84.1574 83.7373 83.9346 85.1871 83.6047C87.1776 83.1518 88.992 82.4973 90.5328 81.6747C91.8162 80.9896 92.9098 80.1879 93.7571 79.2893L94.3755 81.6747C94.3755 82.094 94.6243 82.4822 94.9742 82.7287C95.2141 82.8976 95.5016 83 95.7892 83H106.921C107.628 83 108.247 82.3815 108.247 81.6747V58.792C108.247 41.2103 101.179 33.1704 85.8939 33.1704C78.8259 33.1704 71.7579 35.0258 66.7219 38.2064C66.5482 38.3512 66.4124 38.5149 66.3177 38.6915C66.3149 38.6966 66.3121 38.7018 66.3094 38.707C66.1228 39.0654 66.1045 39.4752 66.2801 39.885L71.3161 50.4871C71.6695 51.1055 72.1996 51.4589 72.6414 51.1939C74.3123 50.2318 76.4185 49.4439 78.5608 48.9465C80.1566 48.576 81.7725 48.3667 83.2434 48.3667C85.9254 48.3667 88.0302 49.444 89.1517 51.2685C89.7296 52.2088 90.0464 53.3475 90.0464 54.6395V58.3503C89.1085 56.8497 87.3743 55.6229 85.1871 54.802C85.0377 54.746 84.8862 54.6918 84.7327 54.6395C84.2546 54.4768 83.7571 54.3329 83.2434 54.209C81.7871 53.8578 80.2011 53.6677 78.5608 53.6677C77.3018 53.6677 76.0947 53.759 74.9463 53.936C74.7448 53.9671 74.5451 54.0008 74.3473 54.0371C74.3265 54.0409 74.3057 54.0447 74.285 54.0486C68.9917 55.0365 65.0267 57.8954 63.0907 62.0353ZM82.0859 69.9525C82.6134 70.6339 83.4565 71.0763 84.5078 71.2081C84.7256 71.2354 84.9524 71.2494 85.1871 71.2494C85.2014 71.2494 85.2156 71.2494 85.2298 71.2493C85.4703 71.2479 85.7049 71.2345 85.9343 71.209C87.4561 71.0397 88.7512 70.3358 90.0464 69.0406V67.0969C89.6814 66.732 89.3165 66.414 88.9465 66.1417C88.0034 65.4476 87.0273 65.0502 85.9343 64.9286C85.6914 64.9016 85.4426 64.8882 85.1871 64.8882C83.3733 64.8882 82.0361 65.7223 81.6159 67.0969C81.5244 67.3963 81.4764 67.7212 81.4764 68.0688C81.4764 68.4163 81.5244 68.7413 81.6159 69.0406C81.6981 69.3095 81.8153 69.5576 81.9644 69.7829C82.0028 69.841 82.0433 69.8975 82.0859 69.9525ZM65.7164 39.0264C65.6237 39.0792 65.531 39.1334 65.4384 39.189C65.5105 39.1457 65.583 39.1031 65.6559 39.0612C65.676 39.0496 65.6962 39.038 65.7164 39.0264Z" fill="white"/>
<path fill-rule="evenodd" clip-rule="evenodd" d="M15.5924 8.03809H36.443C46.6136 8.03809 56.3519 10.8102 63.7686 17.2253C69.2475 21.9641 72.744 28.0856 74.279 34.8523C71.4877 35.6906 68.9136 36.8231 66.7237 38.2062C66.1936 38.6479 66.0169 39.2664 66.282 39.8848L71.3179 50.4869C71.6713 51.1053 72.2015 51.4587 72.6432 51.1937C73.2139 50.8651 73.8353 50.5569 74.4916 50.2736C74.2284 51.6133 73.8897 52.9296 73.4753 54.2169C66.3623 55.8455 61.8484 60.9799 61.7761 68.0686C61.7688 68.8733 61.8081 69.6562 61.8922 70.4153C57.4552 73.7329 52.3149 75.8906 46.8207 77.0498V81.7629C46.8207 91.2848 38.7083 96.9998 31.4071 96.9998H15.5924C10.7299 96.9998 7.03927 94.7095 4.84251 92.5128C2.64574 90.316 0.355469 86.6254 0.355469 81.7629V23.3633C0.355469 18.9249 2.25323 15.2433 4.61501 12.769C6.90038 10.3748 10.6814 8.03809 15.5924 8.03809ZM32.8207 81.7629C32.8207 82.3813 32.2022 82.9998 31.4071 82.9998H15.5924C14.9739 82.9998 14.3555 82.3813 14.3555 81.7629V23.3633C14.3555 22.6565 14.9739 22.0381 15.5924 22.0381H36.443C51.9044 22.0381 61.1811 30.4314 61.1811 43.0655C61.1811 55.6996 51.9044 64.0928 36.443 64.0928H32.8207V81.7629ZM37.2382 48.2781H32.644V37.8528H37.2382C40.3305 37.8528 42.4509 39.9732 42.4509 43.0655C42.4509 46.1577 40.3305 48.2781 37.2382 48.2781Z" fill="white"/>
<path d="M535.707 67.0969L540.832 77.8757C541.097 78.3174 540.832 78.9359 540.302 79.3776C535.531 82.3815 528.993 84.4136 523.957 84.4136C507.965 84.4136 497.363 74.165 497.363 58.792C497.363 43.419 507.965 33.1704 523.957 33.1704C528.993 33.1704 535.531 35.2025 540.302 38.2064C540.832 38.6481 541.097 39.2666 540.832 39.7083L535.707 50.4871C535.354 51.1939 534.735 51.4589 534.117 51.0172C531.908 49.4269 528.551 48.3667 525.635 48.3667C519.186 48.3667 514.945 52.5191 514.945 58.792C514.945 65.0649 519.186 69.2173 525.635 69.2173C528.551 69.2173 531.908 68.1571 534.117 66.5668C534.735 66.1251 535.354 66.3901 535.707 67.0969Z" fill="#677EFF"/>
<path d="M483.203 14.9702C489.034 14.9702 492.921 18.5926 492.921 24.0703C492.921 29.283 489.034 32.817 483.203 32.817C477.372 32.817 473.484 29.283 473.484 24.0703C473.484 18.5926 477.372 14.9702 483.203 14.9702ZM475.516 34.4073H491.066C491.773 34.4073 492.391 35.0257 492.391 35.6442V81.6747C492.391 82.3815 491.773 83 491.066 83H475.516C474.81 83 474.191 82.3815 474.191 81.6747V35.6442C474.191 35.0257 474.81 34.4073 475.516 34.4073Z" fill="#677EFF"/>
<path d="M434.276 35.2908L435.425 38.118C438.252 35.0258 444.26 33.1704 449.649 33.1704C461.665 33.1704 468.203 38.7365 468.203 52.5191V81.6747C468.203 82.3815 467.584 83 466.877 83H451.328C450.621 83 450.003 82.3815 450.091 81.6747V55.258C450.091 51.724 448.501 49.6919 445.762 49.6919C440.726 49.6919 439.931 54.6395 439.931 54.6395V81.6747C439.931 82.3815 439.312 83 438.605 83H423.056C422.349 83 421.73 82.3815 421.73 81.6747V35.6442C421.73 34.8491 422.172 34.4073 422.967 34.4073H432.863C433.481 34.4073 434.011 34.6724 434.276 35.2908Z" fill="#677EFF"/>
<path d="M378.437 50.4871L373.401 39.885C373.136 39.2666 373.313 38.6481 373.843 38.2064C378.879 35.0258 385.947 33.1704 393.015 33.1704C408.3 33.1704 415.368 41.2103 415.368 58.792V81.6747C415.368 82.3815 414.749 83 414.042 83H402.91C402.203 83 401.497 82.3815 401.497 81.6747L400.878 79.2893C397.963 82.3815 392.132 84.3252 385.682 84.3252C375.522 84.3252 368.807 77.7873 368.895 68.0688C368.984 59.4104 375.698 53.6677 385.682 53.6677C390.806 53.6677 395.4 55.523 397.167 58.3502V54.6395C397.167 50.8405 394.429 48.3667 390.365 48.3667C386.919 48.3667 382.678 49.5152 379.762 51.1939C379.321 51.4589 378.791 51.1055 378.437 50.4871ZM397.167 69.0406V67.0969C395.666 65.595 394.164 64.8882 392.308 64.8882C390.099 64.8882 388.598 66.1251 388.598 68.0688C388.598 70.0125 390.099 71.2494 392.308 71.2494C394.164 71.2494 395.666 70.5426 397.167 69.0406Z" fill="#677EFF"/>
<path d="M322.71 22.0381H343.56C359.022 22.0381 368.298 30.4314 368.298 43.0655C368.298 55.6996 359.022 64.0928 343.56 64.0928H339.938V81.7629C339.938 82.3813 339.319 82.9998 338.524 82.9998H322.71C322.091 82.9998 321.473 82.3813 321.473 81.7629V23.3633C321.473 22.6565 322.091 22.0381 322.71 22.0381ZM339.761 48.2781H344.355C347.448 48.2781 349.568 46.1577 349.568 43.0655C349.568 39.9732 347.448 37.8528 344.355 37.8528H339.761V48.2781Z" fill="#677EFF"/>
<path fill-rule="evenodd" clip-rule="evenodd" d="M491.027 83C492.2 84.5699 493.506 86.0559 494.947 87.445C502.61 94.8349 512.941 98.4136 523.959 98.4136C531.984 98.4136 541.074 95.4363 547.763 91.2249C548.288 90.8945 548.79 90.5296 549.266 90.1327C550.99 88.6961 552.855 86.5287 553.975 83.5424C555.053 80.6698 555.67 76.1372 553.344 71.5833L548.353 61.0859C548.313 61.0022 548.273 60.9188 548.231 60.8359C547.917 60.2085 547.514 59.5108 547.007 58.792C547.514 58.0732 547.917 57.3755 548.231 56.7481C548.273 56.6651 548.313 56.5818 548.353 56.4981L553.344 46.0006C555.67 41.4467 555.053 36.9142 553.975 34.0416C552.855 31.0553 550.99 28.8879 549.266 27.4513C548.79 27.0543 548.288 26.6895 547.763 26.3591C541.074 22.1477 531.984 19.1704 523.959 19.1704C512.941 19.1704 502.61 22.7491 494.947 30.139C493.559 31.4769 492.296 32.9046 491.158 34.4106C491.826 34.4598 492.393 35.052 492.393 35.6442V81.6747C492.393 82.3815 491.775 83 491.068 83H491.027ZM540.646 38.5633C540.551 38.437 540.435 38.3162 540.303 38.2064C537.933 36.7138 535.126 35.4611 532.284 34.5784C530.931 34.1583 529.57 33.8221 528.245 33.5836C528.245 33.5836 528.245 33.5837 528.245 33.5836C526.751 33.3149 525.301 33.1704 523.959 33.1704C507.967 33.1704 497.365 43.419 497.365 58.792C497.365 74.165 507.967 84.4136 523.959 84.4136C525.301 84.4136 526.75 84.2692 528.244 84.0005C528.245 84.0004 528.244 84.0005 528.244 84.0005C529.57 83.762 530.931 83.4256 532.284 83.0055C535.126 82.1229 537.933 80.8702 540.303 79.3776C540.435 79.2678 540.551 79.147 540.646 79.0207C540.679 78.9758 540.711 78.9302 540.739 78.8841C540.952 78.5389 541.009 78.1685 540.834 77.8757L535.709 67.0969C535.356 66.3901 534.737 66.1251 534.119 66.5668C531.91 68.1571 528.553 69.2173 525.637 69.2173C519.188 69.2173 514.947 65.0649 514.947 58.792C514.947 52.5191 519.188 48.3667 525.637 48.3667C528.553 48.3667 531.91 49.4269 534.119 51.0172C534.737 51.4589 535.356 51.1939 535.709 50.4871L540.834 39.7083C541.009 39.4155 540.952 39.0451 540.739 38.6999C540.711 38.6538 540.679 38.6082 540.646 38.5633Z" fill="white"/>
<path fill-rule="evenodd" clip-rule="evenodd" d="M474.13 20.4696C475.463 17.0618 478.772 14.9702 483.203 14.9702C487.627 14.9702 490.932 17.0555 492.27 20.4542C492.695 21.535 492.921 22.7487 492.921 24.0703C492.921 26.225 492.257 28.0928 491.066 29.5428C489.376 31.6007 486.624 32.817 483.203 32.817C479.899 32.817 477.219 31.6823 475.516 29.7505C474.214 28.273 473.484 26.3293 473.484 24.0703C473.484 22.7549 473.709 21.5466 474.13 20.4696ZM460.733 31.6389C459.901 29.2222 459.484 26.6647 459.484 24.0703C459.484 17.8715 461.773 11.7492 466.595 7.24017C471.329 2.81318 477.389 0.970215 483.203 0.970215C489.017 0.970215 495.076 2.81318 499.811 7.24017C504.633 11.7492 506.921 17.8715 506.921 24.0703C506.921 26.5637 506.536 29.023 505.768 31.356C506.16 32.666 506.391 34.0992 506.391 35.6442V38.7104C500.676 43.2063 497.363 50.1985 497.363 58.792C497.363 67.3854 500.676 74.3776 506.391 78.8735V81.6747C506.391 90.1135 499.505 97 491.066 97H475.516C467.524 97 460.924 90.8227 460.248 83H466.876C467.583 83 468.201 82.3815 468.201 81.6747V52.5191C468.201 43.8906 465.639 38.4824 460.774 35.6442C460.585 35.5335 460.391 35.4267 460.195 35.3237C460.222 34.0099 460.416 32.7793 460.733 31.6389ZM474.191 81.6747C474.191 82.3815 474.81 83 475.516 83H491.066C491.773 83 492.391 82.3815 492.391 81.6747V35.6442C492.391 35.0257 491.773 34.4073 491.066 34.4073H475.516C474.81 34.4073 474.191 35.0257 474.191 35.6442V81.6747Z" fill="white"/>
<path fill-rule="evenodd" clip-rule="evenodd" d="M407.787 83C408.463 90.8228 415.063 97 423.056 97H438.605C440.893 97 443.066 96.4939 445.02 95.5881C447.022 96.5057 449.188 97 451.328 97H466.877C474.87 97 481.47 90.8228 482.146 83H475.518C474.811 83 474.193 82.3815 474.193 81.6747V35.6442C474.193 35.0258 474.811 34.4073 475.518 34.4073H478.228C476.962 32.0192 475.342 29.7732 473.296 27.7419C466.491 20.9844 457.556 19.1704 449.649 19.1704C445.574 19.1704 441.346 19.8359 437.459 21.1007C435.898 20.6265 434.329 20.4073 432.863 20.4073H422.967C420.037 20.4073 415.718 21.2617 412.151 24.8281C408.585 28.3944 407.73 32.714 407.73 35.6442V37.3136C412.9 41.3498 415.366 48.4061 415.366 58.792V81.6747C415.366 82.3815 414.748 83 414.041 83H407.787ZM447.333 33.2803C442.812 33.7029 438.237 35.3249 435.73 37.8006C435.646 37.8837 435.564 37.9679 435.485 38.053C435.465 38.0746 435.445 38.0963 435.425 38.118L434.276 35.2908C434.011 34.6724 433.481 34.4073 432.863 34.4073H422.967C422.172 34.4073 421.73 34.8491 421.73 35.6442V81.6747C421.73 82.3815 422.349 83 423.056 83H438.605C439.312 83 439.931 82.3815 439.931 81.6747V54.6395C439.931 54.6395 440.726 49.6919 445.762 49.6919C448.337 49.6919 449.896 51.4879 450.074 54.6395C450.085 54.8402 450.091 55.0464 450.091 55.258V81.6747C450.003 82.3815 450.621 83 451.328 83H464.028H466.877C467.584 83 468.203 82.3815 468.203 81.6747V52.5191C468.203 38.7365 461.665 33.1704 449.649 33.1704C448.886 33.1704 448.11 33.2076 447.333 33.2803Z" fill="white"/>
<path fill-rule="evenodd" clip-rule="evenodd" d="M355.549 62.0093C355.137 63.9248 354.917 65.9048 354.896 67.9259L354.896 67.9415C354.821 76.1679 357.694 84.0674 363.698 89.8909C369.653 95.6671 377.57 98.3252 385.682 98.3252C389.738 98.3252 394.266 97.7656 398.612 96.3847C399.946 96.7755 401.385 97 402.91 97H414.042C422.035 97 428.635 90.8227 429.311 83H423.057C422.35 83 421.732 82.3815 421.732 81.6747V35.6442C421.732 34.8491 422.173 34.4073 422.969 34.4073H423.572C422.668 32.9321 421.637 31.5168 420.464 30.1749C413.194 21.8562 403.019 19.1704 393.015 19.1704C383.804 19.1704 374.031 21.5292 366.367 26.3695C365.848 26.6971 365.352 27.0585 364.88 27.4513C364.257 27.9708 363.672 28.5427 363.133 29.1597C366.29 32.516 368.08 36.922 368.281 42.0793C368.284 42.1571 368.287 42.2351 368.289 42.3132C368.297 42.5623 368.3 42.8131 368.3 43.0656C368.3 43.4618 368.291 43.8539 368.273 44.2416C368.086 48.2341 366.942 51.7708 364.945 54.712C362.775 57.9071 359.599 60.3993 355.549 62.0093ZM370.212 62.0353C369.376 63.8233 368.918 65.8504 368.895 68.0688C368.807 77.7873 375.522 84.3252 385.682 84.3252C385.922 84.3252 386.161 84.3226 386.399 84.3172C386.837 84.3074 387.273 84.2886 387.704 84.261C387.708 84.2607 387.712 84.2605 387.716 84.2602C389.315 84.1574 390.858 83.9346 392.308 83.6047C394.299 83.1518 396.113 82.4973 397.654 81.6747C398.937 80.9896 400.031 80.1879 400.878 79.2893L401.497 81.6747C401.497 82.094 401.745 82.4822 402.095 82.7287C402.335 82.8976 402.623 83 402.91 83H414.042C414.749 83 415.368 82.3815 415.368 81.6747V58.792C415.368 41.2103 408.3 33.1704 393.015 33.1704C385.947 33.1704 378.879 35.0258 373.843 38.2064C373.669 38.3512 373.533 38.5149 373.439 38.6915C373.436 38.6966 373.433 38.7018 373.431 38.707C373.244 39.0654 373.226 39.4752 373.401 39.885L378.437 50.4871C378.791 51.1055 379.321 51.4589 379.762 51.1939C381.433 50.2318 383.54 49.4439 385.682 48.9465C387.278 48.576 388.894 48.3667 390.364 48.3667C393.046 48.3667 395.151 49.444 396.273 51.2685C396.851 52.2088 397.167 53.3475 397.167 54.6395V58.3503C396.23 56.8497 394.495 55.6229 392.308 54.802C392.159 54.746 392.007 54.6918 391.854 54.6395C391.376 54.4768 390.878 54.3329 390.364 54.209C388.908 53.8578 387.322 53.6677 385.682 53.6677C384.423 53.6677 383.216 53.759 382.067 53.936C381.866 53.9671 381.666 54.0008 381.468 54.0371C381.448 54.0409 381.427 54.0447 381.406 54.0486C376.113 55.0365 372.148 57.8954 370.212 62.0353ZM389.207 69.9525C389.735 70.6339 390.578 71.0763 391.629 71.2081C391.847 71.2354 392.073 71.2494 392.308 71.2494C392.322 71.2494 392.337 71.2494 392.351 71.2493C392.591 71.2479 392.826 71.2345 393.055 71.209C394.577 71.0397 395.872 70.3358 397.167 69.0406V67.0969C396.803 66.732 396.438 66.414 396.068 66.1417C395.124 65.4476 394.148 65.0502 393.055 64.9286C392.812 64.9016 392.564 64.8882 392.308 64.8882C390.494 64.8882 389.157 65.7223 388.737 67.0969C388.646 67.3963 388.597 67.7212 388.597 68.0688C388.597 68.4163 388.646 68.7413 388.737 69.0406C388.819 69.3095 388.936 69.5576 389.085 69.7829C389.124 69.841 389.164 69.8975 389.207 69.9525ZM372.837 39.0264C372.745 39.0792 372.652 39.1334 372.56 39.189C372.632 39.1457 372.704 39.1031 372.777 39.0612C372.797 39.0496 372.817 39.038 372.837 39.0264Z" fill="white"/>
<path fill-rule="evenodd" clip-rule="evenodd" d="M322.71 8.03809H343.56C353.731 8.03809 363.469 10.8102 370.886 17.2253C376.365 21.9641 379.861 28.0856 381.396 34.8523C378.605 35.6906 376.031 36.8231 373.841 38.2062C373.311 38.6479 373.134 39.2664 373.399 39.8848L378.435 50.4869C378.789 51.1053 379.319 51.4587 379.76 51.1937C380.331 50.8651 380.952 50.5569 381.609 50.2736C381.346 51.6133 381.007 52.9296 380.593 54.2169C373.48 55.8455 368.966 60.9799 368.893 68.0686C368.886 68.8733 368.925 69.6562 369.009 70.4153C364.572 73.7329 359.432 75.8906 353.938 77.0498V81.7629C353.938 91.2848 345.825 96.9998 338.524 96.9998H322.71C317.847 96.9998 314.156 94.7095 311.96 92.5128C309.763 90.316 307.473 86.6254 307.473 81.7629V23.3633C307.473 18.9249 309.37 15.2433 311.732 12.769C314.018 10.3748 317.799 8.03809 322.71 8.03809ZM339.938 81.7629C339.938 82.3813 339.319 82.9998 338.524 82.9998H322.71C322.091 82.9998 321.473 82.3813 321.473 81.7629V23.3633C321.473 22.6565 322.091 22.0381 322.71 22.0381H343.56C359.022 22.0381 368.298 30.4314 368.298 43.0655C368.298 55.6996 359.022 64.0928 343.56 64.0928H339.938V81.7629ZM344.355 48.2781H339.761V37.8528H344.355C347.448 37.8528 349.568 39.9732 349.568 43.0655C349.568 46.1577 347.448 48.2781 344.355 48.2781Z" fill="white"/>
</svg>
