<svg width="422" height="209" viewBox="0 0 422 209" fill="none" xmlns="http://www.w3.org/2000/svg">
<path d="M41 40H385V156H41V40Z" fill="white"/>
<path d="M387.343 158.561C386.703 158.561 386.143 158.001 386.143 157.441L384.943 118.001C384.943 117.361 385.503 116.801 386.143 116.801H400.223C400.863 116.801 401.423 117.361 401.423 118.001L400.143 157.441C400.143 158.001 399.583 158.561 398.943 158.561H387.343ZM393.183 159.841C400.063 159.841 401.983 163.521 401.983 166.401C401.983 169.441 400.063 173.121 393.183 173.121C386.383 173.121 384.383 169.441 384.383 166.401C384.383 163.521 386.383 159.841 393.183 159.841Z" fill="#677EFF"/>
<path d="M345.999 128.801L347.039 131.361C349.599 128.561 355.039 126.881 359.919 126.881C370.799 126.881 376.719 131.921 376.719 144.401V170.801C376.719 171.441 376.159 172.001 375.519 172.001H361.439C360.799 172.001 360.239 171.441 360.319 170.801V146.881C360.319 143.681 358.879 141.841 356.399 141.841C351.839 141.841 351.119 146.321 351.119 146.321V170.801C351.119 171.441 350.559 172.001 349.919 172.001H335.839C335.199 172.001 334.639 171.441 334.639 170.801V129.121C334.639 128.401 335.039 128.001 335.759 128.001H344.719C345.279 128.001 345.759 128.241 345.999 128.801Z" fill="#677EFF"/>
<path d="M323.139 157.601L326.579 167.521C326.739 168.081 326.579 168.401 326.019 168.721C321.779 171.521 315.619 173.201 309.459 173.201C295.299 173.201 285.859 163.921 285.859 150.081C285.859 136.161 295.139 126.881 309.059 126.881C322.339 126.881 330.179 135.441 330.179 150.001C330.179 151.201 330.099 152.401 329.859 153.601C329.779 154.241 329.379 154.561 328.659 154.561H302.979C302.979 154.561 302.979 159.601 309.699 159.601C313.779 159.601 318.339 158.641 321.939 156.961C322.499 156.721 322.979 157.041 323.139 157.601ZM302.899 146.161H314.259C314.259 142.641 312.099 140.321 308.899 140.321C305.299 140.321 302.899 142.641 302.899 146.161Z" fill="#677EFF"/>
<path d="M251.155 128.801L252.195 131.361C254.755 128.561 260.195 126.881 265.075 126.881C275.955 126.881 281.875 131.921 281.875 144.401V170.801C281.875 171.441 281.315 172.001 280.675 172.001H266.595C265.955 172.001 265.395 171.441 265.475 170.801V146.881C265.475 143.681 264.035 141.841 261.555 141.841C256.995 141.841 256.275 146.321 256.275 146.321V170.801C256.275 171.441 255.715 172.001 255.075 172.001H240.995C240.355 172.001 239.795 171.441 239.795 170.801V129.121C239.795 128.401 240.195 128.001 240.915 128.001H249.875C250.435 128.001 250.915 128.241 251.155 128.801Z" fill="#677EFF"/>
<path d="M203.811 128.801L204.851 131.361C207.411 128.561 212.851 126.881 217.731 126.881C228.611 126.881 234.531 131.921 234.531 144.401V170.801C234.531 171.441 233.971 172.001 233.331 172.001H219.251C218.611 172.001 218.051 171.441 218.131 170.801V146.881C218.131 143.681 216.691 141.841 214.211 141.841C209.651 141.841 208.931 146.321 208.931 146.321V170.801C208.931 171.441 208.371 172.001 207.731 172.001H193.651C193.011 172.001 192.451 171.441 192.451 170.801V129.121C192.451 128.401 192.851 128.001 193.571 128.001H202.531C203.091 128.001 203.571 128.241 203.811 128.801Z" fill="#677EFF"/>
<path d="M178.349 110.4C183.629 110.4 187.149 113.68 187.149 118.64C187.149 123.36 183.629 126.56 178.349 126.56C173.069 126.56 169.549 123.36 169.549 118.64C169.549 113.68 173.069 110.4 178.349 110.4ZM171.389 128H185.469C186.109 128 186.669 128.56 186.669 129.12V170.8C186.669 171.44 186.109 172 185.469 172H171.389C170.749 172 170.189 171.44 170.189 170.8V129.12C170.189 128.56 170.749 128 171.389 128Z" fill="#677EFF"/>
<path d="M147.79 168.561V166.241C146.51 168.801 142.67 170.481 138.19 170.481C126.51 170.481 118.75 162.081 118.75 149.441C118.75 135.281 125.95 126.881 138.19 126.881C144.35 126.881 149.23 128.561 151.31 131.441L152.75 129.201C153.23 128.481 153.95 128.001 154.59 128.001H163.07C163.79 128.001 164.27 128.481 164.27 129.201V167.921C164.27 180.001 153.31 188.081 139.71 188.081C131.79 188.081 124.75 186.241 120.83 183.041C120.35 182.641 120.19 182.081 120.35 181.681L124.43 171.761C124.67 171.201 125.15 170.961 125.63 171.281C129.07 174.081 134.35 175.761 139.71 175.761C144.75 175.761 147.79 173.121 147.79 168.561ZM147.79 153.521V145.441C147.79 145.441 146.59 141.841 142.27 141.841C138.27 141.841 135.95 144.641 135.95 149.441C135.95 154.241 138.27 157.121 142.27 157.121C146.59 157.121 147.79 153.521 147.79 153.521Z" fill="#677EFF"/>
<path d="M108.53 157.601L111.97 167.521C112.13 168.081 111.97 168.401 111.41 168.721C107.17 171.521 101.01 173.201 94.85 173.201C80.69 173.201 71.25 163.921 71.25 150.081C71.25 136.161 80.53 126.881 94.45 126.881C107.73 126.881 115.57 135.441 115.57 150.001C115.57 151.201 115.49 152.401 115.25 153.601C115.17 154.241 114.77 154.561 114.05 154.561H88.37C88.37 154.561 88.37 159.601 95.09 159.601C99.17 159.601 103.73 158.641 107.33 156.961C107.89 156.721 108.37 157.041 108.53 157.601ZM88.29 146.161H99.65C99.65 142.641 97.49 140.321 94.29 140.321C90.69 140.321 88.29 142.641 88.29 146.161Z" fill="#677EFF"/>
<path d="M37.1343 115.12V129.92C39.5343 128 43.1343 126.88 46.8943 126.88C59.5343 126.88 68.0143 136.16 68.0143 150C68.0143 163.92 59.5343 173.2 46.8943 173.2C41.5343 173.2 36.4143 171.12 33.3743 167.92L32.1743 170.8C31.8543 171.52 31.4543 172 30.8943 172H21.8543C21.2143 172 20.6543 171.44 20.6543 170.8V115.12C20.6543 114.56 21.2143 114 21.8543 114H35.9343C36.5743 114 37.1343 114.56 37.1343 115.12ZM37.1343 145.04V155.12C38.0943 157.76 40.6543 159.52 43.4543 159.52C47.8543 159.52 50.8143 155.68 50.8143 149.92C50.8143 144.32 47.8543 140.64 43.4543 140.64C40.6543 140.64 38.0943 142.4 37.1343 145.04Z" fill="#677EFF"/>
<path d="M339.827 32.8009L340.867 35.3609C343.427 32.5609 348.867 30.8809 353.747 30.8809C364.627 30.8809 370.547 35.9209 370.547 48.4009V74.8009C370.547 75.4409 369.987 76.0009 369.347 76.0009H355.267C354.627 76.0009 354.067 75.4409 354.147 74.8009V50.8809C354.147 47.6809 352.707 45.8409 350.227 45.8409C345.667 45.8409 344.947 50.3209 344.947 50.3209V74.8009C344.947 75.4409 344.387 76.0009 343.747 76.0009H329.667C329.027 76.0009 328.467 75.4409 328.467 74.8009V33.1209C328.467 32.4009 328.867 32.0009 329.587 32.0009H338.547C339.107 32.0009 339.587 32.2409 339.827 32.8009Z" fill="#677EFF"/>
<path d="M289.264 46.5609L284.704 36.9609C284.464 36.4009 284.624 35.8409 285.104 35.4409C289.664 32.5609 296.064 30.8809 302.464 30.8809C316.304 30.8809 322.704 38.1609 322.704 54.0809V74.8009C322.704 75.4409 322.144 76.0009 321.504 76.0009H311.424C310.784 76.0009 310.144 75.4409 310.144 74.8009L309.584 72.6409C306.944 75.4409 301.664 77.2009 295.824 77.2009C286.624 77.2009 280.544 71.2809 280.624 62.4809C280.704 54.6409 286.784 49.4409 295.824 49.4409C300.464 49.4409 304.624 51.1209 306.224 53.6809V50.3209C306.224 46.8809 303.744 44.6409 300.064 44.6409C296.944 44.6409 293.104 45.6809 290.464 47.2009C290.064 47.4409 289.584 47.1209 289.264 46.5609ZM306.224 63.3609V61.6009C304.864 60.2409 303.504 59.6009 301.824 59.6009C299.824 59.6009 298.464 60.7209 298.464 62.4809C298.464 64.2409 299.824 65.3609 301.824 65.3609C303.504 65.3609 304.864 64.7209 306.224 63.3609Z" fill="#677EFF"/>
<path d="M242.701 46.5609L238.141 36.9609C237.901 36.4009 238.061 35.8409 238.541 35.4409C243.101 32.5609 249.501 30.8809 255.901 30.8809C269.741 30.8809 276.141 38.1609 276.141 54.0809V74.8009C276.141 75.4409 275.581 76.0009 274.941 76.0009H264.861C264.221 76.0009 263.581 75.4409 263.581 74.8009L263.021 72.6409C260.381 75.4409 255.101 77.2009 249.261 77.2009C240.061 77.2009 233.981 71.2809 234.061 62.4809C234.141 54.6409 240.221 49.4409 249.261 49.4409C253.901 49.4409 258.061 51.1209 259.661 53.6809V50.3209C259.661 46.8809 257.181 44.6409 253.501 44.6409C250.381 44.6409 246.541 45.6809 243.901 47.2009C243.501 47.4409 243.021 47.1209 242.701 46.5609ZM259.661 63.3609V61.6009C258.301 60.2409 256.941 59.6009 255.261 59.6009C253.261 59.6009 251.901 60.7209 251.901 62.4809C251.901 64.2409 253.261 65.3609 255.261 65.3609C256.941 65.3609 258.301 64.7209 259.661 63.3609Z" fill="#677EFF"/>
<path d="M213.103 72.5609V70.2409C211.823 72.8009 207.983 74.4809 203.503 74.4809C191.823 74.4809 184.062 66.0809 184.062 53.4409C184.062 39.2809 191.263 30.8809 203.503 30.8809C209.663 30.8809 214.542 32.5609 216.622 35.4409L218.062 33.2009C218.543 32.4809 219.262 32.0009 219.902 32.0009H228.383C229.103 32.0009 229.582 32.4809 229.582 33.2009V71.9209C229.582 84.0009 218.622 92.0809 205.022 92.0809C197.102 92.0809 190.062 90.2409 186.142 87.0409C185.662 86.6409 185.502 86.0809 185.662 85.6809L189.742 75.7609C189.982 75.2009 190.463 74.9609 190.943 75.2809C194.383 78.0809 199.662 79.7609 205.022 79.7609C210.062 79.7609 213.103 77.1209 213.103 72.5609ZM213.103 57.5209V49.4409C213.103 49.4409 211.902 45.8409 207.582 45.8409C203.582 45.8409 201.262 48.6409 201.262 53.4409C201.262 58.2409 203.582 61.1209 207.582 61.1209C211.902 61.1209 213.103 57.5209 213.103 57.5209Z" fill="#677EFF"/>
<path d="M163.452 61.6009L166.892 71.5209C167.052 72.0809 166.892 72.4009 166.332 72.7209C162.092 75.5209 155.932 77.2009 149.772 77.2009C135.612 77.2009 126.172 67.9209 126.172 54.0809C126.172 40.1609 135.452 30.8809 149.372 30.8809C162.652 30.8809 170.492 39.4409 170.492 54.0009C170.492 55.2009 170.412 56.4009 170.172 57.6009C170.092 58.2409 169.692 58.5609 168.972 58.5609H143.292C143.292 58.5609 143.292 63.6009 150.012 63.6009C154.092 63.6009 158.652 62.6409 162.252 60.9609C162.812 60.7209 163.292 61.0409 163.452 61.6009ZM143.212 50.1609H154.572C154.572 46.6409 152.412 44.3209 149.212 44.3209C145.612 44.3209 143.212 46.6409 143.212 50.1609Z" fill="#677EFF"/>
<path d="M111.19 20.8008H129.11C129.91 20.8008 130.31 21.4408 130.07 22.1608L115.51 74.7208C115.27 75.4408 114.47 76.0008 113.75 76.0008H99.8304C99.1104 76.0008 98.1504 75.4408 97.9904 74.7208L90.7104 46.5608L83.4304 74.7208C83.2704 75.4408 82.3104 76.0008 81.5904 76.0008H67.6704C66.9504 76.0008 66.1504 75.4408 65.9104 74.7208L51.3504 22.1608C51.1104 21.4408 51.5104 20.8008 52.3104 20.8008H70.2304C71.0304 20.8008 71.9104 21.4408 72.0704 22.1608L76.6304 46.0808L82.7904 22.1608C83.0304 21.3608 83.9904 20.8008 84.9504 20.8008H96.4704C97.4304 20.8008 98.3904 21.3608 98.6304 22.1608L104.79 46.0808L109.35 22.1608C109.51 21.4408 110.39 20.8008 111.19 20.8008Z" fill="#677EFF"/>
<path fill-rule="evenodd" clip-rule="evenodd" d="M364.979 172.001C365.938 176.481 368.155 181.257 372.361 185.307C378.457 191.178 386.223 193.121 393.183 193.121C400.116 193.121 407.95 191.212 414.09 185.256C420.179 179.348 421.983 171.991 421.983 166.401C421.983 163.468 421.476 160.134 420.175 156.805L421.413 118.65C421.42 118.433 421.423 118.217 421.423 118.001C421.423 106.315 411.909 96.8008 400.223 96.8008H386.143C374.458 96.8008 364.943 106.315 364.943 118.001C364.943 118.204 364.946 118.406 364.953 118.609L365.219 127.366C372.67 128.887 376.679 134.074 376.719 144.245C376.72 144.297 376.72 144.349 376.72 144.401V170.801C376.72 171.441 376.16 172.001 375.52 172.001H364.979ZM389.129 178.561C391.385 179.804 393.138 179.841 393.183 179.841C393.306 179.841 395.05 179.786 397.273 178.561H389.129ZM400.143 157.441C400.143 158.001 399.583 158.561 398.943 158.561H387.343C386.703 158.561 386.143 158.001 386.143 157.441L384.943 118.001C384.943 117.813 384.992 117.632 385.076 117.47C385.279 117.08 385.691 116.801 386.143 116.801H400.223C400.688 116.801 401.111 117.096 401.307 117.503C401.381 117.656 401.423 117.826 401.423 118.001L400.143 157.441ZM398.943 161.129C397.601 160.346 395.733 159.841 393.183 159.841C390.591 159.841 388.696 160.376 387.343 161.197C385.149 162.531 384.383 164.619 384.383 166.401C384.383 168.282 385.149 170.408 387.343 171.755C388.696 172.586 390.591 173.121 393.183 173.121C395.733 173.121 397.601 172.615 398.943 171.825C401.223 170.481 401.983 168.314 401.983 166.401C401.983 164.588 401.223 162.458 398.943 161.129Z" fill="white"/>
<path fill-rule="evenodd" clip-rule="evenodd" d="M326.579 167.521L323.139 157.601C322.979 157.041 322.499 156.721 321.939 156.961C319.752 157.981 317.211 158.736 314.639 159.172V154.561H328.659C329.379 154.561 329.779 154.241 329.859 153.601C330.099 152.401 330.179 151.201 330.179 150.001C330.179 139.807 326.336 132.554 319.473 129.121C318.017 128.392 316.425 127.836 314.704 127.46C315.009 123.586 316.455 118.481 320.787 114.149C325.772 109.164 331.781 108.001 335.759 108.001H344.719C345.988 108.001 347.319 108.122 348.669 108.378C352.33 107.391 356.174 106.881 359.919 106.881C368.072 106.881 378.409 108.744 386.491 116.769C386.501 116.78 386.512 116.79 386.523 116.801H386.142C385.502 116.801 384.942 117.361 384.942 118.001L386.142 157.441C386.142 158.001 386.702 158.561 387.342 158.561H396.719V160.241C395.72 159.986 394.549 159.841 393.182 159.841C386.382 159.841 384.382 163.521 384.382 166.401C384.382 167.882 384.857 169.515 386.131 170.801C387.471 172.153 389.696 173.121 393.182 173.121C394.509 173.121 395.651 172.984 396.631 172.741C395.647 183.522 386.55 192.001 375.519 192.001H361.439C359.54 192.001 357.623 191.719 355.761 191.182C353.904 191.715 351.944 192.001 349.919 192.001H335.839C324.826 192.001 315.742 183.551 314.732 172.797C317.322 172.399 319.809 171.719 322.039 170.801C323.488 170.204 324.829 169.506 326.019 168.721C326.579 168.401 326.739 168.081 326.579 167.521ZM349.919 172.001C350.559 172.001 351.119 171.441 351.119 170.801V146.321C351.119 146.321 351.644 143.052 354.639 142.099C355.15 141.936 355.734 141.841 356.399 141.841C358.113 141.841 359.33 142.72 359.919 144.32C359.928 144.347 359.938 144.374 359.948 144.401C360.134 144.936 360.253 145.549 360.298 146.234C360.3 146.263 360.302 146.292 360.303 146.321C360.303 146.324 360.304 146.326 360.304 146.329C360.309 146.422 360.313 146.516 360.315 146.612C360.318 146.7 360.319 146.79 360.319 146.881V170.801C360.239 171.441 360.799 172.001 361.439 172.001H375.519C376.159 172.001 376.719 171.441 376.719 170.801V144.401C376.719 131.921 370.799 126.881 359.919 126.881C359.228 126.881 358.525 126.915 357.821 126.98C357.347 127.025 356.872 127.084 356.399 127.157C354.136 127.506 351.927 128.179 350.1 129.121C348.875 129.752 347.822 130.504 347.039 131.361L345.999 128.801C345.759 128.241 345.279 128.001 344.719 128.001H335.759C335.039 128.001 334.639 128.401 334.639 129.121V170.801C334.639 171.441 335.199 172.001 335.839 172.001H349.919ZM380.319 170.134V170.801C380.319 171.63 380.267 172.459 380.164 173.282C380.27 172.435 380.323 171.608 380.327 170.801C380.328 170.577 380.325 170.355 380.319 170.134Z" fill="white"/>
<path fill-rule="evenodd" clip-rule="evenodd" d="M271.379 172.001C273.226 175.297 275.544 178.363 278.346 181.111C286.746 189.348 297.937 193.201 309.459 193.201C318.594 193.201 328.587 190.847 336.629 185.678C338.577 184.476 342.276 181.771 344.644 176.773C345.422 175.13 345.927 173.525 346.234 172.001H335.839C335.199 172.001 334.639 171.441 334.639 170.801V129.121C334.639 128.401 335.039 128.001 335.759 128.001H344.719C344.93 128.001 345.129 128.035 345.308 128.107C343.759 125.054 341.797 122.152 339.361 119.487C331.232 110.595 320.152 106.881 309.059 106.881C297.554 106.881 286.413 110.803 278.097 119.119C275.502 121.713 273.335 124.583 271.582 127.653C278.294 129.487 281.875 134.693 281.875 144.401V170.801C281.875 171.441 281.315 172.001 280.675 172.001H271.379ZM323.139 157.601C322.979 157.041 322.499 156.721 321.939 156.961C321.257 157.279 320.541 157.572 319.8 157.837C319.539 157.93 319.275 158.019 319.009 158.106C317.485 158.6 315.875 158.98 314.259 159.233C314.148 159.251 314.037 159.268 313.925 159.284C312.499 159.492 311.072 159.601 309.699 159.601C309.618 159.601 309.538 159.6 309.459 159.599C309.267 159.595 309.08 159.587 308.899 159.576C308.778 159.568 308.659 159.558 308.543 159.547C302.979 159.005 302.979 154.561 302.979 154.561H328.659C329.379 154.561 329.779 154.241 329.859 153.601C330.099 152.401 330.179 151.201 330.179 150.001C330.179 148.67 330.114 147.389 329.985 146.161C329.75 143.926 329.304 141.864 328.659 139.986C328.371 139.147 328.043 138.345 327.677 137.581C327.193 136.574 326.643 135.632 326.027 134.758C325.98 134.692 325.933 134.626 325.886 134.561C323.172 130.816 319.235 128.353 314.259 127.367C312.634 127.045 310.899 126.881 309.059 126.881C309.006 126.881 308.952 126.881 308.899 126.881C306.786 126.892 304.78 127.118 302.899 127.541C294.775 129.371 288.969 134.897 286.798 142.803C286.503 143.88 286.275 145 286.117 146.161C285.947 147.421 285.859 148.729 285.859 150.081C285.859 151.634 285.978 153.129 286.209 154.561C286.209 154.563 286.21 154.565 286.21 154.568C286.435 155.956 286.765 157.284 287.194 158.546C289.629 165.698 295.26 170.717 302.979 172.493C304.372 172.813 305.833 173.028 307.356 173.131C308.045 173.177 308.746 173.201 309.459 173.201C309.539 173.201 309.619 173.201 309.699 173.2C309.874 173.199 310.049 173.196 310.224 173.192C310.466 173.187 310.707 173.179 310.947 173.168C316.6 172.923 322.121 171.295 326.019 168.721C326.429 168.486 326.625 168.252 326.637 167.923C326.642 167.803 326.622 167.671 326.579 167.521L323.139 157.601ZM302.899 146.161H314.259C314.259 144.769 313.921 143.564 313.315 142.617C312.52 141.374 311.262 140.574 309.699 140.371C309.491 140.344 309.278 140.328 309.059 140.323C309.006 140.322 308.953 140.321 308.899 140.321C305.682 140.321 303.423 142.174 302.979 145.08C302.926 145.426 302.899 145.787 302.899 146.161Z" fill="white"/>
<path fill-rule="evenodd" clip-rule="evenodd" d="M219.828 172.001C220.453 183.131 229.712 192.001 240.995 192.001H255.075C257.1 192.001 259.06 191.715 260.917 191.182C262.779 191.719 264.695 192.001 266.595 192.001H280.675C291.89 192.001 301.106 183.237 301.829 172.2C300.507 171.83 299.252 171.362 298.07 170.801C290.465 167.192 285.858 159.749 285.858 150.081C285.858 148.088 286.048 146.19 286.415 144.401C287.947 136.929 292.56 131.353 299.261 128.666C297.683 124.439 295.258 120.355 291.647 116.769C283.565 108.744 273.228 106.881 265.075 106.881C261.33 106.881 257.486 107.391 253.825 108.378C252.474 108.122 251.144 108.001 249.875 108.001H240.915C236.936 108.001 230.927 109.164 225.942 114.149C221.797 118.294 220.294 123.148 219.906 126.953C223.016 127.168 225.659 127.868 227.806 129.121C230.358 130.61 232.211 132.881 233.317 136.047C233.357 136.162 233.397 136.278 233.435 136.395C233.674 137.129 233.874 137.91 234.036 138.738C234.07 138.912 234.102 139.088 234.132 139.266C234.187 139.588 234.237 139.918 234.28 140.254C234.447 141.534 234.531 142.914 234.531 144.401V170.801C234.531 171.441 233.971 172.001 233.331 172.001H219.828ZM239.795 170.801C239.795 171.441 240.355 172.001 240.995 172.001H255.075C255.715 172.001 256.275 171.441 256.275 170.801V146.321C256.275 146.321 256.8 143.052 259.795 142.099C260.306 141.936 260.889 141.841 261.555 141.841C263.269 141.841 264.486 142.72 265.075 144.32C265.084 144.347 265.094 144.374 265.103 144.401C265.29 144.936 265.409 145.549 265.454 146.234C265.456 146.263 265.457 146.292 265.459 146.321C265.459 146.324 265.459 146.326 265.46 146.329C265.465 146.422 265.469 146.516 265.471 146.612C265.473 146.7 265.475 146.79 265.475 146.881V170.801C265.395 171.441 265.955 172.001 266.595 172.001H280.675C281.315 172.001 281.875 171.441 281.875 170.801V144.401C281.875 131.921 275.955 126.881 265.075 126.881C264.383 126.881 263.681 126.915 262.977 126.98C262.503 127.025 262.027 127.084 261.555 127.157C259.292 127.506 257.083 128.179 255.256 129.121C254.031 129.752 252.978 130.504 252.195 131.361L251.155 128.801C250.915 128.241 250.435 128.001 249.875 128.001H240.915C240.195 128.001 239.795 128.401 239.795 129.121V170.801ZM285.475 170.134V170.801C285.475 171.63 285.423 172.459 285.32 173.282C285.426 172.435 285.479 171.608 285.483 170.801C285.484 170.577 285.481 170.355 285.475 170.134Z" fill="white"/>
<path fill-rule="evenodd" clip-rule="evenodd" d="M172.841 125.048C172.641 126.092 172.529 127.086 172.48 128.001H185.468C186.108 128.001 186.668 128.561 186.668 129.121V170.801C186.668 171.441 186.108 172.001 185.468 172.001H172.484C173.109 183.131 182.367 192.001 193.65 192.001H207.73C209.756 192.001 211.716 191.715 213.572 191.182C215.435 191.719 217.351 192.001 219.25 192.001H233.33C244.613 192.001 253.872 183.131 254.497 172.001H240.994C240.354 172.001 239.794 171.441 239.794 170.801V129.121C239.794 128.401 240.194 128.001 240.914 128.001H249.874C250.434 128.001 250.914 128.241 251.154 128.801L252.194 131.361C252.342 131.199 252.499 131.041 252.666 130.887C251.147 125.878 248.543 120.98 244.302 116.769C236.221 108.744 225.884 106.881 217.73 106.881C213.986 106.881 210.142 107.391 206.481 108.378C205.13 108.122 203.8 108.001 202.53 108.001H193.57C190.559 108.001 186.384 108.667 182.37 111.153C185.34 112.393 187.148 115.085 187.148 118.641C187.148 123.361 183.628 126.561 178.348 126.561C176.173 126.561 174.296 126.018 172.841 125.048ZM193.57 128.001C192.85 128.001 192.45 128.401 192.45 129.121V170.801C192.45 171.441 193.01 172.001 193.65 172.001H207.73C208.37 172.001 208.93 171.441 208.93 170.801V146.321C208.93 146.321 209.456 143.052 212.45 142.099C212.962 141.936 213.545 141.841 214.21 141.841C215.925 141.841 217.142 142.72 217.73 144.32C217.74 144.347 217.75 144.374 217.759 144.401C217.946 144.936 218.065 145.549 218.11 146.234C218.112 146.263 218.113 146.292 218.115 146.321C218.115 146.324 218.115 146.326 218.115 146.329C218.121 146.422 218.124 146.516 218.127 146.612C218.129 146.7 218.13 146.79 218.13 146.881V170.801C218.05 171.441 218.61 172.001 219.25 172.001H233.33C233.97 172.001 234.53 171.441 234.53 170.801V144.401C234.53 131.921 228.61 126.881 217.73 126.881C217.039 126.881 216.337 126.915 215.633 126.98C215.159 127.025 214.683 127.084 214.21 127.157C211.948 127.506 209.739 128.179 207.911 129.121C206.687 129.752 205.634 130.504 204.85 131.361L203.81 128.801C203.57 128.241 203.09 128.001 202.53 128.001H193.57ZM238.13 170.134V170.801C238.13 171.63 238.079 172.459 237.976 173.282C238.082 172.435 238.135 171.608 238.138 170.801C238.139 170.577 238.137 170.355 238.13 170.134Z" fill="white"/>
<path fill-rule="evenodd" clip-rule="evenodd" d="M154.876 184.079C158.766 188.906 164.724 192 171.389 192H185.469C196.752 192 206.011 183.13 206.635 172H193.651C193.011 172 192.451 171.44 192.451 170.8V129.12C192.451 128.4 192.851 128 193.571 128H202.531C203.091 128 203.571 128.24 203.811 128.8L204.851 131.36C205.354 130.81 205.969 130.303 206.669 129.843V129.12C206.669 127.825 206.552 126.588 206.342 125.411C206.88 123.198 207.149 120.923 207.149 118.64C207.149 111.218 204.388 103.662 198.389 98.0519C192.515 92.5595 185.129 90.4004 178.349 90.4004C171.569 90.4004 164.183 92.5595 158.309 98.0519C152.31 103.662 149.549 111.218 149.549 118.64C149.549 121.054 149.849 123.459 150.452 125.791C150.282 126.854 150.189 127.964 150.189 129.12V130.227C150.622 130.603 150.997 131.008 151.309 131.44L152.749 129.2C152.767 129.173 152.785 129.147 152.804 129.12C153.283 128.445 153.973 128 154.589 128H163.069C163.762 128 164.232 128.445 164.267 129.12C164.268 129.147 164.269 129.173 164.269 129.2V167.92C164.269 168.908 164.196 169.869 164.054 170.8C163.191 176.463 159.792 181.056 154.876 184.079ZM170.189 170.8C170.189 171.44 170.749 172 171.389 172H185.469C186.109 172 186.669 171.44 186.669 170.8V129.12C186.669 128.56 186.109 128 185.469 128H171.389C170.749 128 170.189 128.56 170.189 129.12V170.8ZM173.409 108H183.289C181.244 106.815 179.372 106.56 178.349 106.56C177.326 106.56 175.454 106.815 173.409 108ZM185.469 113.464C183.938 111.529 181.446 110.4 178.349 110.4C175.357 110.4 172.93 111.454 171.389 113.269C170.21 114.657 169.549 116.491 169.549 118.64C169.549 120.686 170.21 122.446 171.389 123.784C172.93 125.533 175.357 126.56 178.349 126.56C181.446 126.56 183.938 125.459 185.469 123.596C186.547 122.283 187.149 120.591 187.149 118.64C187.149 116.59 186.547 114.827 185.469 113.464Z" fill="white"/>
<path fill-rule="evenodd" clip-rule="evenodd" d="M108.529 157.601C108.369 157.041 107.889 156.721 107.329 156.961C105.063 158.019 102.416 158.791 99.7474 159.218C99.4239 157.68 99.1812 156.125 99.0162 154.561H114.049C114.733 154.561 115.128 154.273 115.235 153.696C115.24 153.665 115.245 153.634 115.249 153.601C115.489 152.401 115.569 151.201 115.569 150.001C115.569 149.813 115.568 149.627 115.565 149.441C115.415 138.735 110.952 131.361 103.16 128.371C104.595 125.354 106.426 122.47 108.719 119.806C116.434 110.84 127.205 106.881 138.189 106.881C142.145 106.881 146.291 107.317 150.329 108.413C151.662 108.149 153.082 108.001 154.589 108.001H163.069C166.662 108.001 170.649 108.925 174.28 111.173C171.339 112.422 169.549 115.104 169.549 118.641C169.549 123.361 173.069 126.561 178.349 126.561C180.527 126.561 182.405 126.016 183.861 125.046C184.058 126.043 184.18 127.033 184.235 128.001H171.389C170.749 128.001 170.189 128.561 170.189 129.121V170.801C170.189 171.441 170.749 172.001 171.389 172.001H184.079C181.766 196.385 158.798 208.081 139.709 208.081C129.796 208.081 117.276 205.958 108.182 198.534C108.129 198.491 108.077 198.448 108.026 198.405C102.856 194.098 97.5434 184.844 101.78 174.253C101.804 174.193 101.828 174.133 101.853 174.073L102.569 172.33C103.253 172.174 103.925 171.998 104.583 171.803C107.137 171.044 109.473 169.999 111.409 168.721C111.969 168.401 112.129 168.081 111.969 167.521L108.529 157.601ZM164.269 129.201C164.269 128.481 163.789 128.001 163.069 128.001H154.589C153.949 128.001 153.229 128.481 152.749 129.201L151.309 131.441C150.69 130.584 149.823 129.833 148.748 129.201C147.909 128.708 146.944 128.287 145.872 127.945C144.776 127.596 143.569 127.328 142.269 127.149C140.992 126.972 139.625 126.881 138.189 126.881C125.949 126.881 118.749 135.281 118.749 149.441C118.749 150.36 118.79 151.256 118.871 152.128C119.521 159.178 122.754 164.661 127.789 167.733C127.801 167.74 127.812 167.747 127.823 167.754C127.861 167.777 127.898 167.799 127.936 167.821C128.05 167.89 128.165 167.957 128.281 168.022C128.617 168.212 128.96 168.392 129.31 168.561C130.115 168.949 130.958 169.281 131.838 169.555C131.899 169.574 131.96 169.593 132.021 169.611C133.35 170.011 134.761 170.277 136.244 170.401C136.88 170.454 137.528 170.481 138.189 170.481C138.705 170.481 139.213 170.459 139.709 170.415C140.606 170.337 141.465 170.19 142.269 169.981C143.539 169.652 144.673 169.169 145.603 168.561C145.909 168.361 146.193 168.147 146.452 167.921C147.027 167.419 147.482 166.855 147.789 166.241V168.561C147.789 172.286 145.76 174.73 142.269 175.5C141.487 175.672 140.632 175.761 139.709 175.761C139.547 175.761 139.385 175.759 139.223 175.756C138.878 175.75 138.533 175.736 138.189 175.716C134.853 175.52 131.614 174.686 128.903 173.352C128.864 173.333 128.825 173.314 128.786 173.294C127.837 172.82 126.955 172.284 126.158 171.692C125.977 171.558 125.801 171.421 125.629 171.281C125.149 170.961 124.669 171.201 124.429 171.761L120.349 181.681C120.189 182.081 120.349 182.641 120.829 183.041C124.033 185.656 129.32 187.363 135.469 187.899C135.602 187.911 135.736 187.922 135.87 187.933C135.915 187.936 135.96 187.94 136.005 187.943C136.722 187.997 137.451 188.036 138.189 188.058C138.557 188.069 138.928 188.076 139.3 188.079C139.315 188.079 139.329 188.079 139.343 188.08C139.465 188.08 139.587 188.081 139.709 188.081C150.883 188.081 160.275 182.627 163.27 173.981C163.856 172.291 164.197 170.478 164.259 168.561C164.266 168.349 164.269 168.135 164.269 167.921V129.201ZM138.418 155.884C138.807 156.194 139.238 156.449 139.709 156.645C140.462 156.958 141.318 157.121 142.269 157.121C143.029 157.121 143.692 157.01 144.269 156.826C146.974 155.966 147.789 153.521 147.789 153.521V145.441C147.789 145.441 146.974 142.996 144.269 142.136C143.692 141.952 143.029 141.841 142.269 141.841C140.602 141.841 139.226 142.327 138.189 143.242C137.629 143.737 137.167 144.356 136.812 145.092C136.798 145.12 136.785 145.148 136.772 145.176C136.731 145.263 136.692 145.351 136.655 145.441C136.197 146.535 135.955 147.86 135.949 149.39C135.949 149.407 135.949 149.424 135.949 149.441C135.949 149.485 135.949 149.528 135.95 149.572C135.951 149.754 135.956 149.933 135.965 150.109C135.98 150.434 136.007 150.75 136.045 151.055C136.158 151.971 136.372 152.796 136.68 153.521C137.012 154.303 137.453 154.968 137.996 155.507C138.059 155.569 138.124 155.63 138.189 155.689C138.264 155.756 138.34 155.821 138.418 155.884ZM98.8398 146.161C98.8931 145.207 98.9703 144.252 99.0734 143.296C99.4466 144.117 99.6493 145.083 99.6493 146.161H98.8398Z" fill="white"/>
<path fill-rule="evenodd" clip-rule="evenodd" d="M56.3193 171.177C58.2347 174.786 60.7018 178.135 63.7357 181.111C72.1358 189.348 83.3266 193.201 94.8488 193.201C103.984 193.201 113.977 190.847 122.018 185.678C122.421 185.43 122.898 185.117 123.423 184.734C122.487 184.24 121.644 183.696 120.908 183.105C120.881 183.083 120.855 183.062 120.829 183.041C120.533 182.794 120.359 182.487 120.306 182.194C120.273 182.011 120.287 181.834 120.349 181.681L124.429 171.761C124.658 171.226 125.107 170.983 125.565 171.242C125.586 171.254 125.608 171.267 125.629 171.281C127.129 172.502 128.979 173.51 131.033 174.258C131.562 172.625 131.844 171.055 131.961 169.593C130.947 169.285 129.98 168.899 129.065 168.44C126.969 167.39 125.143 165.955 123.633 164.188C123.478 164.007 123.327 163.822 123.179 163.634C121.231 161.159 119.868 158.089 119.206 154.55C119.196 154.496 119.186 154.441 119.176 154.386C119.158 154.286 119.14 154.186 119.123 154.085C119.115 154.035 119.107 153.985 119.099 153.935C118.987 153.241 118.901 152.53 118.842 151.802C118.795 151.212 118.765 150.612 118.754 150.001C118.751 149.815 118.749 149.628 118.749 149.441C118.749 148.31 118.795 147.217 118.885 146.161C118.995 144.886 119.17 143.667 119.408 142.505C119.529 141.916 119.666 141.341 119.819 140.781C121.541 134.499 125.291 130.135 130.709 128.129C129.159 125.068 127.193 122.158 124.75 119.487C116.622 110.595 105.542 106.881 94.4488 106.881C82.9439 106.881 71.8023 110.803 63.4867 119.119C60.5465 122.059 58.1555 125.352 56.293 128.89C63.5585 132.333 68.0138 139.969 68.0138 150.001C68.0138 150.028 68.0138 150.054 68.0137 150.081C67.9903 160.119 63.55 167.733 56.3193 171.177ZM108.529 157.601C108.369 157.041 107.889 156.721 107.329 156.961C106.647 157.279 105.93 157.572 105.189 157.837C104.929 157.93 104.665 158.019 104.399 158.106C102.875 158.6 101.265 158.98 99.6488 159.233C99.5375 159.251 99.4262 159.268 99.3149 159.284C97.8884 159.492 96.4615 159.601 95.0888 159.601C95.0078 159.601 94.9279 159.6 94.8488 159.599C94.6565 159.595 94.4699 159.587 94.2888 159.576C94.1677 159.568 94.0491 159.558 93.9328 159.547C88.3688 159.005 88.3688 154.561 88.3688 154.561H114.049C114.769 154.561 115.169 154.241 115.249 153.601C115.489 152.401 115.569 151.201 115.569 150.001C115.569 148.67 115.503 147.389 115.374 146.161C115.139 143.926 114.694 141.864 114.049 139.986C113.761 139.147 113.433 138.345 113.066 137.581C112.583 136.574 112.032 135.632 111.417 134.758C111.37 134.692 111.323 134.626 111.275 134.561C108.562 130.816 104.625 128.353 99.6488 127.367C98.0242 127.045 96.2887 126.881 94.4488 126.881C94.3954 126.881 94.3421 126.881 94.2888 126.881C92.1754 126.892 90.17 127.118 88.2888 127.541C80.1647 129.371 74.3584 134.897 72.188 142.803C71.8926 143.88 71.6645 145 71.5071 146.161C71.3363 147.421 71.2488 148.729 71.2488 150.081C71.2488 151.634 71.3677 153.129 71.5987 154.561C71.5991 154.563 71.5995 154.565 71.5998 154.568C71.8243 155.956 72.1543 157.284 72.5838 158.546C75.0185 165.698 80.6498 170.717 88.3688 172.493C89.762 172.813 91.2232 173.028 92.7458 173.131C93.4344 173.177 94.1357 173.201 94.8488 173.201C94.9288 173.201 95.0088 173.201 95.0888 173.2C95.2639 173.199 95.4391 173.196 95.6141 173.192C95.8553 173.187 96.0963 173.179 96.3371 173.168C101.989 172.923 107.511 171.295 111.409 168.721C111.819 168.486 112.015 168.252 112.027 167.923C112.032 167.803 112.012 167.671 111.969 167.521L108.529 157.601ZM88.2888 146.161H99.6488C99.6488 144.769 99.311 143.564 98.7046 142.617C97.9092 141.374 96.6519 140.574 95.0888 140.371C94.8808 140.344 94.6673 140.328 94.4488 140.323C94.3958 140.322 94.3425 140.321 94.2888 140.321C91.0717 140.321 88.8129 142.174 88.3688 145.08C88.316 145.426 88.2888 145.786 88.2888 146.161Z" fill="white"/>
<path fill-rule="evenodd" clip-rule="evenodd" d="M37.1343 115.12C37.1343 114.56 36.5743 114 35.9343 114H21.8543C21.2143 114 20.6543 114.56 20.6543 115.12V170.8C20.6543 171.44 21.2143 172 21.8543 172H30.8943C31.4543 172 31.8543 171.52 32.1743 170.8L33.3743 167.92C34.4263 169.027 35.7274 170.001 37.2014 170.8C39.0615 171.809 41.1969 172.541 43.4543 172.915C44.2888 173.054 45.14 173.144 46.0001 173.181C46.2972 173.194 46.5954 173.2 46.8943 173.2C59.5343 173.2 68.0143 163.92 68.0143 150C68.0143 149.973 68.0143 149.947 68.0142 149.92C67.9915 140.32 63.8825 132.924 57.1343 129.313C54.1849 127.735 50.7312 126.88 46.8943 126.88C45.7215 126.88 44.5644 126.989 43.4543 127.197C42.4773 127.38 41.5368 127.641 40.6543 127.971C39.3248 128.469 38.1269 129.126 37.1343 129.92V115.12ZM35.3956 191.55C34.009 191.838 32.5107 192 30.8943 192H21.8543C10.1686 192 0.654297 182.486 0.654297 170.8V115.12C0.654297 108.266 3.91157 103.026 7.2048 99.8829C10.6124 96.6302 15.6986 94 21.8543 94H35.9343C42.09 94 47.1762 96.6302 50.5838 99.8829C52.5774 101.786 54.5578 104.457 55.8104 107.789C63.8677 109.473 71.2279 113.486 76.9601 119.76C79.5964 122.646 81.7289 125.831 83.3915 129.216C75.8544 132.795 71.2743 140.255 71.2494 150C71.2494 150.027 71.2493 150.053 71.2493 150.08C71.2493 159.731 75.8399 167.165 83.4203 170.781C81.7578 174.185 79.6219 177.389 76.9766 180.292C69.1798 188.847 58.3681 193.2 46.8943 193.2C43.0918 193.2 39.1845 192.656 35.3956 191.55ZM37.1343 155.12C37.7575 156.834 39.0548 158.177 40.6543 158.908C41.1808 159.149 41.74 159.323 42.3187 159.423C42.6903 159.487 43.0701 159.52 43.4543 159.52C44.7356 159.52 45.8948 159.194 46.8943 158.591C48.1423 157.837 49.1413 156.649 49.8185 155.12C50.4371 153.723 50.787 152.042 50.8128 150.146C50.8134 150.102 50.8138 150.058 50.814 150.014C50.8141 150.01 50.8141 150.005 50.8141 150C50.8142 149.973 50.8143 149.947 50.8143 149.92C50.8143 148.06 50.4878 146.412 49.8904 145.04C49.2129 143.484 48.1872 142.284 46.8943 141.533C46.6452 141.388 46.3861 141.26 46.1177 141.149C45.3093 140.816 44.4162 140.64 43.4543 140.64C42.4718 140.64 41.5189 140.857 40.6543 141.252C39.0548 141.983 37.7575 143.326 37.1343 145.04V155.12ZM47.9625 151.182L45.556 152.058C44.8832 151.541 44.181 151.07 43.4543 150.646C43.0092 150.386 42.5548 150.144 42.0924 149.92C41.7919 149.774 41.488 149.637 41.181 149.506C41.9485 149.348 42.7077 149.144 43.4543 148.896C44.1503 148.664 44.8354 148.393 45.5061 148.084L47.9754 148.982C47.9981 149.264 48.0122 149.576 48.0141 149.92C48.0142 149.946 48.0143 149.973 48.0143 150C48.0143 150.444 47.9948 150.837 47.9625 151.182Z" fill="white"/>
<path fill-rule="evenodd" clip-rule="evenodd" d="M342.498 12.3777C341.147 12.1222 339.816 12.0009 338.547 12.0009H329.587C325.609 12.0009 319.6 13.1637 314.615 18.1487C310.288 22.4749 308.841 27.5723 308.534 31.4442C310.341 31.8157 311.969 32.3729 313.42 33.1209C319.72 36.3674 322.704 43.2097 322.704 54.0809V74.8009C322.704 75.4409 322.144 76.0009 321.504 76.0009H311.424C310.784 76.0009 310.144 75.4409 310.144 74.8009L309.584 72.6409C309.252 72.9931 308.878 73.3289 308.467 73.6467V74.8009C308.467 86.4866 317.981 96.0009 329.667 96.0009H343.747C345.772 96.0009 347.732 95.7151 349.589 95.1817C351.452 95.7193 353.368 96.0009 355.267 96.0009H369.347C381.032 96.0009 390.547 86.4866 390.547 74.8009V48.4009C390.547 39.3555 388.417 28.8104 380.319 20.7688C372.237 12.7444 361.9 10.8809 353.747 10.8809C350.002 10.8809 346.158 11.3912 342.498 12.3777ZM343.747 76.0009C344.387 76.0009 344.947 75.4409 344.947 74.8009V50.3209C344.947 50.3209 345.472 47.0525 348.467 46.099C348.978 45.9362 349.562 45.8409 350.227 45.8409C351.941 45.8409 353.159 46.7201 353.747 48.32C353.757 48.3468 353.766 48.3737 353.776 48.4009C353.963 48.9359 354.081 49.5488 354.126 50.234C354.128 50.2629 354.13 50.2918 354.131 50.3209C354.132 50.3236 354.132 50.3263 354.132 50.3291C354.137 50.422 354.141 50.5162 354.143 50.6118C354.146 50.7004 354.147 50.7901 354.147 50.8809V74.8009C354.067 75.4409 354.627 76.0009 355.267 76.0009H369.347C369.987 76.0009 370.547 75.4409 370.547 74.8009V48.4009C370.547 35.9209 364.627 30.8809 353.747 30.8809C353.056 30.8809 352.353 30.9146 351.65 30.9804C351.175 31.0247 350.7 31.0837 350.227 31.1568C347.964 31.5064 345.755 32.1788 343.928 33.1209C342.703 33.7519 341.65 34.5039 340.867 35.3609L339.827 32.8009C339.587 32.2409 339.107 32.0009 338.547 32.0009H329.587C328.867 32.0009 328.467 32.4009 328.467 33.1209V74.8009C328.467 75.4409 329.027 76.0009 329.667 76.0009H343.747ZM374.147 74.1339V74.8009C374.147 75.6302 374.095 76.4587 373.992 77.2816C374.098 76.4353 374.151 75.608 374.155 74.8009C374.156 74.577 374.153 74.3547 374.147 74.1339Z" fill="white"/>
<path fill-rule="evenodd" clip-rule="evenodd" d="M264.996 32.3017C265.992 27.4262 268.679 23.0939 272.3 20.0764C272.973 19.5153 273.683 18.9991 274.424 18.5311C282.738 13.2801 293.002 10.8809 302.464 10.8809C312.757 10.8809 324.37 13.6663 332.832 23.3492C335.192 26.049 337.021 28.9679 338.425 32.0009H329.586C328.866 32.0009 328.466 32.4009 328.466 33.1209V74.8009C328.466 75.4409 329.026 76.0009 329.666 76.0009H342.67C342.045 87.1309 332.787 96.0009 321.504 96.0009H311.424C310.151 96.0009 308.922 95.8882 307.744 95.6806C303.553 96.7841 299.409 97.2009 295.824 97.2009C286.892 97.2009 277.79 94.2585 270.819 87.4972C266.652 83.4558 263.817 78.5982 262.215 73.3969C262.505 73.1543 262.775 72.9021 263.021 72.6409L263.581 74.8009C263.581 75.4409 264.221 76.0009 264.861 76.0009H274.941C275.581 76.0009 276.141 75.4409 276.141 74.8009V54.0809C276.141 54.0737 276.141 54.0666 276.141 54.0594C276.141 53.6337 276.136 53.2142 276.127 52.8008C276.03 48.5101 275.437 44.8828 274.327 41.8899C274.275 41.7506 274.222 41.6126 274.168 41.476C273.602 40.0426 272.912 38.7603 272.095 37.6256C270.329 35.1717 267.972 33.4085 264.996 32.3017ZM296.487 31.3637C296.265 31.3997 296.044 31.4376 295.824 31.4775C291.81 32.2036 288.068 33.5687 285.104 35.4409C284.624 35.8409 284.464 36.4009 284.704 36.9609L289.264 46.5609C289.584 47.1209 290.064 47.4409 290.464 47.2009C290.95 46.9208 291.477 46.6569 292.033 46.4129C292.569 46.178 293.13 45.9615 293.708 45.7664C294.397 45.534 295.108 45.332 295.824 45.1659C297.269 44.8304 298.732 44.6409 300.064 44.6409C300.687 44.6409 301.276 44.7051 301.824 44.8285C302.044 44.878 302.257 44.9371 302.464 45.0054C302.484 45.0122 302.505 45.0191 302.525 45.026C302.871 45.1444 303.198 45.289 303.503 45.4581C305.204 46.403 306.224 48.1153 306.224 50.3209V53.6809C306.08 53.4516 305.917 53.2294 305.734 53.0148C305.019 52.1767 304.015 51.455 302.809 50.884C302.716 50.8402 302.622 50.7972 302.527 50.7552C302.506 50.7458 302.485 50.7365 302.464 50.7272C302.256 50.6365 302.042 50.55 301.824 50.468C301.688 50.4172 301.551 50.3682 301.412 50.3209C300.979 50.1735 300.529 50.0432 300.064 49.931C299.746 49.8544 299.421 49.7862 299.091 49.7269C298.35 49.5939 297.58 49.5053 296.791 49.4653C296.471 49.4491 296.149 49.4409 295.824 49.4409C295.199 49.4409 294.588 49.4657 293.992 49.5146C293.5 49.5549 293.018 49.6117 292.547 49.6844C292.366 49.7124 292.186 49.7427 292.008 49.7753C291.989 49.7788 291.971 49.7823 291.952 49.7858C291.21 49.9242 290.497 50.1032 289.815 50.3209C288.537 50.7288 287.369 51.2723 286.325 51.9383C286.291 51.96 286.257 51.9819 286.224 52.0038C282.734 54.2754 280.67 57.9342 280.624 62.4809C280.616 63.3541 280.668 64.1989 280.779 65.0125C281.534 70.5806 284.992 74.6812 290.2 76.3618C291.037 76.632 291.92 76.8397 292.844 76.9808C293.133 77.025 293.427 77.0627 293.725 77.0938C294.404 77.1647 295.104 77.2009 295.824 77.2009C297.929 77.2009 299.961 76.9721 301.824 76.5484C303.626 76.1384 305.269 75.5457 306.664 74.8009C307.379 74.4192 308.029 73.9976 308.602 73.5401C308.96 73.2541 309.288 72.954 309.584 72.6409L310.144 74.8009C310.144 75.4409 310.784 76.0009 311.424 76.0009H321.504C321.586 76.0009 321.666 75.9917 321.745 75.9743C322.278 75.856 322.704 75.3589 322.704 74.8009V54.0809C322.704 53.9469 322.703 53.8136 322.702 53.6809C322.694 52.5138 322.651 51.394 322.573 50.3209C322.566 50.2308 322.559 50.1411 322.552 50.0517C322.379 47.8676 322.056 45.8795 321.581 44.0827C320.925 41.6054 319.978 39.4916 318.732 37.7289C316.213 34.1684 312.469 32.0405 307.422 31.2426C306.332 31.0705 305.183 30.9603 303.971 30.9109C303.9 30.908 303.828 30.9053 303.756 30.9028C303.332 30.8882 302.902 30.8809 302.464 30.8809C302.121 30.8809 301.778 30.8857 301.435 30.8953C300.977 30.908 300.52 30.9293 300.064 30.9589C299.493 30.9959 298.925 31.0459 298.359 31.1085C297.731 31.1781 297.106 31.2633 296.487 31.3637ZM302.704 65.2979C303.994 65.1065 305.109 64.4755 306.224 63.3609V61.6009C305.109 60.4862 303.994 59.8552 302.704 59.6638C302.636 59.6539 302.569 59.6451 302.5 59.6375C302.28 59.613 302.055 59.6009 301.824 59.6009C301.157 59.6009 300.561 59.7253 300.064 59.9564C299.956 60.0065 299.852 60.0617 299.754 60.1216C299.347 60.3692 299.024 60.6992 298.802 61.0988C298.745 61.202 298.695 61.3098 298.652 61.4221C298.629 61.4805 298.609 61.5401 298.59 61.6009C298.535 61.7807 298.497 61.9707 298.478 62.1701C298.469 62.2713 298.464 62.3749 298.464 62.4809C298.464 62.5356 298.465 62.5896 298.468 62.6431C298.468 62.6497 298.468 62.6563 298.469 62.6629C298.482 62.9097 298.523 63.1428 298.59 63.3609C298.745 63.8691 299.039 64.2958 299.444 64.6227C299.561 64.7168 299.687 64.8026 299.821 64.8798C299.919 64.9361 300.022 64.9877 300.129 65.0346C300.613 65.2469 301.186 65.3609 301.824 65.3609C301.837 65.3609 301.849 65.3608 301.862 65.3607C302.08 65.3595 302.292 65.3474 302.5 65.3242C302.569 65.3167 302.636 65.3079 302.704 65.2979ZM280.635 29.782C280.579 29.8136 280.524 29.8456 280.468 29.8779C280.473 29.8747 280.479 29.8716 280.484 29.8684C280.535 29.8395 280.585 29.8107 280.635 29.782Z" fill="white"/>
<path fill-rule="evenodd" clip-rule="evenodd" d="M218.33 32.8512C219.231 27.7522 221.982 23.2069 225.738 20.0764C226.412 19.5153 227.121 18.9991 227.862 18.5311C236.176 13.2801 246.441 10.8809 255.902 10.8809C266.196 10.8809 277.808 13.6663 286.271 23.3492C288.728 26.1604 290.609 29.2093 292.036 32.3771C289.474 33.1388 287.111 34.1737 285.105 35.4409C284.625 35.8409 284.465 36.4009 284.705 36.9609L289.265 46.5609C289.585 47.1209 290.065 47.4409 290.465 47.2009C291.914 46.3662 293.726 45.6763 295.581 45.2238C295.772 46.6399 295.907 48.0491 295.997 49.4416C295.94 49.4411 295.882 49.4409 295.825 49.4409C290.645 49.4409 286.437 51.148 283.773 54.0809C281.787 56.2666 280.659 59.133 280.625 62.4809C280.623 62.7079 280.625 62.933 280.631 63.1561C280.646 63.7339 280.689 64.2985 280.758 64.849C280.892 65.9088 281.122 66.9163 281.443 67.8651C281.689 68.5916 281.988 69.2837 282.337 69.9384C282.623 70.4736 282.942 70.9839 283.294 71.4676C283.297 71.4729 283.301 71.4782 283.305 71.4835C284.261 72.796 285.454 73.9124 286.852 74.8009C289.28 76.3452 292.327 77.2009 295.825 77.2009C295.886 77.2009 295.946 77.2007 296.007 77.2003C294.811 87.7614 285.817 96.0009 274.942 96.0009H264.862C263.589 96.0009 262.361 95.8882 261.183 95.6806C256.991 96.7841 252.848 97.2009 249.262 97.2009C240.331 97.2009 231.228 94.2585 224.258 87.4972C223.792 87.0459 223.343 86.5843 222.911 86.1132C227.051 82.6083 229.582 77.7265 229.582 71.9209V33.2009C229.582 32.4809 229.102 32.0009 228.382 32.0009H219.902C219.372 32.0009 218.788 32.3297 218.33 32.8512ZM249.926 31.3637C249.704 31.3997 249.483 31.4376 249.262 31.4775C245.248 32.2036 241.506 33.5687 238.542 35.4409C238.062 35.8409 237.902 36.4009 238.142 36.9609L242.702 46.5609C243.022 47.1209 243.502 47.4409 243.902 47.2009C244.389 46.9208 244.916 46.6569 245.472 46.4129C246.007 46.178 246.569 45.9615 247.147 45.7664C247.835 45.534 248.547 45.332 249.262 45.1659C250.707 44.8304 252.17 44.6409 253.502 44.6409C254.125 44.6409 254.714 44.7051 255.262 44.8285C255.482 44.878 255.696 44.9371 255.902 45.0054C255.923 45.0122 255.943 45.0191 255.964 45.026C256.31 45.1444 256.636 45.289 256.941 45.4581C258.643 46.403 259.662 48.1153 259.662 50.3209V53.6809C259.519 53.4516 259.355 53.2294 259.172 53.0148C258.458 52.1767 257.453 51.455 256.247 50.884C256.155 50.8402 256.061 50.7972 255.966 50.7552C255.945 50.7458 255.923 50.7365 255.902 50.7272C255.694 50.6365 255.481 50.55 255.262 50.468C255.127 50.4172 254.99 50.3682 254.851 50.3209C254.418 50.1735 253.967 50.0432 253.502 49.931C253.184 49.8544 252.86 49.7862 252.529 49.7269C251.788 49.5939 251.018 49.5053 250.229 49.4653C249.91 49.4491 249.587 49.4409 249.262 49.4409C248.637 49.4409 248.026 49.4657 247.431 49.5146C246.939 49.5549 246.457 49.6117 245.986 49.6844C245.804 49.7124 245.625 49.7427 245.447 49.7753C245.428 49.7788 245.409 49.7823 245.39 49.7858C244.649 49.9242 243.936 50.1032 243.254 50.3209C241.976 50.7288 240.807 51.2723 239.764 51.9383C239.73 51.96 239.696 51.9819 239.662 52.0038C236.173 54.2754 234.109 57.9342 234.062 62.4809C234.054 63.3541 234.107 64.1989 234.217 65.0125C234.973 70.5806 238.431 74.6812 243.639 76.3618C244.476 76.632 245.359 76.8397 246.282 76.9808C246.572 77.025 246.866 77.0627 247.163 77.0938C247.843 77.1647 248.543 77.2009 249.262 77.2009C251.367 77.2009 253.4 76.9721 255.262 76.5484C257.065 76.1384 258.707 75.5457 260.103 74.8009C260.818 74.4192 261.467 73.9976 262.04 73.5401C262.399 73.2541 262.727 72.954 263.022 72.6409L263.582 74.8009C263.582 75.4409 264.222 76.0009 264.862 76.0009H274.942C275.024 76.0009 275.105 75.9917 275.183 75.9743C275.716 75.856 276.142 75.3589 276.142 74.8009V54.0809C276.142 53.9469 276.142 53.8136 276.141 53.6809C276.133 52.5138 276.09 51.394 276.011 50.3209C276.005 50.2308 275.998 50.1411 275.991 50.0517C275.817 47.8676 275.495 45.8795 275.019 44.0827C274.363 41.6054 273.417 39.4916 272.17 37.7289C269.652 34.1684 265.908 32.0405 260.86 31.2426C259.771 31.0705 258.621 30.9603 257.41 30.9109C257.338 30.908 257.266 30.9053 257.194 30.9028C256.771 30.8882 256.34 30.8809 255.902 30.8809C255.559 30.8809 255.216 30.8857 254.874 30.8953C254.416 30.908 253.958 30.9293 253.502 30.9589C252.932 30.9959 252.363 31.0459 251.798 31.1085C251.169 31.1781 250.545 31.2633 249.926 31.3637ZM256.142 65.2979C257.433 65.1065 258.548 64.4755 259.662 63.3609V61.6009C258.548 60.4862 257.433 59.8552 256.142 59.6638C256.075 59.6539 256.007 59.6451 255.939 59.6375C255.719 59.613 255.493 59.6009 255.262 59.6009C254.595 59.6009 254 59.7253 253.502 59.9564C253.394 60.0065 253.291 60.0617 253.192 60.1216C252.786 60.3692 252.462 60.6992 252.241 61.0988C252.184 61.202 252.133 61.3098 252.09 61.4221C252.068 61.4805 252.047 61.5401 252.029 61.6009C251.974 61.7807 251.936 61.9707 251.917 62.1701C251.907 62.2713 251.902 62.3749 251.902 62.4809C251.902 62.5356 251.903 62.5896 251.906 62.6431C251.906 62.6497 251.907 62.6563 251.907 62.6629C251.921 62.9097 251.962 63.1428 252.029 63.3609C252.184 63.8691 252.478 64.2958 252.883 64.6227C252.999 64.7168 253.125 64.8026 253.259 64.8798C253.358 64.9361 253.46 64.9877 253.567 65.0346C254.051 65.2469 254.624 65.3609 255.262 65.3609C255.275 65.3609 255.288 65.3608 255.301 65.3607C255.519 65.3595 255.731 65.3474 255.939 65.3242C256.007 65.3167 256.075 65.3079 256.142 65.2979ZM234.074 29.782C234.018 29.8136 233.962 29.8456 233.906 29.8779C233.912 29.8747 233.917 29.8716 233.923 29.8684C233.973 29.8395 234.023 29.8107 234.074 29.782Z" fill="white"/>
<path fill-rule="evenodd" clip-rule="evenodd" d="M228.582 77.9812C229.168 76.2908 229.509 74.4784 229.571 72.5609C229.578 72.3488 229.581 72.1355 229.581 71.9209V33.2009C229.581 32.4809 229.101 32.0009 228.381 32.0009H219.901C219.261 32.0009 218.541 32.4809 218.061 33.2009L216.621 35.4409C216.002 34.5837 215.135 33.8328 214.06 33.2009C213.221 32.708 212.256 32.2874 211.184 31.9453C210.088 31.5959 208.881 31.3282 207.581 31.1487C206.304 30.9722 204.937 30.8809 203.501 30.8809C191.261 30.8809 184.061 39.2809 184.061 53.4409C184.061 54.3595 184.102 55.2558 184.183 56.1281C184.833 63.1784 188.066 68.6613 193.101 71.7332C193.112 71.7401 193.124 71.747 193.135 71.7539C193.172 71.7765 193.21 71.7991 193.247 71.8215C193.362 71.8897 193.477 71.9567 193.593 72.0225C193.929 72.2124 194.272 72.3919 194.622 72.5609C195.427 72.9491 196.27 73.2815 197.15 73.5553C197.211 73.5742 197.271 73.5928 197.333 73.6112C198.662 74.0106 200.073 74.277 201.556 74.4009C202.192 74.454 202.84 74.4809 203.501 74.4809C204.017 74.4809 204.525 74.4586 205.021 74.4152C205.918 74.3368 206.777 74.1897 207.581 73.981C208.851 73.6516 209.985 73.1687 210.914 72.5609C211.221 72.3607 211.504 72.1471 211.764 71.9209C212.339 71.4189 212.794 70.8552 213.101 70.2409V72.5609C213.101 76.2863 211.072 78.7302 207.581 79.5C206.799 79.6724 205.944 79.7609 205.021 79.7609C204.859 79.7609 204.697 79.7593 204.535 79.7563C204.19 79.7497 203.845 79.7363 203.501 79.7161C200.165 79.5199 196.926 78.6862 194.215 77.3523C194.176 77.333 194.137 77.3136 194.098 77.2941C193.149 76.8196 192.267 76.2833 191.469 75.6914C191.289 75.5574 191.113 75.4205 190.941 75.2809C190.461 74.9609 189.981 75.2009 189.741 75.7609L185.661 85.6809C185.501 86.0809 185.661 86.6409 186.141 87.0409C189.345 89.6561 194.632 91.3629 200.781 91.8994C200.914 91.9111 201.048 91.9221 201.182 91.9327C201.227 91.9362 201.272 91.9397 201.317 91.9431C202.034 91.9973 202.763 92.0358 203.501 92.0581C203.869 92.0692 204.24 92.0762 204.612 92.0792C204.626 92.0793 204.641 92.0795 204.655 92.0796C204.777 92.0804 204.899 92.0809 205.021 92.0809C216.195 92.0809 225.586 86.6267 228.582 77.9812ZM209.581 60.826C212.286 59.9661 213.101 57.5209 213.101 57.5209V49.4409C213.101 49.4409 212.286 46.9956 209.581 46.1357C209.004 45.9522 208.341 45.8409 207.581 45.8409C205.914 45.8409 204.538 46.3274 203.501 47.2425C202.941 47.7369 202.479 48.3564 202.124 49.092C202.11 49.1199 202.097 49.1481 202.083 49.1763C202.043 49.263 202.004 49.3511 201.966 49.4409C201.509 50.5352 201.266 51.8602 201.261 53.3898C201.261 53.4068 201.261 53.4238 201.261 53.4409C201.261 53.4847 201.261 53.5285 201.262 53.572C201.263 53.754 201.268 53.9332 201.277 54.1094C201.292 54.4344 201.319 54.7496 201.357 55.0547C201.47 55.9705 201.684 56.7956 201.992 57.5209C202.324 58.3026 202.765 58.9683 203.308 59.5068C203.371 59.5693 203.435 59.6301 203.501 59.6892C203.576 59.7562 203.652 59.821 203.73 59.8835C204.119 60.1942 204.549 60.4491 205.021 60.6452C205.774 60.958 206.63 61.1209 207.581 61.1209C208.341 61.1209 209.004 61.0095 209.581 60.826ZM168.863 73.9449C166.36 69.1395 164.892 63.9008 164.328 58.5609H168.971C169.691 58.5609 170.091 58.2409 170.171 57.6009C170.411 56.4009 170.491 55.2009 170.491 54.0009C170.491 53.8132 170.489 53.6265 170.487 53.4409C170.4 47.2839 168.888 42.2291 166.135 38.4764C167.697 33.2435 170.23 28.2235 174.031 23.806C181.745 14.8405 192.517 10.8809 203.501 10.8809C207.457 10.8809 211.603 11.3174 215.641 12.4132C216.974 12.1488 218.394 12.0009 219.901 12.0009H228.381C233.286 12.0009 238.928 13.7231 243.393 18.1887C247.331 22.1264 249.136 26.9786 249.507 31.4338C247.243 31.8276 245.062 32.4244 243.053 33.2009C241.419 33.8328 239.898 34.5837 238.541 35.4409C238.061 35.8409 237.901 36.4009 238.141 36.9609L242.701 46.5609C243.021 47.1209 243.501 47.4409 243.901 47.2009C245.497 46.2819 247.532 45.5383 249.581 45.094V49.4435C249.475 49.4418 249.368 49.4409 249.261 49.4409C240.221 49.4409 234.141 54.6409 234.061 62.4809C234.027 66.2279 235.11 69.4528 237.075 71.9209C239.724 75.2486 243.978 77.2004 249.259 77.2009C246.319 100.768 223.794 112.081 205.021 112.081C195.107 112.081 182.588 109.958 173.494 102.534C173.461 102.508 173.429 102.482 173.397 102.455C173.377 102.439 173.357 102.422 173.337 102.405C168.168 98.0977 162.855 88.844 167.092 78.253C167.116 78.193 167.14 78.1331 167.165 78.0734L168.863 73.9449Z" fill="white"/>
<path fill-rule="evenodd" clip-rule="evenodd" d="M150.537 77.1923C150.362 77.1962 150.187 77.1988 150.012 77.2C149.932 77.2006 149.852 77.2009 149.772 77.2009C149.059 77.2009 148.357 77.1773 147.669 77.1308C146.146 77.0281 144.685 76.8132 143.292 76.4926C135.573 74.7166 129.941 69.698 127.507 62.5457C127.077 61.2841 126.747 59.9561 126.523 58.5678C126.522 58.5655 126.522 58.5632 126.522 58.5609C126.291 57.1294 126.172 55.6338 126.172 54.0809C126.172 52.729 126.259 51.4209 126.43 50.1609C126.587 48.9998 126.815 47.8796 127.111 46.8034C129.281 38.8975 135.088 33.3708 143.212 31.5412C145.093 31.1175 147.098 30.8921 149.212 30.8813C149.265 30.881 149.318 30.8809 149.372 30.8809C151.212 30.8809 152.947 31.0452 154.572 31.367C159.548 32.3526 163.484 34.8158 166.198 38.5609C166.246 38.6263 166.293 38.6921 166.339 38.7583C166.955 39.6321 167.506 40.5738 167.989 41.5811C168.356 42.3454 168.684 43.1475 168.972 43.9862C169.617 45.8643 170.062 47.9265 170.297 50.1609C170.426 51.3894 170.492 52.6701 170.492 54.0009C170.492 55.2009 170.412 56.4009 170.172 57.6009C170.092 58.2409 169.692 58.5609 168.972 58.5609H143.292C143.292 58.5609 143.292 63.0049 148.856 63.5469C148.972 63.5582 149.091 63.5679 149.212 63.5757C149.393 63.5874 149.579 63.5952 149.772 63.5987C149.851 63.6001 149.931 63.6009 150.012 63.6009C151.384 63.6009 152.811 63.4922 154.238 63.284C154.349 63.2678 154.46 63.2509 154.572 63.2335C156.188 62.98 157.798 62.5997 159.322 62.1057C159.588 62.0194 159.852 61.9297 160.112 61.8365C160.853 61.5716 161.57 61.2791 162.252 60.9609C162.812 60.7209 163.292 61.0409 163.452 61.6009L166.892 71.5209C166.934 71.6706 166.954 71.8032 166.95 71.9233C166.937 72.252 166.742 72.4865 166.332 72.7209C162.433 75.2952 156.912 76.9228 151.26 77.1684C151.019 77.1789 150.778 77.1868 150.537 77.1923ZM176.942 89.678C168.9 94.8473 158.907 97.2009 149.772 97.2009C138.249 97.2009 127.059 93.348 118.659 85.1106C115.857 82.3631 113.538 79.2965 111.691 76.0009H113.752C114.472 76.0009 115.272 75.4409 115.512 74.7209L130.072 22.1609C130.312 21.4409 129.912 20.8009 129.112 20.8009H120.932C128.912 14.0723 138.994 10.8809 149.372 10.8809C160.464 10.8809 171.545 14.5949 179.673 23.4866C183.691 27.8816 186.419 32.9195 188.13 38.219C185.481 42.0038 184.062 47.1547 184.062 53.4409C184.062 53.6285 184.064 53.8151 184.067 54.0009C184.102 55.9113 184.317 57.7215 184.698 59.4167C184.785 59.805 184.881 60.1874 184.985 60.5635C185.647 62.9488 186.653 65.084 187.961 66.9236C187.611 67.6318 187.21 68.3413 186.754 69.0435C187.169 72.0983 187.078 76.2946 184.956 80.7726C182.589 85.7705 178.891 88.4753 176.942 89.678ZM153.627 46.6169C152.832 45.3742 151.575 44.5736 150.012 44.3714C149.804 44.3445 149.59 44.3282 149.372 44.3228C149.319 44.3215 149.265 44.3209 149.212 44.3209C145.995 44.3209 143.736 46.1736 143.292 49.0798C143.239 49.4257 143.212 49.7865 143.212 50.1609H154.572C154.572 48.7688 154.234 47.5643 153.627 46.6169Z" fill="white"/>
<path fill-rule="evenodd" clip-rule="evenodd" d="M110.157 21.1245C109.756 21.3791 109.441 21.7574 109.351 22.1608L104.791 46.0808L98.6309 22.1608C98.3909 21.3608 97.4309 20.8008 96.4709 20.8008H84.9509C83.9909 20.8008 83.0309 21.3608 82.7909 22.1608L76.6309 46.0808L72.0709 22.1608C71.9813 21.7574 71.6657 21.3791 71.2647 21.1245C70.95 20.9246 70.5827 20.8008 70.2309 20.8008H52.3109C51.5109 20.8008 51.1109 21.4408 51.3509 22.1608L65.9109 74.7208C66.1509 75.4408 66.9509 76.0008 67.6709 76.0008H81.5909C82.3109 76.0008 83.2709 75.4408 83.4309 74.7208L90.7109 46.5608L97.9909 74.7208C98.1509 75.4408 99.1109 76.0008 99.8309 76.0008H113.751C114.471 76.0008 115.271 75.4408 115.511 74.7208L130.071 22.1608C130.311 21.4408 129.911 20.8008 129.111 20.8008H111.191C110.839 20.8008 110.472 20.9246 110.157 21.1245ZM103.907 2.06085C106.067 1.29186 108.512 0.800781 111.191 0.800781H129.111C135.091 0.800781 142.076 3.43007 146.519 9.96461C150.567 15.9164 150.763 22.5465 149.308 27.6349L148.404 30.8959C135.023 31.3163 126.171 40.4855 126.171 54.0808C126.171 62.9314 130.031 69.9172 136.518 73.8038L134.785 80.06C134.693 80.391 134.593 80.7196 134.485 81.0454C132.796 86.1097 129.553 89.6647 126.484 91.8711C123.446 94.0541 119.07 96.0008 113.751 96.0008H99.8309C96.3492 96.0008 93.2618 95.1636 90.7109 93.998C88.1601 95.1636 85.0727 96.0008 81.5909 96.0008H67.6709C62.3521 96.0008 57.9755 94.0541 54.9382 91.8711C51.8684 89.6647 48.6254 86.1097 46.9373 81.0453C46.8287 80.7196 46.7285 80.391 46.6368 80.06L32.1144 27.6358C30.6589 22.5472 30.855 15.9167 34.9024 9.96459C39.3459 3.43007 46.3304 0.800781 52.3109 0.800781H70.2309C72.91 0.800781 75.3548 1.29186 77.5146 2.06084C79.8831 1.23562 82.3977 0.800781 84.9509 0.800781H96.4709C99.0242 0.800781 101.539 1.23562 103.907 2.06085ZM143.235 49.5555L143.872 47.2568C143.524 47.9301 143.305 48.7024 143.235 49.5555Z" fill="white"/>
</svg>
