<svg width="61" height="47" viewBox="0 0 61 47" fill="none" xmlns="http://www.w3.org/2000/svg">
<g clip-path="url(#clip0_690_20)">
<path d="M52.4712 26.3006C49.7094 17.2783 44.1808 6.34187 40.9914 0.158203C43.9608 0.371262 46.3066 0.702041 48.8525 1.38765C48.8805 7.50333 52.0073 17.9756 52.4712 26.3006Z" fill="#26B4B3"/>
<path d="M0.0271897 31.2816V27.5768C1.28121 28.1811 2.83514 28.783 4.52667 28.783C6.32778 28.783 7.11795 28.1803 7.11795 27.1913C7.11795 25.8748 5.94548 25.8474 3.32703 24.6942C1.60914 23.9539 0 22.6375 0 19.7831C0 16.3252 2.59126 14.7344 6.13663 14.7344C8.01848 14.7344 9.54606 15.1455 10.5002 15.502V19.124C9.62762 18.7128 8.04483 18.1906 6.46374 18.1906C4.90898 18.1906 4.2004 18.7128 4.2004 19.6181C4.2004 20.6063 5.12732 20.9636 6.70925 21.539C9.30055 22.4725 11.5647 23.488 11.5647 26.9997C11.5647 30.4841 8.83664 32.2682 5.2921 32.2682C3.0815 32.2698 1.38997 31.886 0.0271897 31.2816Z" fill="#181818"/>
<path d="M41.1799 26.282V18.621C33.9154 13.855 26.0913 8.87505 19.9704 4.44141C17.506 6.69719 15.7139 10.5314 14.9172 14.9675H19.1703V26.2928C20.3914 26.2911 21.8019 26.2895 23.3427 26.2878V14.9675H29.5345C35.7791 14.9675 38.0696 19.0845 38.0696 23.5023C38.0696 24.4283 37.951 25.38 37.7071 26.2803C38.8763 26.2803 40.0372 26.2803 41.1799 26.282Z" fill="#0863AA"/>
<path d="M48.0837 26.2876C47.0793 26.2859 46.0304 26.2842 44.9429 26.2826V32.0617H41.1799V26.2809C40.0363 26.2793 38.8755 26.2793 37.7071 26.2793C36.8634 29.4014 34.4271 32.0617 29.4522 32.0617H23.3427V26.2876C21.8019 26.2892 20.3914 26.2909 19.1703 26.2925V32.0617H14.9172C15.8845 38.5074 18.4181 42.9003 24.4698 44.9166C32.3466 39.2692 42.1703 34.9599 49.6491 28.8202L48.0837 26.2876Z" fill="#E85523"/>
<path d="M49.6492 28.8203C42.1712 34.9601 32.3466 39.2694 24.4698 44.9166C26.5767 45.6909 28.8548 46.1751 31.4428 46.505C37.254 41.2391 44.596 36.2558 50.0842 29.525L49.6492 28.8203Z" fill="#E57E37"/>
<path d="M52.0098 32.0611H51.6539L50.0843 29.5234C44.5961 36.2543 37.254 41.2383 31.4429 46.5035C38.3705 47.3258 45.0369 47.2454 50.5119 45.3379C49.9928 40.9698 51.2798 36.8976 52.0098 32.0611Z" fill="#642480"/>
<path d="M54.3201 32.0625H52.0098C51.2798 36.899 49.9928 40.9712 50.5119 45.3401C53.4772 44.2765 55.3459 42.95 57.03 40.5733C55.3896 37.3243 54.9496 34.7825 54.3201 32.0625Z" fill="#32A9CC"/>
<path d="M56.2085 31.3809V32.0607H54.3201C54.9504 34.7807 55.3895 37.3233 57.03 40.5714C57.9305 39.2955 58.696 37.6565 59.2431 35.9587C57.8308 34.0785 57.0102 32.6957 56.2085 31.3809Z" fill="white"/>
<path d="M60.9371 19.8457C58.9077 20.814 57.7781 22.55 56.2085 24.0431V31.3808C57.0111 32.6956 57.8317 34.0784 59.243 35.9578C60.7879 31.0864 61.1703 25.7708 60.9371 19.8457Z" fill="#078E38"/>
<path d="M60.7764 17.4395C58.7767 18.8952 57.6726 21.059 56.2085 23.003V24.0451C57.7781 22.5512 58.9077 20.8152 60.9371 19.8477C60.8983 18.9657 60.8547 18.2925 60.7764 17.4395Z" fill="white"/>
<path d="M60.1798 13.373C58.3573 15.4265 57.3546 18.067 56.2085 20.5979V23.0021C57.6726 21.058 58.7767 18.8943 60.7764 17.4385C60.6446 16.0176 60.4518 14.658 60.1798 13.373Z" fill="#E85523"/>
<path d="M56.2085 20.5967C57.3546 18.0657 58.3574 15.4253 60.1799 13.3718C60.1255 13.1139 60.1445 13.2019 60.0868 12.9473C59.3881 9.89569 58.3574 7.60259 56.581 5.66602C55.3418 8.31975 54.8318 11.5935 54.4264 14.966H56.2085V20.2601V20.5967Z" fill="#1F3460"/>
<path d="M54.4263 14.9657C54.8317 11.5941 55.3418 8.31941 56.5809 5.66573C55.8444 4.85992 55.0048 4.16437 54.0473 3.5625C53.0619 6.69039 53.0059 10.7642 53.0067 14.9657H54.4263Z" fill="#54B171"/>
<path d="M52.6994 14.9671C52.5832 10.604 52.5107 6.38094 53.3956 3.1751C53.1954 3.06318 53.2646 3.09884 53.0594 2.99023C52.2289 6.23088 52.3706 10.5277 52.547 14.9663L52.6994 14.9671Z" fill="#1F3460"/>
<path d="M52.4439 14.9665H52.5461C52.3698 10.528 52.2281 6.23111 53.0586 2.99046C52.6483 2.77409 52.0781 2.50797 51.6299 2.32227C50.7986 7.2226 52.1078 14.6756 52.4439 21.4752V14.9665Z" fill="#54B171"/>
<path d="M52.4441 23.6388V21.4759C52.1079 14.6771 50.7986 7.22417 51.63 2.32298C50.7352 1.95241 49.8627 1.66142 48.8525 1.38867C48.8805 7.50353 52.0074 17.9758 52.4712 26.3008C52.4176 25.5323 52.4441 24.3526 52.4441 23.6388Z" fill="#0863AA"/>
<path d="M52.4712 26.3002C49.7094 17.278 44.1808 6.34149 40.9914 0.157788C38.92 0.0102215 37.1164 -0.0320592 35.0491 0.0234854C40.2753 6.11017 47.2408 16.1248 51.7436 24.8594C52.0254 25.3824 52.2833 25.8907 52.4712 26.3002Z" fill="#E57E37"/>
<path d="M35.0492 0.0234375C34.7542 0.0333858 34.3645 0.0458213 34.0712 0.0590857C37.5836 3.93062 41.7774 9.32757 45.5955 14.9658H45.6803L46.8149 16.7954L46.8157 16.7962L50.4987 22.737C50.502 22.742 50.5044 22.747 50.5078 22.7519L50.9708 23.4997C51.2279 23.925 51.4957 24.3967 51.7437 24.8584C47.2409 16.1247 40.2754 6.10929 35.0492 0.0234375Z" fill="#642480"/>
<path d="M45.5963 14.9672C41.7774 9.32819 37.5835 3.93125 34.072 0.0605469C33.4878 0.0862464 33.1994 0.102826 32.6251 0.145107C36.4309 4.05063 40.9048 9.39537 44.9907 14.968H45.5963V14.9672Z" fill="#32A9CC"/>
<path d="M44.9899 14.9675C40.904 9.39476 36.4301 4.05005 32.6244 0.144531C31.475 0.227434 30.4566 0.338522 29.3798 0.505156C33.7565 4.46622 38.8047 9.62857 43.4681 14.9675H44.9899Z" fill="#078E38"/>
<path d="M41.18 14.9662H43.4672C38.8054 9.6273 33.7564 4.46497 29.3797 0.503906C27.5003 0.794894 26.0081 1.1522 24.4419 1.74744C29.5568 5.83203 35.5509 10.7266 41.18 15.6667V14.9662Z" fill="white"/>
<path d="M41.18 15.6673C35.5509 10.7272 29.5568 5.83264 24.4419 1.74805C23.3246 2.17251 22.3112 2.6865 21.3967 3.30827C27.2466 7.69796 34.4634 12.7334 41.1809 17.6445V15.6673H41.18Z" fill="#E85523"/>
<path d="M41.18 17.6449C34.4634 12.7338 27.2457 7.69826 21.3966 3.30859C21.2137 3.43294 21.2746 3.3915 21.0967 3.51917C27.0059 7.92461 34.3488 12.9567 41.18 17.8455V17.6449Z" fill="#1F3460"/>
<path d="M53.0068 14.9659C53.0059 10.7644 53.0611 6.69136 54.0473 3.56264C53.8579 3.4416 53.5959 3.28574 53.3956 3.17383C52.5107 6.37884 52.584 10.6027 52.6994 14.9659H53.0068Z" fill="white"/>
<path d="M48.0837 26.287L46.3617 23.4999C45.9019 22.7695 45.368 21.8774 45.003 21.1454C44.9569 21.0534 44.9025 20.9531 44.863 20.8652C44.8654 20.9266 44.8662 20.9937 44.8712 21.0567C44.8992 21.7862 44.9437 22.6294 44.9437 23.3614V26.2812C46.0305 26.2837 47.0802 26.2854 48.0837 26.287Z" fill="#0863AA"/>
<path d="M41.18 17.8459C34.3489 12.9571 27.006 7.92494 21.0959 3.51953C20.7375 3.77819 20.2893 4.1471 19.9704 4.44224C26.0914 8.87585 33.9154 13.855 41.18 18.6218V17.8459Z" fill="#54B171"/>
<path d="M33.187 26.2812C31.2722 26.2812 29.3895 26.2829 27.5983 26.2846V28.5495H29.0435C31.4123 28.5495 32.621 27.6607 33.187 26.2812Z" fill="#E85523"/>
<path d="M29.2075 18.4238H27.5983V26.2838C29.3895 26.2821 31.2722 26.2805 33.187 26.2805C33.5083 25.4987 33.6262 24.542 33.6262 23.5008C33.6262 20.5917 32.7792 18.4238 29.2075 18.4238Z" fill="#0863AA"/>
<path d="M41.1801 17.6445V15.6673V14.9668H43.4672H44.9899H45.5955H45.6812L46.8116 16.7906L50.4995 22.7389C50.502 22.743 50.5053 22.748 50.5078 22.753L50.9708 23.5007C51.2279 23.9261 51.4957 24.3978 51.7436 24.8595C52.0254 25.3826 52.2833 25.8909 52.4712 26.3004C52.4185 25.531 52.4448 24.3522 52.4448 23.6384V21.4755V14.9668H52.547H52.7002H53.0076H54.4272H56.2093V20.2609V20.5975V23.0017V24.0437V31.3815V32.0613H54.3201H52.0098H51.6538L50.0842 29.5236L49.6492 28.819L48.0846 26.2863L46.3625 23.4991C45.9028 22.7687 45.3689 21.8767 45.0039 21.1447C44.9578 21.0527 44.9042 20.9523 44.8638 20.8645C44.8663 20.9258 44.8671 20.993 44.8721 21.056C44.9001 21.7855 44.9446 22.6286 44.9446 23.3607V26.2804V32.0596H41.1817V26.2788V18.6178V17.8419V17.6445H41.1801Z" fill="white"/>
<path d="M19.1703 14.9668H14.9172V32.0612H19.1703V14.9668Z" fill="white"/>
<path d="M29.5354 14.9668H23.3436V26.288V32.0621H29.4531C34.4271 32.0621 36.8635 29.4018 37.708 26.2796C37.9527 25.3793 38.0705 24.4276 38.0705 23.5016C38.0705 19.0837 35.78 14.9668 29.5354 14.9668ZM33.1871 26.2813C32.6202 27.6608 31.4124 28.5495 29.0435 28.5495H27.5984V26.2846V18.4247H29.2076C32.7793 18.4247 33.6263 20.5926 33.6263 23.5016C33.6263 24.5428 33.5084 25.4996 33.1871 26.2813Z" fill="white"/>
</g>
<defs>
<clipPath id="clip0_690_20">
<rect width="61" height="47" fill="white"/>
</clipPath>
</defs>
</svg>
