<svg width="193" height="29" viewBox="0 0 193 29" fill="none" xmlns="http://www.w3.org/2000/svg">
<path d="M193 13.9456V11.1853H190.102V9.04437L186.453 7.89648V11.1853H184.52V13.9456H186.453V18.5725C186.453 22.2787 188.04 23.8221 191.718 23.8221H193V20.5215H192.165C190.716 20.5215 190.132 19.791 190.102 18.357V13.9473H193V13.9456Z" fill="#181818"/>
<path d="M179.786 16.3822L177.64 15.8419C176.916 15.6517 176.36 15.3555 176.36 14.7597C176.36 14.11 177.029 13.6505 177.864 13.6505C178.699 13.6505 179.451 14.11 179.451 14.9768H182.935C182.962 11.9741 180.176 10.8633 177.808 10.8633C174.8 10.8633 172.71 12.7029 172.71 14.652C172.71 15.9783 173.155 17.791 176.498 18.6561L178.226 19.0617C179.202 19.3058 179.647 19.5751 179.647 20.117C179.647 20.8475 178.84 21.3608 177.781 21.3608C176.498 21.3608 175.859 20.5765 175.859 19.846H172.433C172.46 22.6333 175.107 24.1481 177.838 24.1481C180.569 24.1481 183.299 22.7679 183.299 20.117C183.299 19.0886 182.909 17.1951 179.788 16.3839L179.786 16.3822Z" fill="#181818"/>
<path d="M166.331 12.8642C165.468 11.5649 163.795 10.8613 162.125 10.8613C158.392 10.8613 155.773 13.5947 155.773 17.518C155.773 21.4414 158.447 24.1478 162.041 24.1478C163.797 24.1478 165.468 23.3096 166.332 22.0103V23.823H169.982V11.1879H166.332V12.8659H166.331V12.8642ZM162.847 20.8439C160.925 20.8439 159.504 19.2752 159.504 17.5163C159.504 15.7575 160.925 14.1619 162.82 14.1619C164.714 14.1619 166.218 15.5959 166.218 17.5163C166.218 19.3291 164.686 20.8439 162.847 20.8439Z" fill="#181818"/>
<path d="M157.406 5.17969H142.947V8.50888H148.24V23.8218H152.113V8.50888H157.406V5.17969Z" fill="#181818"/>
<path d="M128.995 10.8613C125.29 10.8613 122.002 13.5122 122.002 17.518C122.002 21.5238 125.29 24.1478 128.995 24.1478C132.7 24.1478 135.987 21.4969 135.987 17.518C135.987 13.5392 132.7 10.8613 128.995 10.8613ZM128.995 20.8455C127.184 20.8455 125.707 19.4654 125.707 17.518C125.707 15.5707 127.184 14.1636 128.995 14.1636C130.806 14.1636 132.282 15.5437 132.282 17.518C132.282 19.4923 130.806 20.8455 128.995 20.8455Z" fill="#181818"/>
<path d="M119.552 11.2129H115.902V23.8211H119.552V11.2129Z" fill="#181818"/>
<path d="M117.713 4.90039C116.564 4.90039 115.593 5.74363 115.593 6.83597C115.593 7.92831 116.564 8.79511 117.713 8.79511C118.862 8.79511 119.832 7.92662 119.832 6.83597C119.832 5.74531 118.888 4.90039 117.713 4.90039Z" fill="#181818"/>
<path d="M108.989 12.7268C108.07 11.4274 106.315 10.8602 104.811 10.8602C101.468 10.8602 98.4314 13.4303 98.4314 17.49C98.4314 21.5496 101.468 24.1467 104.811 24.1467C106.259 24.1467 108.07 23.5508 108.989 22.2532V23.8218H112.639V5.17969H108.989V12.7284V12.7268ZM105.506 20.8427C103.667 20.8427 102.135 19.3279 102.135 17.4883C102.135 15.6486 103.667 14.1608 105.506 14.1608C107.206 14.1608 108.876 15.5409 108.876 17.4883C108.876 19.4356 107.289 20.8427 105.506 20.8427Z" fill="#181818"/>
<path d="M92.3312 17.8692C92.3312 20.1414 90.7161 20.8449 89.4059 20.8449C88.0958 20.8449 86.926 19.9243 86.926 17.95V11.1855H83.2763V18.1402C83.2485 21.9288 85.0318 24.1472 88.4302 24.1472C89.7127 24.1472 91.7732 23.4167 92.3312 21.7656V23.8223H95.981V11.1872H92.3312V17.8709V17.8692Z" fill="#181818"/>
<path d="M77.9282 7.56055L74.2785 8.70843V11.186H72.3462V13.9463H74.2785V18.5731C74.2785 22.2794 75.8659 23.8228 79.5434 23.8228H80.8258V20.5222H79.9905C78.5417 20.5222 77.9577 19.7917 77.9282 18.3577V13.948H80.8258V11.1877H77.9282V7.56223V7.56055Z" fill="#181818"/>
<path d="M65.688 12.9712L63.5425 12.3753C61.5374 11.8081 61.3988 10.8605 61.3988 10.401C61.3988 9.15555 62.5408 8.18271 64.0451 8.18271C65.2946 8.18271 66.1888 8.90813 66.6792 9.72612L70.2787 8.54626C69.3983 6.28753 66.9565 4.85352 64.1283 4.85352C60.4508 4.85352 57.4978 7.15433 57.4978 10.4818C57.4978 12.1599 58.2499 14.6223 62.4559 15.7045L64.7972 16.3542C66.4401 16.8406 67.2199 17.5711 67.2199 18.5995C67.2199 19.9258 66.0779 20.8447 64.3518 20.8447C62.6257 20.8447 61.3745 19.5572 60.917 18.5911L57.4856 19.7002C58.1234 22.3091 60.7021 24.1453 64.2392 24.1453C67.7762 24.1453 71.1209 22.1172 71.1209 18.4093C71.1209 15.2434 68.5856 13.8093 65.688 12.9712Z" fill="#181818"/>
<path d="M21.907 15.8182L21.8376 15.7964C20.1566 15.2645 18.2936 15.2258 16.4826 15.7964L8.24046 18.3968L0 20.9972L2.6775 29.0004L10.918 26.4L19.1584 23.7995L27.3989 26.4L35.6393 29.0004L38.3168 20.9972L30.0764 18.3968L21.9035 15.8182H21.907Z" fill="#181818"/>
<path d="M27.4024 2.60041L19.162 5.20081L10.9215 2.60041L2.68107 0L0.00357056 8.00319L8.24403 10.6036L16.4862 13.2057C18.2955 13.7763 20.1602 13.7376 21.8412 13.2057H21.8464L30.0834 10.6036L38.3239 8.00319L35.6464 0L27.4059 2.60041H27.4024Z" fill="#181818"/>
</svg>
